<?xml version="1.0" standalone="no"?>
<!DOCTYPE svg PUBLIC "-//W3C//DTD SVG 20010904//EN"
 "http://www.w3.org/TR/2001/REC-SVG-20010904/DTD/svg10.dtd">
<svg version="1.0" xmlns="http://www.w3.org/2000/svg"
 width="1600.000000pt" height="960.000000pt" viewBox="0 0 1600.000000 960.000000"
 preserveAspectRatio="xMidYMid meet">
<metadata>
Created by potrace 1.16, written by Peter Selinger 2001-2019
</metadata>
<g transform="translate(0.000000,960.000000) scale(0.100000,-0.100000)"
fill="#000000" stroke="none">
<path d="M3073 8785 c-475 -62 -901 -238 -1283 -534 -117 -90 -316 -286 -413
-406 -106 -132 -220 -305 -290 -441 l-56 -110 1647 -1647 1647 -1647 2010 0
2010 1 45 66 c55 81 190 226 274 292 251 198 530 309 830 330 447 31 872 -136
1186 -466 192 -201 326 -455 386 -733 27 -122 27 -458 0 -580 -145 -665 -706
-1158 -1363 -1199 -345 -21 -656 65 -948 262 -107 73 -301 263 -365 359 l-45
67 -2225 3 c-2112 4 -2229 5 -2295 22 -81 21 -212 80 -282 126 -26 18 -655
638 -1396 1379 l-1348 1346 4 -1095 c4 -1056 4 -1099 24 -1205 111 -592 351
-1048 759 -1445 417 -406 948 -656 1526 -719 68 -8 1563 -11 4890 -11 4237 0
4808 2 4917 15 579 72 1083 314 1500 720 202 197 374 428 496 665 l54 106
-1647 1647 -1647 1647 -2010 0 -2010 -1 -45 -67 c-64 -96 -258 -286 -365 -359
-232 -157 -484 -246 -743 -262 -440 -27 -838 124 -1152 439 -215 214 -352 464
-416 760 -15 67 -19 127 -19 290 0 163 4 223 19 290 66 303 215 572 432 781
485 465 1185 555 1765 228 173 -98 379 -283 480 -433 l44 -65 2225 -3 c2112
-4 2229 -5 2295 -22 81 -21 212 -80 282 -126 26 -18 655 -638 1396 -1379
l1348 -1346 -4 1095 c-4 1193 -1 1126 -61 1385 -171 735 -683 1382 -1363 1724
-272 136 -580 227 -885 260 -156 17 -9681 13 -9815 -4z"/>
<path d="M6229 6877 c-150 -54 -259 -166 -309 -317 -30 -88 -25 -266 9 -350
49 -122 165 -236 286 -282 51 -20 79 -23 185 -23 106 0 134 3 185 23 124 47
240 163 287 287 20 51 23 79 23 185 0 106 -3 134 -23 185 -46 121 -160 237
-282 286 -43 18 -80 23 -175 26 -107 3 -127 1 -186 -20z"/>
<path d="M9429 3677 c-150 -54 -259 -166 -309 -317 -30 -88 -25 -266 9 -350
49 -122 165 -236 286 -282 51 -20 79 -23 185 -23 106 0 134 3 185 23 124 47
240 163 287 287 20 51 23 79 23 185 0 106 -3 134 -23 185 -46 121 -160 237
-282 286 -43 18 -80 23 -175 26 -107 3 -127 1 -186 -20z"/>
</g>
</svg>
