<?xml version="1.0" standalone="no"?>
<!DOCTYPE svg PUBLIC "-//W3C//DTD SVG 20010904//EN"
 "http://www.w3.org/TR/2001/REC-SVG-20010904/DTD/svg10.dtd">
<svg version="1.0" xmlns="http://www.w3.org/2000/svg"
 width="887.000000pt" height="575.000000pt" viewBox="0 0 887.000000 575.000000"
 preserveAspectRatio="xMidYMid meet">

<g transform="translate(0.000000,575.000000) scale(0.100000,-0.100000)"
fill="#000000" stroke="none">
<path d="M0 2875 l0 -2875 4435 0 4435 0 0 2875 0 2875 -4435 0 -4435 0 0
-2875z m1739 414 c17 -6 31 -17 31 -25 0 -8 4 -14 9 -14 5 0 17 -7 25 -16 14
-14 16 -69 16 -458 0 -330 -3 -445 -12 -454 -7 -7 -38 -12 -69 -12 -56 0 -81
11 -92 42 -3 10 -9 10 -28 -1 -87 -52 -178 -66 -254 -37 -59 23 -157 127 -180
192 -43 121 -27 323 33 408 81 117 228 150 333 75 l29 -20 0 143 c0 151 5 172
45 181 37 9 82 7 114 -4z m1060 0 c17 -6 31 -17 31 -25 0 -8 4 -14 9 -14 5 0
17 -7 25 -16 14 -14 16 -69 16 -458 0 -330 -3 -445 -12 -454 -7 -7 -38 -12
-69 -12 -56 0 -81 11 -92 42 -3 10 -9 10 -28 -1 -87 -52 -178 -66 -254 -37
-59 23 -157 127 -180 192 -43 121 -27 323 33 408 81 117 228 150 333 75 l29
-20 0 143 c0 151 5 172 45 181 37 9 82 7 114 -4z m4666 -1 c14 -6 25 -17 25
-25 0 -7 4 -13 9 -13 5 0 17 -7 25 -16 14 -14 16 -69 16 -454 0 -385 -2 -440
-16 -454 -11 -11 -35 -16 -81 -16 -63 0 -67 2 -104 39 l-39 39 0 440 0 441 22
15 c26 19 106 21 143 4z m534 -20 c48 -39 69 -91 55 -140 -10 -32 -11 -33 -69
-33 -53 0 -60 -3 -74 -26 -20 -36 -9 -59 30 -59 22 0 32 -5 36 -20 3 -11 11
-20 19 -20 20 0 34 -33 34 -82 0 -61 -15 -77 -75 -80 l-50 -3 -5 -238 c-4
-197 -8 -239 -20 -247 -20 -13 -127 -13 -151 0 -10 6 -19 17 -19 25 0 8 -7 15
-15 15 -29 0 -35 39 -35 244 0 178 -2 206 -15 206 -9 0 -20 11 -26 24 -6 13
-19 26 -29 29 -20 5 -28 50 -20 107 5 33 7 35 46 38 l42 3 6 67 c16 161 76
221 222 222 66 0 75 -3 113 -32z m333 -18 l40 -40 -7 -297 c-4 -164 -11 -308
-16 -320 -5 -13 -17 -23 -28 -23 -34 0 -32 -16 4 -51 44 -43 60 -94 45 -149
-21 -80 -129 -95 -194 -28 -46 47 -56 69 -56 121 0 51 29 97 61 97 16 0 19 4
13 23 -3 12 -10 23 -14 25 -38 15 -39 20 -48 337 -11 366 -17 345 91 345 68 0
70 -1 109 -40z m-6267 20 c14 -5 42 -26 62 -45 29 -28 37 -44 41 -83 3 -41 0
-53 -21 -78 -23 -26 -31 -29 -86 -29 -60 0 -62 1 -106 48 -38 39 -45 53 -45
86 0 22 5 52 12 66 17 37 90 55 143 35z m1350 0 c14 -5 42 -26 62 -45 29 -28
37 -44 41 -83 3 -41 0 -53 -21 -78 -23 -26 -31 -29 -86 -29 -60 0 -62 1 -106
48 -38 39 -45 53 -45 86 0 22 5 52 12 66 17 37 90 55 143 35z m-2664 -78 l39
-42 0 -400 c0 -467 6 -440 -101 -440 -63 0 -99 12 -99 33 0 7 -10 17 -22 22
l-23 10 0 420 0 419 25 14 c15 8 48 11 83 9 53 -3 61 -7 98 -45z m3074 -49 c5
-12 17 -24 26 -26 11 -3 20 -19 24 -43 10 -62 12 -64 54 -64 31 0 41 -4 46
-20 3 -11 13 -20 20 -20 8 0 19 -10 26 -21 14 -28 6 -118 -12 -130 -8 -5 -40
-9 -71 -9 l-58 0 0 -151 0 -151 46 7 c41 6 46 4 51 -14 3 -12 11 -21 19 -21
30 0 45 -80 24 -134 -11 -29 -59 -46 -130 -46 -98 0 -165 40 -218 129 -26 44
-27 52 -30 214 -3 137 -6 167 -18 167 -8 0 -19 11 -25 24 -6 13 -19 26 -29 29
-22 6 -34 69 -22 112 7 26 13 30 50 33 l42 3 0 68 c0 40 5 72 12 79 9 9 38 12
88 10 66 -3 76 -6 85 -25z m1011 -136 c16 -8 42 -27 58 -42 l29 -27 26 21
c119 95 235 93 341 -6 89 -82 93 -97 98 -374 5 -279 8 -269 -95 -269 -63 0
-67 2 -104 39 l-39 39 0 195 c0 107 -3 202 -6 211 -11 30 -60 19 -104 -22
l-40 -39 0 -201 c0 -232 4 -222 -99 -222 -57 0 -91 15 -91 40 0 5 -9 12 -20
15 -19 6 -20 16 -21 193 -1 103 -4 201 -8 217 -10 46 -49 46 -100 -1 l-41 -36
0 -198 c0 -235 2 -230 -97 -230 -63 0 -67 2 -104 39 l-39 39 0 300 c0 300 0
301 22 316 36 25 104 21 134 -9 30 -30 38 -31 73 -6 58 42 165 50 227 18z
m1589 2 c17 -7 47 -30 68 -52 32 -34 37 -45 37 -85 0 -75 -8 -80 -82 -54 -95
33 -168 26 -168 -17 0 -13 19 -25 70 -45 76 -30 169 -105 196 -158 9 -17 15
-54 15 -84 0 -133 -95 -213 -257 -214 -99 0 -166 22 -215 72 -36 38 -39 44
-39 100 0 74 11 79 89 44 67 -30 135 -34 169 -10 37 26 26 42 -55 79 -80 37
-153 97 -180 150 -9 16 -18 51 -22 77 -6 46 -10 36 -135 -332 -98 -291 -134
-383 -149 -392 -11 -6 -48 -13 -82 -16 -60 -4 -63 -4 -103 34 -23 21 -42 45
-42 54 0 9 17 59 38 111 38 92 38 94 21 124 -9 17 -63 155 -120 309 l-103 278
23 19 c17 14 39 19 82 19 56 0 61 -2 103 -42 39 -38 49 -59 91 -180 26 -76 49
-138 51 -138 1 0 23 66 49 148 65 207 62 200 102 208 61 11 109 -1 147 -38 20
-19 36 -43 36 -53 0 -13 11 -6 38 24 52 59 122 83 222 77 41 -2 89 -10 105
-17z m613 -9 c72 -31 156 -123 177 -192 20 -70 20 -181 -1 -202 -13 -13 -45
-16 -194 -16 -111 0 -181 -4 -185 -10 -4 -6 -4 -24 0 -40 5 -22 15 -32 42 -41
41 -13 132 -6 194 17 56 19 76 18 84 -5 3 -11 15 -23 25 -26 12 -4 22 -19 26
-41 19 -104 -38 -138 -236 -139 -153 0 -201 17 -280 101 -73 77 -92 127 -98
249 -3 84 -1 110 18 165 36 108 105 174 207 200 60 15 162 6 221 -20z m-4959
9 c17 -6 31 -17 31 -25 0 -8 4 -14 9 -14 5 0 17 -7 25 -16 14 -13 16 -56 16
-314 0 -348 5 -330 -97 -330 -63 0 -67 2 -104 39 l-39 39 2 303 3 303 25 13
c31 16 87 17 129 2z m1350 0 c17 -6 31 -17 31 -25 0 -8 4 -14 9 -14 5 0 17 -7
25 -16 14 -13 16 -56 16 -314 0 -348 5 -330 -97 -330 -63 0 -67 2 -104 39
l-39 39 2 303 3 303 25 13 c31 16 87 17 129 2z"/>
<path d="M1453 2796 c-16 -14 -35 -42 -41 -64 -16 -52 -15 -160 1 -192 22 -44
74 -39 132 11 l35 31 0 105 0 104 -35 15 c-47 19 -59 18 -92 -10z"/>
<path d="M2513 2796 c-16 -14 -35 -42 -41 -64 -16 -52 -15 -160 1 -192 22 -44
74 -39 132 11 l35 31 0 105 0 104 -35 15 c-47 19 -59 18 -92 -10z"/>
<path d="M6869 2811 c-16 -16 -29 -34 -29 -40 0 -7 30 -11 80 -11 l80 0 0 28
c0 38 -17 52 -63 52 -29 0 -46 -7 -68 -29z"/>
</g>
</svg>
