<?xml version="1.0" standalone="no"?>
<!DOCTYPE svg PUBLIC "-//W3C//DTD SVG 20010904//EN"
 "http://www.w3.org/TR/2001/REC-SVG-20010904/DTD/svg10.dtd">
<svg version="1.0" xmlns="http://www.w3.org/2000/svg"
 width="495.000000pt" height="380.000000pt" viewBox="0 0 495.000000 380.000000"
 preserveAspectRatio="xMidYMid meet">

<g transform="translate(0.000000,380.000000) scale(0.100000,-0.100000)"
fill="#000000" stroke="none">
<path d="M1506 3694 c-14 -14 -16 -70 -16 -474 0 -404 2 -460 16 -474 13 -14
49 -16 239 -16 209 0 224 -1 218 -17 -6 -17 -5 -17 14 0 18 15 50 17 356 17
293 0 337 -2 337 -15 0 -8 5 -15 10 -15 6 0 10 7 10 15 0 13 49 15 382 15 349
0 383 -1 401 -17 19 -17 20 -17 14 0 -6 16 6 17 173 17 149 0 181 3 194 16 14
14 16 70 16 474 0 404 -2 460 -16 474 -14 14 -134 16 -1174 16 -1040 0 -1160
-2 -1174 -16z m2339 -154 l0 -145 -1165 0 -1165 0 -3 134 c-1 74 0 141 2 148
4 11 219 13 1168 11 l1163 -3 0 -145z m0 -320 l0 -145 -1165 0 -1165 0 -3 134
c-1 74 0 141 2 148 4 11 219 13 1168 11 l1163 -3 0 -145z m0 -320 l0 -145
-1165 0 -1165 0 -3 134 c-1 74 0 141 2 148 4 11 219 13 1168 11 l1163 -3 0
-145z"/>
<path d="M2153 3588 c30 -77 40 -98 46 -98 3 0 16 25 28 55 16 42 18 55 8 55
-7 0 -16 -13 -20 -30 -4 -16 -10 -30 -14 -30 -3 0 -12 14 -18 30 -6 17 -17 30
-23 30 -7 0 -10 -6 -7 -12z"/>
<path d="M2260 3590 c0 -5 5 -10 10 -10 6 0 10 5 10 10 0 6 -4 10 -10 10 -5 0
-10 -4 -10 -10z"/>
<path d="M2350 3586 c0 -8 -12 -17 -26 -20 -21 -6 -25 -11 -22 -39 3 -28 7
-32 36 -34 l32 -1 0 54 c0 30 -4 54 -10 54 -5 0 -10 -6 -10 -14z m0 -56 c0
-11 -7 -20 -15 -20 -8 0 -15 9 -15 20 0 11 7 20 15 20 8 0 15 -9 15 -20z"/>
<path d="M2562 3588 c-7 -7 -12 -26 -12 -43 0 -37 16 -55 47 -55 30 0 30 18 1
22 -18 2 -23 10 -23 33 0 23 5 31 23 33 12 2 22 8 22 13 0 13 -44 11 -58 -3z"/>
<path d="M3032 3577 c-15 -18 0 -81 21 -85 9 -2 17 1 17 7 0 6 -4 11 -10 11
-14 0 -12 38 2 42 9 3 8 9 -4 21 -12 13 -18 14 -26 4z"/>
<path d="M2260 3530 c0 -22 5 -40 10 -40 6 0 10 18 10 40 0 22 -4 40 -10 40
-5 0 -10 -18 -10 -40z"/>
<path d="M2390 3555 c-20 -24 -4 -65 25 -65 14 0 25 5 25 10 0 6 -9 10 -21 10
-11 0 -17 5 -14 10 3 6 15 10 26 10 22 0 24 11 7 28 -16 16 -33 15 -48 -3z
m37 -11 c-3 -3 -12 -4 -19 -1 -8 3 -5 6 6 6 11 1 17 -2 13 -5z"/>
<path d="M2470 3550 c-14 -26 3 -60 30 -60 27 0 44 34 30 60 -6 11 -19 20 -30
20 -11 0 -24 -9 -30 -20z m46 -11 c10 -17 -13 -36 -27 -22 -12 12 -4 33 11 33
5 0 12 -5 16 -11z"/>
<path d="M2640 3555 c-24 -29 8 -75 44 -62 21 8 22 63 0 71 -23 9 -30 8 -44
-9z m40 -25 c0 -11 -7 -20 -15 -20 -8 0 -15 9 -15 20 0 11 7 20 15 20 8 0 15
-9 15 -20z"/>
<path d="M2720 3528 c0 -21 5 -38 10 -38 6 0 10 14 10 30 0 20 5 30 15 30 10
0 15 -10 15 -30 0 -16 5 -30 11 -30 6 0 9 16 7 38 -3 34 -5 37 -35 37 -32 1
-33 -1 -33 -37z"/>
<path d="M2800 3560 c0 -13 29 -70 35 -70 6 0 35 57 35 70 0 19 -18 10 -24
-12 l-7 -23 -11 23 c-11 23 -28 30 -28 12z"/>
<path d="M2890 3555 c-20 -24 -4 -65 25 -65 14 0 25 5 25 10 0 6 -9 10 -21 10
-11 0 -17 5 -14 10 3 6 15 10 26 10 22 0 24 11 7 28 -16 16 -33 15 -48 -3z
m37 -11 c-3 -3 -12 -4 -19 -1 -8 3 -5 6 6 6 11 1 17 -2 13 -5z"/>
<path d="M2965 3561 c-10 -9 -5 -71 5 -71 6 0 10 11 10 25 0 14 7 28 15 31 22
9 18 23 -5 21 -12 -1 -23 -3 -25 -6z"/>
<path d="M3092 3561 c-8 -4 -12 -21 -10 -37 2 -23 9 -30 31 -32 15 -2 27 1 27
7 0 6 -9 11 -20 11 -11 0 -20 5 -20 10 0 6 9 10 21 10 14 0 19 5 17 17 -4 20
-27 27 -46 14z m35 -17 c-3 -3 -12 -4 -19 -1 -8 3 -5 6 6 6 11 1 17 -2 13 -5z"/>
<path d="M3160 3528 c0 -21 5 -38 10 -38 6 0 10 14 10 30 0 17 5 30 10 30 6 0
10 4 10 8 0 4 -9 8 -20 8 -16 0 -20 -7 -20 -38z"/>
<path d="M1605 3180 c-3 -5 -1 -10 4 -10 6 0 11 5 11 10 0 6 -2 10 -4 10 -3 0
-8 -4 -11 -10z"/>
<path d="M1645 3180 c-3 -5 -1 -10 4 -10 6 0 11 5 11 10 0 6 -2 10 -4 10 -3 0
-8 -4 -11 -10z"/>
<path d="M2687 2973 c-15 -30 -11 -133 4 -133 5 0 9 20 9 44 0 26 5 47 13 50
10 5 10 7 0 12 -18 8 -16 34 2 34 8 0 15 5 15 10 0 21 -30 9 -43 -17z"/>
<path d="M3277 2973 c-15 -30 -11 -133 4 -133 5 0 9 20 9 44 0 26 5 47 13 50
10 5 10 7 0 12 -18 8 -16 34 2 34 8 0 15 5 15 10 0 21 -30 9 -43 -17z"/>
<path d="M2334 2918 c12 -39 26 -73 32 -75 5 -2 20 27 32 65 25 76 26 82 14
82 -5 0 -17 -28 -27 -62 l-18 -63 -14 50 c-21 73 -22 75 -32 75 -5 0 1 -32 13
-72z"/>
<path d="M2445 2980 c-3 -5 -1 -10 4 -10 6 0 11 5 11 10 0 6 -2 10 -4 10 -3 0
-8 -4 -11 -10z"/>
<path d="M2560 2964 c0 -20 -4 -24 -17 -20 -26 8 -42 -6 -48 -39 -7 -41 6 -57
49 -60 l36 -3 0 74 c0 43 -4 74 -10 74 -5 0 -10 -12 -10 -26z m-5 -69 c0 -23
-4 -30 -20 -30 -21 0 -31 25 -21 51 11 28 41 12 41 -21z"/>
<path d="M2620 2945 c-14 -42 -5 -109 17 -127 15 -12 15 -11 4 11 -8 15 -12
48 -9 87 2 35 3 64 2 64 -1 0 -8 -16 -14 -35z"/>
<path d="M3570 2961 c13 -25 13 -92 0 -126 -6 -16 -6 -24 0 -20 20 12 31 83
20 125 -6 22 -15 40 -21 40 -6 0 -6 -7 1 -19z"/>
<path d="M2260 2963 c0 -5 -11 -13 -25 -20 -14 -6 -25 -7 -25 -2 0 5 -4 9 -10
9 -5 0 -10 -25 -10 -55 0 -30 5 -55 10 -55 6 0 10 18 10 40 0 28 5 42 19 49
24 13 31 5 31 -34 0 -33 24 -65 38 -50 4 4 1 10 -5 12 -19 7 -16 64 5 79 16
13 16 13 0 14 -10 0 -18 5 -18 10 0 6 -4 10 -10 10 -5 0 -10 -3 -10 -7z"/>
<path d="M3498 2958 c-15 -42 18 -136 40 -113 4 4 1 10 -5 12 -19 7 -16 64 5
79 16 13 16 13 0 14 -10 0 -18 5 -18 10 0 14 -17 12 -22 -2z"/>
<path d="M1591 2928 c-1 -23 -6 -28 -28 -29 -28 -1 -28 -1 -3 -8 14 -4 27 -17
31 -31 l7 -25 1 27 c1 21 7 28 29 31 l27 4 -27 2 c-21 1 -28 7 -31 29 l-4 27
-2 -27z"/>
<path d="M1690 2930 c-11 -11 -20 -28 -20 -38 0 -23 30 -52 53 -52 25 0 20 18
-5 22 -18 2 -23 10 -23 33 0 23 5 31 23 33 12 2 22 8 22 13 0 16 -29 10 -50
-11z"/>
<path d="M1776 2928 c-21 -30 -20 -51 5 -74 24 -22 49 -11 63 29 8 21 6 31 -9
47 -23 26 -40 25 -59 -2z m49 -33 c0 -23 -4 -30 -20 -30 -21 0 -31 25 -21 51
11 28 41 12 41 -21z"/>
<path d="M1880 2894 c0 -64 17 -73 22 -12 2 31 8 44 21 46 14 3 17 -4 17 -42
0 -25 5 -46 10 -46 15 0 12 87 -2 97 -7 4 -25 8 -40 9 -27 2 -28 0 -28 -52z"/>
<path d="M1989 2899 c9 -29 22 -54 28 -56 5 -2 15 15 22 38 7 22 15 47 18 55
3 8 1 14 -5 14 -6 0 -14 -15 -17 -32 -12 -53 -19 -56 -30 -14 -6 22 -17 42
-23 44 -7 2 -5 -16 7 -49z"/>
<path d="M2096 2928 c-9 -12 -16 -30 -16 -39 0 -33 59 -64 75 -40 3 5 -7 11
-22 13 -42 5 -41 28 2 28 33 0 36 2 29 23 -13 42 -45 49 -68 15z m52 -11 c3
-12 -4 -17 -22 -17 -28 0 -33 9 -14 28 15 15 32 10 36 -11z"/>
<path d="M2450 2895 c0 -30 5 -55 10 -55 6 0 10 25 10 55 0 30 -4 55 -10 55
-5 0 -10 -25 -10 -55z"/>
<path d="M2740 2894 c0 -64 17 -73 22 -12 2 31 8 44 21 46 14 3 17 -4 17 -42
0 -25 5 -46 10 -46 15 0 12 87 -2 97 -7 4 -25 8 -40 9 -27 2 -28 0 -28 -52z"/>
<path d="M2856 2942 c-3 -5 4 -8 16 -8 30 1 34 -20 5 -28 -29 -7 -42 -33 -26
-52 18 -22 31 -16 17 6 -11 17 -10 22 2 30 25 16 32 12 28 -17 -2 -15 2 -28
10 -30 16 -6 17 78 0 95 -14 14 -44 16 -52 4z"/>
<path d="M2940 2893 c0 -63 18 -71 22 -10 2 34 7 42 23 42 16 0 21 -8 23 -42
4 -57 22 -55 22 2 0 38 3 45 20 45 17 0 20 -7 20 -45 0 -25 5 -45 10 -45 6 0
10 20 10 44 0 52 -21 76 -50 58 -11 -6 -22 -8 -25 -3 -3 5 -21 9 -40 8 l-35
-1 0 -53z"/>
<path d="M3126 2928 c-9 -12 -16 -30 -16 -39 0 -33 59 -64 75 -40 3 5 -7 11
-22 13 -42 5 -41 28 2 28 33 0 36 2 29 23 -13 42 -45 49 -68 15z m52 -11 c3
-12 -4 -17 -22 -17 -28 0 -33 9 -14 28 15 15 32 10 36 -11z"/>
<path d="M3320 2893 c0 -63 18 -71 22 -10 2 34 7 42 23 42 16 0 21 -8 23 -42
4 -57 22 -55 22 2 0 38 3 45 20 45 17 0 20 -7 20 -45 0 -25 5 -45 10 -45 6 0
10 20 10 44 0 52 -21 76 -50 58 -11 -6 -22 -8 -25 -3 -3 5 -21 9 -40 8 l-35
-1 0 -53z"/>
<path d="M3207 2833 c-5 -26 -4 -26 9 -8 16 22 18 35 5 35 -5 0 -11 -12 -14
-27z"/>
<path d="M106 3394 c-23 -23 -23 -285 0 -308 14 -14 72 -16 494 -16 422 0 480
2 494 16 12 11 16 35 16 85 l0 69 153 -1 c148 -1 151 -1 110 -16 -24 -8 -43
-19 -43 -23 0 -8 128 35 139 46 7 7 -1 11 -71 38 -38 14 -68 21 -68 16 0 -4
19 -15 43 -23 41 -15 38 -15 -110 -16 l-153 -1 0 59 c0 98 39 91 -510 91 -422
0 -480 -2 -494 -16z m979 -154 l0 -145 -485 0 -485 0 -3 134 c-1 74 0 141 2
148 4 11 98 13 488 11 l483 -3 0 -145z"/>
<path d="M236 3268 c-23 -55 -28 -78 -18 -78 6 0 12 7 16 15 7 20 33 19 45 -2
18 -33 21 -7 5 40 -20 61 -31 66 -48 25z m24 -23 c0 -8 -4 -15 -10 -15 -5 0
-7 7 -4 15 4 8 8 15 10 15 2 0 4 -7 4 -15z"/>
<path d="M490 3245 c0 -44 3 -55 16 -55 11 0 14 5 10 16 -3 9 -6 33 -6 55 0
21 -4 39 -10 39 -5 0 -10 -25 -10 -55z"/>
<path d="M530 3290 c0 -5 7 -10 16 -10 8 0 12 5 9 10 -3 6 -10 10 -16 10 -5 0
-9 -4 -9 -10z"/>
<path d="M780 3290 c0 -5 7 -10 16 -10 8 0 12 5 9 10 -3 6 -10 10 -16 10 -5 0
-9 -4 -9 -10z"/>
<path d="M732 3277 c-15 -18 0 -81 21 -85 9 -2 17 1 17 7 0 6 -4 11 -10 11
-14 0 -12 38 2 42 9 3 8 9 -4 21 -12 13 -18 14 -26 4z"/>
<path d="M315 3262 c-9 -10 -5 -102 5 -102 6 0 10 6 10 14 0 8 10 16 23 18 18
2 22 9 22 38 0 31 -3 35 -27 36 -15 1 -30 -1 -33 -4z m45 -32 c0 -11 -7 -20
-15 -20 -15 0 -21 21 -8 33 12 13 23 7 23 -13z"/>
<path d="M400 3213 c0 -29 5 -53 10 -53 6 0 10 6 10 13 0 7 10 17 23 22 16 7
22 18 22 40 0 27 -3 30 -32 30 l-33 1 0 -53z m50 17 c0 -11 -7 -20 -15 -20 -8
0 -15 9 -15 20 0 11 7 20 15 20 8 0 15 -9 15 -20z"/>
<path d="M543 3230 c0 -25 2 -35 4 -22 2 12 2 32 0 45 -2 12 -4 2 -4 -23z"/>
<path d="M578 3245 c-13 -29 3 -55 33 -55 25 0 24 16 -1 23 -11 3 -20 10 -20
17 0 7 9 14 20 17 26 7 26 23 0 23 -12 0 -25 -10 -32 -25z"/>
<path d="M655 3260 c-3 -6 4 -10 17 -10 22 -1 22 -2 -5 -16 -35 -19 -30 -39
11 -41 29 -1 32 2 32 26 0 40 -38 69 -55 41z m30 -40 c3 -5 -1 -10 -10 -10 -9
0 -13 5 -10 10 3 6 8 10 10 10 2 0 7 -4 10 -10z"/>
<path d="M793 3230 c0 -25 2 -35 4 -22 2 12 2 32 0 45 -2 12 -4 2 -4 -23z"/>
<path d="M830 3250 c-14 -26 3 -60 30 -60 11 0 24 9 30 20 14 26 -3 60 -30 60
-11 0 -24 -9 -30 -20z m46 -11 c10 -17 -13 -36 -27 -22 -12 12 -4 33 11 33 5
0 12 -5 16 -11z"/>
<path d="M910 3228 c0 -21 5 -38 10 -38 6 0 10 14 10 30 0 20 5 30 15 30 10 0
15 -10 15 -30 0 -16 5 -30 11 -30 6 0 9 16 7 38 -3 34 -5 37 -35 37 -32 1 -33
-1 -33 -37z"/>
<path d="M1935 2660 c-4 -12 -5 -24 -2 -27 3 -2 8 5 12 17 4 12 5 24 2 27 -3
2 -8 -5 -12 -17z"/>
<path d="M3500 2673 c0 -19 11 -43 21 -43 13 0 11 14 -6 36 -8 10 -15 14 -15
7z"/>
<path d="M2670 2640 c0 -11 5 -20 10 -20 6 0 10 9 10 20 0 11 -4 20 -10 20 -5
0 -10 -9 -10 -20z"/>
<path d="M1910 2591 c0 -5 -3 -16 -6 -25 -3 -9 -2 -16 4 -16 5 0 12 11 14 25
3 14 1 25 -3 25 -5 0 -9 -4 -9 -9z"/>
<path d="M3534 2584 c3 -9 6 -18 6 -20 0 -2 4 -4 9 -4 5 0 7 9 4 20 -3 11 -10
20 -15 20 -6 0 -7 -7 -4 -16z"/>
<path d="M2670 2560 c0 -11 5 -20 10 -20 6 0 10 9 10 20 0 11 -4 20 -10 20 -5
0 -10 -9 -10 -20z"/>
<path d="M3550 2518 c0 -7 5 -20 10 -28 8 -12 10 -11 10 7 0 12 -4 25 -10 28
-5 3 -10 0 -10 -7z"/>
<path d="M1898 2514 c-5 -4 -8 -16 -8 -28 0 -14 3 -17 11 -9 6 6 9 19 7 28 -1
9 -6 13 -10 9z"/>
<path d="M2668 2453 l-3 -48 -14 43 c-8 23 -18 42 -23 42 -6 0 -8 -4 -6 -8 2
-4 14 -38 27 -75 14 -37 28 -67 31 -67 3 0 17 30 31 67 13 37 26 71 27 75 2 4
0 8 -6 8 -5 0 -15 -19 -23 -42 l-14 -43 -3 48 c-2 26 -7 47 -12 47 -5 0 -10
-21 -12 -47z"/>
<path d="M3560 2425 c0 -14 5 -25 10 -25 6 0 10 11 10 25 0 14 -4 25 -10 25
-5 0 -10 -11 -10 -25z"/>
<path d="M1890 2416 c0 -14 5 -26 10 -26 6 0 10 9 10 19 0 11 -4 23 -10 26 -6
4 -10 -5 -10 -19z"/>
<path d="M3555 2315 c-7 -61 -25 -84 -25 -33 0 18 -5 40 -11 48 -10 15 -8 -19
7 -124 l6 -38 44 68 c24 38 43 74 43 79 0 6 -6 1 -14 -10 -8 -11 -21 -29 -30
-40 -15 -19 -16 -18 -10 20 4 22 9 50 12 63 3 12 1 22 -5 22 -5 0 -13 -25 -17
-55z"/>
<path d="M1900 2341 c0 -11 5 -23 10 -26 6 -3 10 3 10 14 0 11 -4 23 -10 26
-5 3 -10 -3 -10 -14z"/>
<path d="M1970 2245 l-2 -50 -20 45 c-12 25 -23 40 -25 33 -2 -6 3 -25 11 -42
24 -46 19 -48 -19 -11 -55 53 -40 22 20 -44 l55 -59 -1 59 c-1 32 -5 73 -9 89
-7 27 -8 24 -10 -20z"/>
<path d="M2345 2275 c-33 -6 -69 -15 -80 -19 -41 -16 -71 -28 -95 -41 -14 -8
-46 -24 -72 -36 -27 -12 -48 -25 -48 -30 0 -5 -7 -9 -15 -9 -8 0 -15 -4 -15
-8 0 -16 -38 -53 -44 -44 -11 18 -81 25 -304 29 -187 3 -234 1 -285 -13 -34
-9 -82 -20 -107 -25 -191 -34 -293 -101 -318 -209 -18 -77 -16 -289 4 -336 32
-81 58 -135 90 -193 23 -41 123 -141 141 -141 7 0 13 -3 13 -8 0 -4 21 -18 47
-32 27 -13 65 -35 87 -48 38 -23 38 -24 19 -45 -44 -51 -57 -97 -61 -228 -3
-112 -2 -132 17 -174 12 -26 21 -53 21 -60 0 -7 6 -15 13 -18 8 -3 24 -27 37
-54 44 -93 184 -206 335 -268 17 -7 41 -18 55 -23 181 -77 315 -102 549 -102
152 0 322 18 376 39 44 18 93 31 113 31 12 0 30 4 40 9 9 5 43 21 75 36 32 15
70 38 84 51 14 13 28 24 30 24 2 0 19 -15 36 -33 85 -89 150 -100 577 -95 333
5 340 5 437 49 24 10 46 19 49 19 3 0 20 6 37 14 106 45 137 60 137 68 0 4 7
8 16 8 25 0 74 39 74 59 0 10 3 21 7 25 13 12 33 81 33 112 0 16 5 35 11 41 8
8 10 52 7 135 -3 108 -7 128 -26 155 -12 17 -22 36 -22 41 0 10 -13 40 -43 97
-9 17 -24 48 -35 70 -11 22 -45 67 -75 100 l-56 60 32 6 c34 6 222 80 272 108
16 9 37 23 46 31 10 8 35 26 56 39 68 44 136 131 161 207 13 38 28 77 34 88 5
10 12 69 15 130 4 86 2 121 -10 157 -16 48 -55 99 -76 99 -6 0 -11 4 -11 9 0
5 -15 13 -32 16 -31 7 -100 34 -140 56 -10 5 -38 9 -62 9 -25 0 -48 5 -51 10
-10 17 -329 12 -410 -6 -38 -9 -90 -20 -115 -25 -25 -4 -65 -13 -90 -18 -25
-5 -58 -13 -75 -16 -16 -4 -39 -10 -50 -15 -11 -5 -42 -16 -68 -26 -26 -9 -50
-21 -53 -25 -3 -5 -12 -9 -21 -9 -16 0 -112 -56 -123 -72 -4 -4 -20 -10 -36
-14 -30 -6 -32 -4 -65 64 -30 62 -39 73 -79 90 -105 47 -151 62 -184 62 -19 0
-38 5 -41 10 -3 6 -19 10 -36 10 -38 0 -219 38 -241 50 -25 14 -341 10 -413
-5z m450 -38 c33 -9 96 -23 140 -31 181 -34 272 -60 320 -92 14 -9 37 -41 52
-72 42 -85 47 -92 64 -97 24 -8 145 60 157 88 2 4 11 7 19 7 8 0 34 10 57 21
22 12 49 25 58 30 10 5 27 9 37 9 11 0 23 5 26 10 3 6 19 10 35 10 16 0 31 4
34 9 3 5 23 11 43 14 39 6 71 12 204 41 109 24 464 13 493 -15 6 -5 17 -9 25
-9 9 -1 34 -9 56 -20 22 -11 46 -19 53 -20 33 -1 112 -71 112 -100 0 -10 5
-22 11 -26 16 -10 4 -207 -16 -264 -22 -63 -48 -123 -60 -138 -84 -104 -107
-124 -225 -194 -61 -37 -235 -106 -287 -114 -27 -4 -43 -12 -43 -21 0 -7 21
-35 48 -62 69 -70 99 -108 105 -133 4 -13 15 -33 27 -45 11 -12 20 -27 20 -34
0 -10 12 -41 44 -109 6 -14 15 -28 20 -31 14 -10 21 -225 7 -233 -6 -4 -11
-24 -11 -45 0 -21 -11 -64 -24 -96 -24 -60 -53 -84 -156 -131 -19 -8 -48 -22
-63 -30 -16 -8 -35 -14 -43 -14 -8 0 -22 -4 -32 -9 -99 -53 -164 -61 -481 -61
-394 0 -466 17 -537 125 -21 32 -44 32 -75 -1 -36 -39 -105 -84 -127 -84 -11
0 -22 -4 -24 -8 -4 -10 -144 -48 -268 -72 -165 -33 -440 -24 -635 20 -27 6
-54 15 -60 20 -6 5 -37 18 -70 30 -118 42 -239 110 -305 171 l-64 59 611 0
c543 0 613 2 627 16 14 13 16 50 16 244 0 194 -2 231 -16 244 -14 14 -86 16
-642 16 -377 0 -633 -4 -642 -10 -12 -7 -16 -45 -20 -202 l-5 -193 -27 57
c-25 50 -28 68 -28 158 0 112 21 185 66 227 39 36 31 57 -35 97 -32 20 -62 36
-65 36 -21 0 -147 96 -179 137 -43 53 -117 201 -117 232 0 12 -4 21 -10 21 -6
0 -10 46 -10 118 0 131 16 204 54 249 29 34 112 77 186 97 214 55 220 56 436
56 217 0 284 -10 309 -43 18 -25 32 -21 59 19 24 36 100 94 122 94 6 0 21 9
34 20 13 11 29 20 37 20 7 0 21 4 31 9 83 42 135 50 322 47 114 -2 183 -8 225
-19z m-110 -1487 l0 -235 -620 -2 -620 -3 -17 31 c-16 26 -18 59 -18 233 0
112 3 206 7 209 3 4 290 6 637 5 l631 -3 0 -235z"/>
<path d="M2406 1994 c-23 -23 -23 -285 0 -308 13 -14 63 -16 394 -16 331 0
381 2 394 16 23 23 23 285 0 308 -13 14 -63 16 -394 16 -331 0 -381 -2 -394
-16z m779 -154 l0 -145 -385 0 -385 0 -3 134 c-1 74 0 141 2 148 4 11 80 13
388 11 l383 -3 0 -145z"/>
<path d="M2486 1878 c12 -42 33 -88 39 -88 6 0 27 46 39 88 12 38 -12 24 -25
-15 l-12 -37 -14 37 c-16 40 -39 52 -27 15z"/>
<path d="M2580 1890 c0 -5 7 -10 16 -10 8 0 12 5 9 10 -3 6 -10 10 -16 10 -5
0 -9 -4 -9 -10z"/>
<path d="M2670 1885 c0 -8 -7 -15 -15 -15 -9 0 -20 -11 -27 -25 -14 -31 4 -55
38 -53 22 2 24 7 24 55 0 29 -4 53 -10 53 -5 0 -10 -7 -10 -15z m0 -55 c0 -11
-4 -20 -9 -20 -14 0 -23 18 -16 30 10 17 25 11 25 -10z"/>
<path d="M2880 1845 c0 -30 5 -55 10 -55 6 0 10 11 10 24 0 18 7 26 23 29 l22
4 -22 2 c-28 1 -31 31 -3 31 11 0 20 5 20 10 0 6 -13 10 -30 10 -30 0 -30 -1
-30 -55z"/>
<path d="M2960 1890 c0 -5 5 -10 10 -10 6 0 10 5 10 10 0 6 -4 10 -10 10 -5 0
-10 -4 -10 -10z"/>
<path d="M3000 1850 c0 -36 4 -52 15 -57 9 -3 19 -2 23 2 4 4 1 10 -5 12 -8 3
-13 23 -13 49 0 24 -4 44 -10 44 -5 0 -10 -23 -10 -50z"/>
<path d="M2593 1830 c0 -25 2 -35 4 -22 2 12 2 32 0 45 -2 12 -4 2 -4 -23z"/>
<path d="M2722 1861 c-8 -4 -12 -21 -10 -37 2 -23 9 -30 31 -32 15 -2 27 1 27
7 0 6 -9 11 -20 11 -11 0 -20 5 -20 10 0 6 9 10 21 10 14 0 19 5 17 17 -4 20
-27 27 -46 14z m35 -17 c-3 -3 -12 -4 -19 -1 -8 3 -5 6 6 6 11 1 17 -2 13 -5z"/>
<path d="M2800 1855 c-24 -29 8 -75 44 -62 21 8 22 63 0 71 -23 9 -30 8 -44
-9z m40 -25 c0 -11 -7 -20 -15 -20 -8 0 -15 9 -15 20 0 11 7 20 15 20 8 0 15
-9 15 -20z"/>
<path d="M2960 1830 c0 -22 5 -40 10 -40 6 0 10 18 10 40 0 22 -4 40 -10 40
-5 0 -10 -18 -10 -40z"/>
<path d="M3062 1861 c-8 -4 -12 -21 -10 -37 2 -23 9 -30 31 -32 15 -2 27 1 27
7 0 6 -9 11 -20 11 -11 0 -20 5 -20 10 0 6 9 10 21 10 14 0 19 5 17 17 -4 20
-27 27 -46 14z m35 -17 c-3 -3 -12 -4 -19 -1 -8 3 -5 6 6 6 11 1 17 -2 13 -5z"/>
<path d="M1306 1794 c-23 -23 -23 -285 0 -308 14 -14 72 -16 494 -16 422 0
480 2 494 16 23 23 23 285 0 308 -14 14 -72 16 -494 16 -422 0 -480 -2 -494
-16z m979 -154 l0 -145 -485 0 -485 0 -3 134 c-1 74 0 141 2 148 4 11 98 13
488 11 l483 -3 0 -145z"/>
<path d="M1426 1650 c-18 -50 -14 -82 5 -47 13 22 28 22 45 0 7 -10 15 -16 17
-13 7 7 -33 110 -42 110 -4 0 -15 -23 -25 -50z m30 -17 c-10 -10 -19 5 -10 18
6 11 8 11 12 0 2 -7 1 -15 -2 -18z"/>
<path d="M1640 1685 c0 -8 -7 -15 -15 -15 -9 0 -20 -11 -27 -25 -14 -31 4 -55
38 -53 22 2 24 7 24 55 0 29 -4 53 -10 53 -5 0 -10 -7 -10 -15z m0 -55 c0 -21
-15 -27 -25 -10 -7 12 2 30 16 30 5 0 9 -9 9 -20z"/>
<path d="M1680 1690 c0 -5 7 -10 16 -10 8 0 12 5 9 10 -3 6 -10 10 -16 10 -5
0 -9 -4 -9 -10z"/>
<path d="M1810 1645 c0 -30 5 -55 10 -55 6 0 10 15 10 33 l1 32 18 -22 19 -23
15 23 c16 22 16 22 16 -10 1 -18 6 -33 11 -33 6 0 10 25 10 55 0 62 -12 70
-36 24 l-16 -31 -19 31 c-27 45 -39 38 -39 -24z"/>
<path d="M1940 1690 c0 -5 5 -10 10 -10 6 0 10 5 10 10 0 6 -4 10 -10 10 -5 0
-10 -4 -10 -10z"/>
<path d="M1512 1633 c3 -35 5 -38 36 -38 31 -1 32 1 32 37 0 21 -4 38 -10 38
-5 0 -10 -13 -10 -30 0 -20 -5 -30 -15 -30 -10 0 -15 10 -15 30 0 17 -5 30
-11 30 -6 0 -9 -16 -7 -37z"/>
<path d="M1693 1630 c0 -25 2 -35 4 -22 2 12 2 32 0 45 -2 12 -4 2 -4 -23z"/>
<path d="M1730 1650 c-14 -26 3 -60 30 -60 11 0 24 9 30 20 14 26 -3 60 -30
60 -11 0 -24 -9 -30 -20z m46 -11 c10 -17 -13 -36 -27 -22 -12 12 -4 33 11 33
5 0 12 -5 16 -11z"/>
<path d="M1940 1630 c0 -22 5 -40 10 -40 6 0 10 18 10 40 0 22 -4 40 -10 40
-5 0 -10 -18 -10 -40z"/>
<path d="M1980 1662 c0 -4 5 -13 12 -20 8 -8 8 -15 -2 -27 -15 -18 -5 -34 12
-17 9 9 15 9 25 0 18 -15 29 -2 13 17 -10 12 -10 18 0 30 16 20 5 32 -14 16
-10 -8 -16 -9 -21 -1 -7 12 -25 14 -25 2z"/>
<path d="M2070 1655 c-20 -24 -4 -65 25 -65 14 0 25 5 25 10 0 6 -9 10 -21 10
-11 0 -17 5 -14 10 3 6 15 10 26 10 22 0 24 11 7 28 -16 16 -33 15 -48 -3z
m37 -11 c-3 -3 -12 -4 -19 -1 -8 3 -5 6 6 6 11 1 17 -2 13 -5z"/>
<path d="M2150 1628 c0 -21 5 -38 10 -38 6 0 10 14 10 30 0 17 5 30 10 30 6 0
10 4 10 9 0 6 -9 9 -20 8 -16 -1 -20 -8 -20 -39z"/>
<path d="M3306 1794 c-13 -12 -16 -41 -16 -154 0 -113 3 -142 16 -154 14 -14
77 -16 544 -16 467 0 530 2 544 16 13 12 16 41 16 154 0 113 -3 142 -16 154
-14 14 -77 16 -544 16 -467 0 -530 -2 -544 -16z m1079 -154 l0 -145 -535 0
-535 0 -3 134 c-1 74 0 141 2 148 4 11 107 13 538 11 l533 -3 0 -145z"/>
<path d="M3390 1646 c0 -55 1 -56 29 -56 32 0 57 23 45 42 -4 7 -8 24 -8 38
-1 21 -6 26 -33 28 l-33 3 0 -55z m48 22 c-6 -18 -28 -21 -28 -4 0 9 7 16 16
16 9 0 14 -5 12 -12z m5 -43 c1 -5 -6 -11 -15 -13 -11 -2 -18 3 -18 13 0 17
30 18 33 0z"/>
<path d="M3480 1690 c0 -5 7 -10 16 -10 8 0 12 5 9 10 -3 6 -10 10 -16 10 -5
0 -9 -4 -9 -10z"/>
<path d="M3850 1645 c0 -30 5 -55 10 -55 6 0 10 9 10 20 0 26 14 25 33 -2 17
-27 33 -19 19 9 -6 11 -7 25 -2 33 14 23 -8 50 -40 50 -30 0 -30 -1 -30 -55z
m50 20 c0 -8 -7 -15 -15 -15 -8 0 -15 7 -15 15 0 8 7 15 15 15 8 0 15 -7 15
-15z"/>
<path d="M4150 1687 c0 -7 -10 -17 -22 -22 -17 -7 -23 -18 -23 -40 0 -27 3
-30 33 -31 l32 -1 0 54 c0 29 -4 53 -10 53 -5 0 -10 -6 -10 -13z m0 -57 c0
-11 -7 -20 -15 -20 -8 0 -15 9 -15 20 0 11 7 20 15 20 8 0 15 -9 15 -20z"/>
<path d="M3532 1677 c-15 -18 0 -81 21 -85 9 -2 17 1 17 7 0 6 -4 11 -10 11
-14 0 -12 38 2 42 9 3 8 9 -4 21 -12 13 -18 14 -26 4z"/>
<path d="M3722 1677 c-15 -18 0 -81 21 -85 9 -2 17 1 17 7 0 6 -4 11 -10 11
-14 0 -12 38 2 42 9 3 8 9 -4 21 -12 13 -18 14 -26 4z"/>
<path d="M3493 1630 c0 -25 2 -35 4 -22 2 12 2 32 0 45 -2 12 -4 2 -4 -23z"/>
<path d="M3585 1661 c-10 -9 -5 -71 5 -71 6 0 10 11 10 25 0 14 7 28 15 31 22
9 18 23 -5 21 -12 -1 -23 -3 -25 -6z"/>
<path d="M3645 1661 c-3 -7 3 -11 17 -12 l23 0 -22 -11 c-13 -6 -23 -19 -23
-29 0 -14 7 -18 30 -16 29 2 31 4 28 37 -2 27 -8 36 -25 38 -11 2 -24 -2 -28
-7z m35 -41 c0 -5 -5 -10 -11 -10 -5 0 -7 5 -4 10 3 6 8 10 11 10 2 0 4 -4 4
-10z"/>
<path d="M3780 1655 c-20 -24 -4 -65 25 -65 14 0 25 5 25 10 0 6 -9 10 -21 10
-11 0 -17 5 -14 10 3 6 15 10 26 10 22 0 24 11 7 28 -16 16 -33 15 -48 -3z
m37 -11 c-3 -3 -12 -4 -19 -1 -8 3 -5 6 6 6 11 1 17 -2 13 -5z"/>
<path d="M3950 1655 c-20 -24 -4 -65 25 -65 14 0 25 5 25 10 0 6 -9 10 -21 10
-11 0 -17 5 -14 10 3 6 15 10 26 10 22 0 24 11 7 28 -16 16 -33 15 -48 -3z
m37 -11 c-3 -3 -12 -4 -19 -1 -8 3 -5 6 6 6 11 1 17 -2 13 -5z"/>
<path d="M4030 1661 c0 -6 6 -11 13 -11 7 0 13 -9 14 -20 1 -11 -3 -20 -8 -20
-6 0 -7 5 -4 10 3 6 -1 10 -10 10 -30 0 -12 -35 18 -36 26 -1 28 1 25 35 -2
29 -8 37 -25 39 -13 2 -23 -1 -23 -7z"/>
<path d="M4202 1661 c-8 -4 -12 -21 -10 -37 2 -23 9 -30 31 -32 15 -2 27 1 27
7 0 6 -9 11 -20 11 -11 0 -20 5 -20 10 0 6 9 10 21 10 14 0 19 5 17 17 -4 20
-27 27 -46 14z m35 -17 c-3 -3 -12 -4 -19 -1 -8 3 -5 6 6 6 11 1 17 -2 13 -5z"/>
<path d="M4270 1628 c0 -21 5 -38 10 -38 6 0 10 14 10 30 0 17 5 30 10 30 6 0
10 4 10 8 0 4 -9 8 -20 8 -16 0 -20 -7 -20 -38z"/>
<path d="M2206 1394 c-23 -23 -23 -285 0 -308 14 -14 81 -16 594 -16 513 0
580 2 594 16 13 12 16 41 16 154 0 113 -3 142 -16 154 -14 14 -81 16 -594 16
-513 0 -580 -2 -594 -16z m1179 -154 l0 -145 -585 0 -585 0 -3 134 c-1 74 0
141 2 148 4 11 115 13 588 11 l583 -3 0 -145z"/>
<path d="M2366 1284 c-35 -34 -9 -94 40 -94 13 0 24 5 24 10 0 6 -11 10 -24
10 -15 0 -27 7 -31 19 -8 26 4 51 25 51 11 0 22 5 25 10 10 16 -42 11 -59 -6z"/>
<path d="M2570 1287 c0 -7 -10 -17 -22 -22 -17 -7 -23 -18 -23 -40 0 -27 3
-30 33 -31 l32 -1 0 54 c0 29 -4 53 -10 53 -5 0 -10 -6 -10 -13z m0 -57 c0
-11 -7 -20 -15 -20 -8 0 -15 9 -15 20 0 11 7 20 15 20 8 0 15 -9 15 -20z"/>
<path d="M2760 1245 c0 -30 5 -55 10 -55 6 0 10 9 10 20 0 12 10 24 23 30 l22
9 -22 0 c-29 1 -31 31 -3 31 11 0 20 5 20 10 0 6 -13 10 -30 10 -30 0 -30 -1
-30 -55z"/>
<path d="M2992 1277 c-15 -18 0 -81 21 -85 9 -2 17 1 17 7 0 6 -4 11 -10 11
-14 0 -12 38 2 42 9 3 8 9 -4 21 -12 13 -18 14 -26 4z"/>
<path d="M2440 1250 c-14 -26 3 -60 30 -60 27 0 44 34 30 60 -6 11 -19 20 -30
20 -11 0 -24 -9 -30 -20z m46 -11 c10 -17 -13 -36 -27 -22 -12 12 -4 33 11 33
5 0 12 -5 16 -11z"/>
<path d="M2622 1261 c-8 -4 -12 -21 -10 -37 2 -23 9 -30 31 -32 15 -2 27 1 27
7 0 6 -9 11 -20 11 -11 0 -20 5 -20 10 0 6 9 10 21 10 14 0 19 5 17 17 -4 20
-27 27 -46 14z m35 -17 c-3 -3 -12 -4 -19 -1 -8 3 -5 6 6 6 11 1 17 -2 13 -5z"/>
<path d="M2702 1261 c-8 -5 -12 -21 -10 -37 2 -21 9 -30 26 -32 12 -2 22 1 22
7 0 6 -7 11 -15 11 -8 0 -15 9 -15 20 0 11 7 20 15 20 8 0 15 5 15 10 0 12
-20 13 -38 1z"/>
<path d="M2845 1261 c-3 -7 3 -11 17 -12 l23 0 -22 -11 c-13 -6 -23 -19 -23
-29 0 -14 7 -18 30 -16 29 2 31 4 28 37 -2 27 -8 36 -25 38 -11 2 -24 -2 -28
-7z m35 -41 c0 -5 -5 -10 -11 -10 -5 0 -7 5 -4 10 3 6 8 10 11 10 2 0 4 -4 4
-10z"/>
<path d="M2932 1261 c-8 -5 -12 -21 -10 -37 2 -21 9 -30 26 -32 12 -2 22 1 22
7 0 6 -7 11 -15 11 -8 0 -15 9 -15 20 0 11 7 20 15 20 8 0 15 5 15 10 0 12
-20 13 -38 1z"/>
<path d="M3050 1255 c-24 -29 8 -75 44 -62 21 8 22 63 0 71 -23 9 -30 8 -44
-9z m40 -25 c0 -11 -7 -20 -15 -20 -8 0 -15 9 -15 20 0 11 7 20 15 20 8 0 15
-9 15 -20z"/>
<path d="M3130 1228 c0 -21 5 -38 10 -38 6 0 10 13 10 29 0 45 27 47 45 3 10
-24 12 -38 5 -40 -13 -5 -13 -22 0 -22 11 0 49 75 50 98 0 23 -18 12 -25 -15
l-7 -28 -10 27 c-8 24 -15 28 -44 25 -32 -2 -34 -4 -34 -39z"/>
<path d="M2806 994 c-14 -13 -16 -50 -16 -244 0 -194 2 -231 16 -244 14 -14
90 -16 694 -16 604 0 680 2 694 16 24 23 24 465 0 488 -14 14 -90 16 -694 16
-604 0 -680 -2 -694 -16z m1379 -244 l0 -235 -685 0 -685 0 -3 225 c-1 123 0
230 3 237 3 11 140 13 687 11 l683 -3 0 -235z"/>
<path d="M3260 845 c0 -30 5 -55 10 -55 6 0 10 15 10 33 l1 32 18 -22 19 -23
15 23 c16 22 16 22 16 -10 1 -18 6 -33 11 -33 6 0 10 25 10 55 0 62 -12 70
-36 24 l-16 -31 -19 31 c-27 45 -39 38 -39 -24z"/>
<path d="M3390 845 c0 -30 5 -55 10 -55 6 0 10 9 10 20 0 13 7 20 20 20 10 0
23 8 29 17 15 27 -5 53 -39 53 -30 0 -30 -1 -30 -55z m48 18 c-4 -22 -22 -20
-26 1 -2 10 3 16 13 16 10 0 15 -7 13 -17z"/>
<path d="M3480 845 l0 -55 35 0 c19 0 35 5 35 10 0 6 -11 10 -25 10 -31 0 -33
20 -3 28 l22 5 -22 8 c-30 11 -28 29 3 29 14 0 25 5 25 10 0 6 -16 10 -35 10
l-35 0 0 -55z"/>
<path d="M3580 885 c-16 -20 -16 -61 0 -80 20 -24 64 -15 68 13 2 13 -3 25
-13 28 -21 8 -33 -5 -15 -16 18 -11 6 -24 -15 -16 -26 9 -16 60 13 64 12 2 22
8 22 13 0 15 -46 10 -60 -6z"/>
<path d="M3683 867 c-29 -42 -29 -47 2 -47 17 0 25 -6 26 -17 0 -14 2 -15 6
-3 3 8 11 19 17 23 8 6 7 10 -1 14 -7 2 -13 18 -13 34 0 38 -10 37 -37 -4z
m27 -17 c0 -5 -4 -10 -10 -10 -5 0 -10 5 -10 10 0 6 5 10 10 10 6 0 10 -4 10
-10z"/>
<path d="M2882 688 c-7 -7 -12 -26 -12 -43 0 -37 16 -55 47 -55 30 0 30 18 1
22 -18 2 -23 10 -23 33 0 23 5 31 23 33 12 2 22 8 22 13 0 13 -44 11 -58 -3z"/>
<path d="M3530 690 c0 -5 5 -10 10 -10 6 0 10 5 10 10 0 6 -4 10 -10 10 -5 0
-10 -4 -10 -10z"/>
<path d="M3756 684 c-35 -34 -9 -94 40 -94 13 0 24 5 24 10 0 6 -11 10 -24 10
-15 0 -27 7 -31 19 -8 26 4 51 25 51 11 0 22 5 25 10 10 16 -42 11 -59 -6z"/>
<path d="M3960 687 c0 -7 -10 -17 -22 -22 -17 -7 -23 -18 -23 -40 0 -27 3 -30
33 -31 l32 -1 0 54 c0 29 -4 53 -10 53 -5 0 -10 -6 -10 -13z m0 -57 c0 -11 -7
-20 -15 -20 -8 0 -15 9 -15 20 0 11 7 20 15 20 8 0 15 -9 15 -20z"/>
<path d="M2960 655 c-24 -29 8 -75 44 -62 21 8 22 63 0 71 -23 9 -30 8 -44 -9z
m40 -25 c0 -11 -7 -20 -15 -20 -8 0 -15 9 -15 20 0 11 7 20 15 20 8 0 15 -9
15 -20z"/>
<path d="M3040 628 c0 -21 5 -38 10 -38 6 0 10 14 10 31 0 39 23 34 31 -7 l6
-29 4 29 c6 41 29 46 29 7 0 -17 5 -31 11 -31 6 0 9 16 7 38 l-3 37 -52 0 -53
0 0 -37z"/>
<path d="M3170 613 c0 -29 5 -53 10 -53 6 0 10 7 10 15 0 8 7 15 15 15 9 0 20
11 27 25 14 31 -4 55 -38 53 -22 -2 -24 -7 -24 -55z m45 17 c0 -7 -6 -15 -12
-17 -8 -3 -13 4 -13 17 0 13 5 20 13 18 6 -3 12 -11 12 -18z"/>
<path d="M3255 661 c-10 -9 -5 -71 5 -71 6 0 10 11 10 25 0 14 7 28 15 31 22
9 18 23 -5 21 -12 -1 -23 -3 -25 -6z"/>
<path d="M3322 661 c-8 -4 -12 -21 -10 -37 2 -23 9 -30 31 -32 15 -2 27 1 27
7 0 6 -9 11 -20 11 -11 0 -20 5 -20 10 0 6 9 10 21 10 14 0 19 5 17 17 -4 20
-27 27 -46 14z m35 -17 c-3 -3 -12 -4 -19 -1 -8 3 -5 6 6 6 11 1 17 -2 13 -5z"/>
<path d="M3393 654 c-4 -11 1 -22 12 -30 17 -13 17 -14 2 -14 -9 0 -17 -4 -17
-10 0 -5 9 -10 20 -10 29 0 38 30 15 46 -17 13 -17 14 -1 14 9 0 14 5 11 10
-10 16 -35 12 -42 -6z"/>
<path d="M3463 654 c-4 -11 1 -22 12 -30 17 -13 17 -14 2 -14 -9 0 -17 -4 -17
-10 0 -5 9 -10 20 -10 29 0 38 30 15 46 -17 13 -17 14 -1 14 9 0 14 5 11 10
-10 16 -35 12 -42 -6z"/>
<path d="M3530 630 c0 -22 5 -40 10 -40 6 0 10 18 10 40 0 22 -4 40 -10 40 -5
0 -10 -18 -10 -40z"/>
<path d="M3582 661 c-8 -4 -12 -21 -10 -37 2 -23 8 -29 27 -29 31 0 50 28 35
53 -13 20 -34 25 -52 13z m38 -31 c0 -11 -7 -20 -15 -20 -8 0 -15 9 -15 20 0
11 7 20 15 20 8 0 15 -9 15 -20z"/>
<path d="M3660 628 c0 -21 5 -38 10 -38 6 0 10 14 10 31 0 39 22 34 32 -7 5
-25 6 -23 5 11 -2 36 -4 40 -29 40 -26 1 -28 -2 -28 -37z"/>
<path d="M3830 650 c-14 -26 3 -60 30 -60 27 0 44 34 30 60 -6 11 -19 20 -30
20 -11 0 -24 -9 -30 -20z m46 -11 c10 -17 -13 -36 -27 -22 -12 12 -4 33 11 33
5 0 12 -5 16 -11z"/>
<path d="M3999 646 c-9 -20 -9 -29 1 -41 14 -17 46 -20 55 -5 3 6 -3 10 -14
10 -12 0 -21 5 -21 10 0 6 9 10 21 10 28 0 21 34 -9 38 -15 2 -25 -4 -33 -22z"/>
<path d="M4092 661 c-8 -5 -12 -21 -10 -37 2 -21 9 -30 26 -32 12 -2 22 1 22
7 0 6 -7 11 -15 11 -8 0 -15 9 -15 20 0 11 7 20 15 20 8 0 15 5 15 10 0 12
-20 13 -38 1z"/>
<path d="M1488 875 c-24 -53 26 -109 68 -75 17 15 19 71 2 88 -21 21 -57 14
-70 -13z m57 -30 c0 -33 -28 -47 -39 -19 -10 25 3 56 22 52 11 -2 17 -13 17
-33z"/>
<path d="M1772 888 c-7 -7 -12 -26 -12 -43 0 -37 16 -55 47 -55 30 0 30 18 1
22 -18 2 -23 10 -23 33 0 23 5 31 23 33 12 2 22 8 22 13 0 13 -44 11 -58 -3z"/>
<path d="M2420 890 c0 -5 5 -10 10 -10 6 0 10 5 10 10 0 6 -4 10 -10 10 -5 0
-10 -4 -10 -10z"/>
<path d="M1602 861 c-23 -14 -11 -64 18 -72 22 -6 21 -9 -9 -13 -26 -3 -20
-16 7 -16 27 0 32 4 37 34 4 19 5 42 3 53 -4 20 -35 28 -56 14z m38 -31 c0
-11 -7 -20 -15 -20 -8 0 -15 9 -15 20 0 11 7 20 15 20 8 0 15 -9 15 -20z"/>
<path d="M1685 854 c-21 -21 -16 -46 13 -60 15 -7 20 -14 13 -18 -6 -4 -15 -4
-21 -1 -5 3 -10 1 -10 -5 0 -6 12 -10 28 -8 25 3 27 7 30 56 3 46 1 52 -17 52
-11 0 -27 -7 -36 -16z m35 -24 c0 -21 -15 -27 -25 -10 -7 12 2 30 16 30 5 0 9
-9 9 -20z"/>
<path d="M1850 855 c-24 -29 8 -75 44 -62 21 8 22 63 0 71 -23 9 -30 8 -44 -9z
m40 -25 c0 -11 -7 -20 -15 -20 -8 0 -15 9 -15 20 0 11 7 20 15 20 8 0 15 -9
15 -20z"/>
<path d="M1930 828 c0 -21 5 -38 10 -38 6 0 10 14 10 31 0 39 23 34 31 -7 l6
-29 4 29 c6 41 29 46 29 7 0 -17 5 -31 11 -31 6 0 9 16 7 38 l-3 37 -52 0 -53
0 0 -37z"/>
<path d="M2060 813 c0 -29 5 -53 10 -53 6 0 10 6 10 13 0 7 10 17 23 22 16 7
22 18 22 40 0 27 -3 30 -32 30 l-33 1 0 -53z m50 17 c0 -11 -7 -20 -15 -20 -8
0 -15 9 -15 20 0 11 7 20 15 20 8 0 15 -9 15 -20z"/>
<path d="M2150 828 c0 -21 5 -38 10 -38 6 0 10 14 10 30 0 17 5 30 10 30 6 0
10 4 10 9 0 6 -9 9 -20 8 -16 -1 -20 -8 -20 -39z"/>
<path d="M2210 855 c-20 -24 -4 -65 25 -65 14 0 25 5 25 10 0 6 -9 10 -21 10
-11 0 -17 5 -14 10 3 6 15 10 26 10 22 0 24 11 7 28 -16 16 -33 15 -48 -3z
m37 -11 c-3 -3 -12 -4 -19 -1 -8 3 -5 6 6 6 11 1 17 -2 13 -5z"/>
<path d="M2293 863 c-18 -7 -16 -30 2 -37 8 -3 15 -10 15 -15 0 -6 -7 -8 -15
-5 -8 4 -15 1 -15 -5 0 -6 9 -11 20 -11 29 0 38 30 15 46 -17 13 -17 14 -2 14
9 0 17 5 17 10 0 10 -16 12 -37 3z"/>
<path d="M2353 854 c-4 -11 1 -22 12 -30 17 -13 17 -14 2 -14 -9 0 -17 -4 -17
-10 0 -5 9 -10 20 -10 29 0 38 30 15 46 -17 13 -17 14 -1 14 9 0 14 5 11 10
-10 16 -35 12 -42 -6z"/>
<path d="M2420 830 c0 -22 5 -40 10 -40 6 0 10 18 10 40 0 22 -4 40 -10 40 -5
0 -10 -18 -10 -40z"/>
<path d="M2472 861 c-8 -4 -12 -21 -10 -37 2 -23 8 -29 27 -29 31 0 50 28 35
53 -13 20 -34 25 -52 13z m38 -31 c0 -11 -7 -20 -15 -20 -8 0 -15 9 -15 20 0
11 7 20 15 20 8 0 15 -9 15 -20z"/>
<path d="M2550 828 c0 -21 5 -38 10 -38 6 0 10 14 10 31 0 39 22 34 32 -7 5
-25 6 -23 5 11 -2 36 -4 40 -29 40 -26 1 -28 -2 -28 -37z"/>
<path d="M1870 685 c-30 -36 -7 -95 36 -95 30 0 31 18 2 22 -18 2 -23 10 -23
33 0 23 5 31 23 33 12 2 22 8 22 13 0 15 -46 10 -60 -6z"/>
<path d="M2070 685 c0 -8 -7 -15 -15 -15 -9 0 -20 -11 -27 -25 -14 -31 4 -55
38 -53 22 2 24 7 24 55 0 29 -4 53 -10 53 -5 0 -10 -7 -10 -15z m0 -55 c0 -11
-4 -20 -9 -20 -14 0 -23 18 -16 30 10 17 25 11 25 -10z"/>
<path d="M1952 661 c-8 -4 -12 -21 -10 -37 2 -23 8 -29 27 -29 31 0 50 28 35
53 -13 20 -34 25 -52 13z m38 -31 c0 -11 -7 -20 -15 -20 -8 0 -15 9 -15 20 0
11 7 20 15 20 8 0 15 -9 15 -20z"/>
<path d="M2122 661 c-8 -4 -12 -21 -10 -37 2 -23 9 -30 31 -32 15 -2 27 1 27
7 0 6 -9 11 -20 11 -11 0 -20 5 -20 10 0 6 9 10 21 10 14 0 19 5 17 17 -4 20
-27 27 -46 14z m35 -17 c-3 -3 -12 -4 -19 -1 -8 3 -5 6 6 6 11 1 17 -2 13 -5z"/>
<path d="M2200 656 c-20 -26 -8 -61 23 -64 15 -2 27 1 27 7 0 6 -9 11 -20 11
-13 0 -20 7 -20 20 0 11 7 20 15 20 8 0 15 5 15 10 0 15 -26 12 -40 -4z"/>
</g>
</svg>
