<?xml version="1.0" standalone="no"?>
<!DOCTYPE svg PUBLIC "-//W3C//DTD SVG 20010904//EN"
 "http://www.w3.org/TR/2001/REC-SVG-20010904/DTD/svg10.dtd">
<svg version="1.0" xmlns="http://www.w3.org/2000/svg"
 width="402.000000pt" height="690.000000pt" viewBox="0 0 402.000000 690.000000"
 preserveAspectRatio="xMidYMid meet">

<g transform="translate(0.000000,690.000000) scale(0.100000,-0.100000)"
fill="#000000" stroke="none">
<path d="M1990 6855 c0 -19 -122 -385 -150 -450 -12 -27 -33 -81 -47 -120 -14
-38 -41 -100 -59 -137 -19 -37 -34 -73 -34 -80 0 -6 -22 -55 -48 -107 -27 -53
-55 -112 -62 -131 -14 -34 -167 -331 -227 -440 -17 -30 -44 -80 -60 -110 -17
-30 -39 -71 -51 -90 -11 -19 -55 -96 -97 -170 -43 -74 -87 -148 -97 -163 -11
-15 -35 -56 -53 -90 -18 -34 -58 -102 -89 -151 -31 -49 -56 -93 -56 -97 0 -4
-26 -50 -58 -101 -32 -51 -66 -110 -76 -130 -9 -21 -38 -73 -65 -115 -26 -43
-53 -94 -61 -113 -8 -19 -27 -57 -43 -84 -70 -120 -169 -334 -279 -601 -107
-260 -199 -636 -228 -937 -16 -162 -8 -505 14 -653 22 -138 78 -354 117 -448
17 -40 34 -86 38 -103 5 -17 34 -76 65 -132 31 -55 56 -105 56 -111 0 -5 29
-49 65 -96 36 -48 65 -89 65 -92 0 -11 79 -100 161 -182 126 -126 160 -155
238 -207 39 -26 71 -50 71 -54 0 -4 57 -36 128 -71 70 -35 129 -66 132 -70 6
-7 135 -56 173 -65 15 -3 27 -10 27 -14 0 -13 243 -68 373 -85 150 -19 314
-19 464 0 130 17 373 72 373 85 0 4 12 11 28 14 37 9 166 58 172 65 3 4 62 35
133 70 70 35 127 67 127 71 0 4 32 28 71 54 78 52 112 81 238 207 81 81 161
171 161 182 0 3 29 44 65 92 36 48 65 92 65 97 0 6 25 55 56 110 31 56 60 115
65 132 4 17 21 63 38 103 39 94 95 310 117 448 22 148 30 491 14 653 -29 301
-121 677 -228 937 -110 267 -209 481 -279 601 -16 27 -35 65 -43 84 -8 19 -35
70 -61 113 -27 42 -56 94 -65 115 -10 20 -44 79 -76 130 -32 51 -58 97 -58
101 0 4 -25 48 -56 97 -31 49 -71 117 -89 151 -18 34 -42 75 -53 90 -27 39
-170 288 -302 528 -63 113 -216 410 -230 445 -7 19 -35 78 -62 131 -26 52 -48
101 -48 107 0 7 -15 43 -34 80 -18 37 -45 99 -59 137 -14 39 -38 102 -54 140
-16 39 -53 144 -83 235 -30 91 -58 167 -62 168 -5 2 -8 12 -8 23 0 10 -4 19
-10 19 -5 0 -10 -7 -10 -15z m-360 -2804 c300 -167 556 -313 569 -325 22 -20
23 -26 18 -111 -5 -99 -34 -189 -71 -224 -18 -17 -1331 -616 -1395 -636 -36
-11 -51 10 -51 77 0 111 53 260 106 294 14 10 233 104 487 209 254 106 480
200 502 209 l39 17 -424 224 c-234 124 -433 235 -444 247 -37 45 -3 250 51
310 11 13 27 18 43 16 14 -2 271 -141 570 -307z m-1071 -1351 c44 -149 107
-298 191 -445 64 -114 206 -269 277 -303 18 -9 33 -19 33 -23 0 -3 14 -12 30
-19 17 -7 30 -16 30 -20 0 -10 56 -30 85 -30 12 0 32 12 44 26 12 14 57 42 99
61 73 34 80 35 157 30 107 -8 165 -35 241 -112 87 -88 108 -145 108 -295 0
-96 -3 -123 -21 -161 -26 -57 -80 -119 -127 -144 -20 -11 -36 -25 -36 -31 0
-24 -101 -49 -200 -49 -100 0 -220 27 -220 50 0 6 -28 25 -62 41 -68 32 -198
124 -240 170 -79 86 -173 202 -201 248 -55 89 -66 109 -113 206 -123 258 -178
556 -154 840 14 170 19 181 42 95 10 -38 27 -99 37 -135z m3149 -386 c18 -12
22 -25 22 -66 0 -69 -27 -162 -56 -193 l-23 -25 -794 0 c-697 0 -796 2 -807
15 -19 23 -7 140 20 203 14 32 33 58 49 67 22 12 151 14 796 15 682 0 773 -2
793 -16z"/>
</g>
</svg>
