<?xml version="1.0" standalone="no"?>
<!DOCTYPE svg PUBLIC "-//W3C//DTD SVG 20010904//EN"
 "http://www.w3.org/TR/2001/REC-SVG-20010904/DTD/svg10.dtd">
<svg version="1.0" xmlns="http://www.w3.org/2000/svg"
 width="571.000000pt" height="431.000000pt" viewBox="0 0 571.000000 431.000000"
 preserveAspectRatio="xMidYMid meet">

<g transform="translate(0.000000,431.000000) scale(0.100000,-0.100000)"
fill="#000000" stroke="none">
<path d="M0 2155 l0 -2155 2855 0 2855 0 0 2155 0 2155 -2855 0 -2855 0 0
-2155z m5638 2008 l-3 -78 -2780 0 -2780 0 -3 78 -3 77 2786 0 2786 0 -3 -77z
m0 -230 l3 -133 -2786 0 -2785 0 0 128 c0 71 3 132 7 135 3 4 1255 6 2782 5
l2776 -3 3 -132z m2 -2008 l0 -1855 -2785 0 -2785 0 0 1855 0 1855 2785 0
2785 0 0 -1855z"/>
<path d="M5480 4212 c0 -5 9 -17 20 -27 l20 -18 -22 -24 c-27 -29 -15 -44 14
-15 l21 21 29 -21 c36 -25 50 -16 17 11 l-24 19 24 26 c31 33 19 47 -14 16
l-25 -23 -23 21 c-24 23 -37 28 -37 14z"/>
<path d="M2670 4165 c0 -32 3 -36 23 -33 17 2 22 10 22 33 0 23 -5 31 -22 33
-20 3 -23 -1 -23 -33z m30 15 c0 -5 -4 -10 -10 -10 -5 0 -10 5 -10 10 0 6 5
10 10 10 6 0 10 -4 10 -10z m0 -30 c0 -5 -4 -10 -10 -10 -5 0 -10 5 -10 10 0
6 5 10 10 10 6 0 10 -4 10 -10z"/>
<path d="M2731 4153 c1 -17 3 -21 6 -10 5 21 31 23 39 2 7 -17 74 -18 74 -1 0
6 5 4 10 -4 9 -13 12 -13 21 3 6 9 15 15 21 11 7 -4 6 -9 -3 -14 -7 -5 8 -8
36 -8 28 0 43 3 36 8 -9 5 -10 10 -2 14 16 10 14 26 -4 26 -7 0 -18 -7 -23
-16 -6 -10 -14 -14 -22 -9 -9 6 -9 9 1 16 10 6 5 8 -13 7 -16 -1 -28 -6 -28
-11 0 -5 -7 -4 -15 3 -10 8 -15 9 -15 1 0 -7 -8 -8 -26 -1 -19 7 -31 7 -40 -1
-10 -8 -14 -8 -14 0 0 6 -9 11 -20 11 -15 0 -20 -6 -19 -27z m79 -3 c0 -5 -4
-10 -10 -10 -5 0 -10 5 -10 10 0 6 5 10 10 10 6 0 10 -4 10 -10z"/>
<path d="M2996 4164 c-9 -23 -7 -34 4 -34 6 0 10 7 10 15 0 8 7 15 16 15 8 0
12 5 9 10 -9 15 -32 12 -39 -6z"/>
<path d="M126 4024 c-12 -11 -16 -35 -16 -89 0 -107 -4 -105 250 -105 256 0
250 -3 250 110 0 68 -3 81 -19 90 -12 6 -106 10 -235 10 -182 0 -217 -2 -230
-16z m462 -87 l3 -87 -233 2 -233 3 -3 73 c-2 46 2 79 9 88 10 12 51 14 233
12 l221 -3 3 -88z"/>
<path d="M202 3957 l-22 -23 23 -22 c24 -23 51 -32 29 -10 -21 21 -13 27 41
31 l52 3 -52 2 c-54 2 -63 8 -41 30 7 7 8 12 2 12 -6 0 -20 -10 -32 -23z"/>
<path d="M498 3968 c22 -22 13 -28 -45 -30 l-58 -1 60 -6 c36 -4 55 -9 48 -14
-7 -5 -13 -13 -13 -20 0 -6 12 1 27 15 26 27 26 28 8 48 -10 11 -23 20 -29 20
-6 0 -5 -5 2 -12z"/>
<path d="M642 4028 c-7 -7 -12 -43 -12 -89 0 -104 5 -109 123 -109 127 0 137
8 137 105 0 101 -5 105 -134 105 -66 0 -106 -4 -114 -12z m227 -20 c4 -13 6
-54 3 -91 l-4 -68 -112 3 -111 3 -3 73 c-2 46 2 79 9 88 8 10 38 14 110 14 94
0 100 -1 108 -22z"/>
<path d="M726 3974 c-19 -18 -21 -55 -4 -72 17 -17 63 -15 78 3 8 9 9 15 2 15
-6 0 -14 -4 -17 -10 -9 -15 -41 -12 -55 5 -14 17 -5 51 16 59 22 8 40 -4 23
-15 -10 -6 -8 -9 7 -9 12 0 24 8 26 18 6 23 -54 29 -76 6z"/>
<path d="M917 4033 c-10 -9 -9 -193 1 -193 4 0 7 42 7 92 l0 93 2319 3 c1845
2 2322 -1 2334 -10 13 -11 14 -10 10 2 -4 13 -274 15 -2335 18 -1281 1 -2333
-1 -2336 -5z"/>
<path d="M5578 3920 c-2 -44 0 -80 5 -80 4 0 7 36 7 80 0 44 -2 80 -4 80 -3 0
-6 -36 -8 -80z"/>
<path d="M202 3668 c-8 -8 -12 -45 -12 -100 0 -76 2 -89 19 -98 13 -7 361 -10
1056 -10 695 0 1043 3 1056 10 17 9 19 22 19 98 0 55 -4 92 -12 100 -17 17
-2109 17 -2126 0z m2126 -86 c2 -53 -1 -89 -9 -98 -10 -12 -171 -14 -1053 -14
-797 0 -1045 3 -1054 12 -13 13 -17 169 -5 181 3 4 482 6 1062 5 l1056 -3 3
-83z"/>
<path d="M4640 3654 c-6 -14 -10 -54 -10 -90 0 -111 -29 -104 446 -104 260 0
412 4 425 10 17 9 19 22 19 98 0 55 -4 92 -12 100 -9 9 -119 12 -435 12 l-423
0 -10 -26z m868 -72 c2 -53 -1 -89 -9 -98 -9 -12 -81 -14 -418 -14 -223 0
-411 4 -418 8 -13 8 -21 161 -9 180 6 9 107 12 429 10 l422 -3 3 -83z"/>
<path d="M4775 3600 c-3 -5 -1 -10 4 -10 6 0 11 5 11 10 0 6 -2 10 -4 10 -3 0
-8 -4 -11 -10z"/>
<path d="M5114 3602 c3 -6 -2 -15 -11 -21 -10 -6 -13 -11 -7 -11 20 0 37 27
23 36 -7 4 -9 3 -5 -4z"/>
<path d="M5142 3580 c0 -19 2 -27 5 -17 2 9 2 25 0 35 -3 9 -5 1 -5 -18z"/>
<path d="M4900 3576 c0 -13 -6 -27 -12 -29 -8 -3 -6 -6 5 -6 12 -1 17 7 17 29
0 17 -2 30 -5 30 -3 0 -5 -11 -5 -24z"/>
<path d="M4970 3590 c0 -5 5 -10 10 -10 6 0 10 5 10 10 0 6 -4 10 -10 10 -5 0
-10 -4 -10 -10z"/>
<path d="M5375 3590 c-3 -5 -1 -10 4 -10 6 0 11 5 11 10 0 6 -2 10 -4 10 -3 0
-8 -4 -11 -10z"/>
<path d="M5320 3581 c0 -5 5 -13 11 -17 8 -4 7 -9 -2 -15 -11 -7 -10 -9 4 -9
21 0 22 16 2 36 -8 9 -15 11 -15 5z"/>
<path d="M4757 3574 c-14 -15 -6 -24 12 -14 13 7 21 7 24 0 3 -6 4 -5 3 2 -3
15 -28 22 -39 12z"/>
<path d="M5291 3564 c0 -11 3 -14 6 -6 3 7 2 16 -1 19 -3 4 -6 -2 -5 -13z"/>
<path d="M5160 3561 c0 -6 4 -13 10 -16 6 -3 7 1 4 9 -7 18 -14 21 -14 7z"/>
<path d="M5220 3560 c0 -5 5 -10 10 -10 6 0 10 5 10 10 0 6 -4 10 -10 10 -5 0
-10 -4 -10 -10z"/>
<path d="M4840 3550 c-9 -6 -10 -10 -3 -10 6 0 15 5 18 10 8 12 4 12 -15 0z"/>
<path d="M1124 3237 c-3 -8 -3 -49 -1 -93 l3 -79 2 88 2 87 2188 -2 2187 -3 0
-95 0 -95 -2179 -3 c-1733 -2 -2182 1 -2194 10 -13 11 -14 10 -10 -2 4 -13
257 -15 2199 -15 l2194 0 0 105 0 105 -2193 3 c-1826 2 -2193 0 -2198 -11z"/>
<path d="M206 3162 c7 -4 14 -18 17 -32 l4 -25 2 27 c0 14 7 29 14 31 6 3 -1
6 -18 6 -16 0 -25 -3 -19 -7z"/>
<path d="M1211 3163 c-1 -6 -4 -20 -7 -30 -5 -17 -5 -17 6 0 6 10 9 23 6 30
-3 9 -5 9 -5 0z"/>
<path d="M1240 3160 c0 -5 5 -10 10 -10 6 0 10 5 10 10 0 6 -4 10 -10 10 -5 0
-10 -4 -10 -10z"/>
<path d="M1472 3140 c0 -19 2 -27 5 -17 2 9 2 25 0 35 -3 9 -5 1 -5 -18z"/>
<path d="M295 3150 c-3 -5 1 -10 10 -10 9 0 13 5 10 10 -3 6 -8 10 -10 10 -2
0 -7 -4 -10 -10z"/>
<path d="M385 3140 c3 -5 8 -10 11 -10 2 0 4 5 4 10 0 6 -5 10 -11 10 -5 0 -7
-4 -4 -10z"/>
<path d="M1305 3140 c-4 -6 -11 -8 -16 -5 -5 3 -6 -1 -3 -10 4 -9 7 -15 8 -13
1 2 8 11 15 21 7 9 11 17 8 17 -3 0 -9 -5 -12 -10z"/>
<path d="M1370 3130 c6 -11 13 -20 16 -20 2 0 0 9 -6 20 -6 11 -13 20 -16 20
-2 0 0 -9 6 -20z"/>
<path d="M1225 3130 c-3 -5 -1 -10 4 -10 6 0 11 5 11 10 0 6 -2 10 -4 10 -3 0
-8 -4 -11 -10z"/>
<path d="M1127 2893 c-10 -9 -9 -723 1 -723 4 0 6 162 4 360 l-2 360 2187 -2
2188 -3 0 -355 0 -355 -2180 -5 -2180 -5 2176 -3 c1831 -2 2178 0 2188 12 8 9
11 114 9 367 l-3 354 -2191 3 c-1205 1 -2194 -1 -2197 -5z"/>
<path d="M210 2813 c8 -3 22 -11 30 -17 13 -10 13 -9 1 7 -7 9 -21 17 -30 16
-13 0 -14 -1 -1 -6z"/>
<path d="M420 2790 c0 -5 7 -7 15 -4 8 4 15 8 15 10 0 2 -7 4 -15 4 -8 0 -15
-4 -15 -10z"/>
<path d="M490 2790 c0 -6 5 -8 11 -4 6 3 16 0 21 -7 8 -12 9 -11 5 1 -4 18
-37 27 -37 10z"/>
<path d="M558 2793 c7 -3 16 -2 19 1 4 3 -2 6 -13 5 -11 0 -14 -3 -6 -6z"/>
<path d="M675 2790 c-3 -6 1 -7 9 -4 18 7 21 14 7 14 -6 0 -13 -4 -16 -10z"/>
<path d="M1726 2784 c-7 -17 -8 -70 -2 -63 6 6 17 79 12 79 -2 0 -7 -7 -10
-16z"/>
<path d="M2067 2778 c-2 -7 -1 -22 4 -33 6 -16 8 -14 8 13 1 33 -4 41 -12 20z"/>
<path d="M239 2763 c-13 -16 -12 -17 4 -4 9 7 17 15 17 17 0 8 -8 3 -21 -13z"/>
<path d="M344 2772 c3 -5 0 -13 -6 -15 -9 -4 -10 -6 -1 -6 17 -1 25 16 12 25
-7 4 -9 3 -5 -4z"/>
<path d="M1892 2755 c0 -16 2 -22 5 -12 2 9 2 23 0 30 -3 6 -5 -1 -5 -18z"/>
<path d="M2687 2773 c-3 -5 -1 -17 4 -28 7 -17 8 -17 8 8 1 27 -4 34 -12 20z"/>
<path d="M1297 2763 c-4 -3 -7 -11 -7 -17 0 -6 5 -5 12 2 6 6 9 14 7 17 -3 3
-9 2 -12 -2z"/>
<path d="M1380 2761 c0 -6 4 -13 10 -16 6 -3 7 1 4 9 -7 18 -14 21 -14 7z"/>
<path d="M1477 2763 c-3 -5 4 -15 16 -23 21 -12 21 -12 7 6 -8 10 -15 20 -16
22 -1 2 -4 -1 -7 -5z"/>
<path d="M1550 2761 c0 -4 12 -7 26 -5 38 4 42 14 6 14 -18 0 -32 -4 -32 -9z"/>
<path d="M1650 2755 c-7 -9 -10 -18 -7 -21 3 -3 10 4 17 15 13 25 8 27 -10 6z"/>
<path d="M1798 2763 c7 -3 16 -2 19 1 4 3 -2 6 -13 5 -11 0 -14 -3 -6 -6z"/>
<path d="M1840 2762 c0 -5 7 -15 15 -22 8 -7 15 -9 15 -6 0 4 -7 14 -15 22 -8
9 -15 11 -15 6z"/>
<path d="M2158 2763 c7 -3 16 -2 19 1 4 3 -2 6 -13 5 -11 0 -14 -3 -6 -6z"/>
<path d="M2412 2750 c0 -14 2 -19 5 -12 2 6 2 18 0 25 -3 6 -5 1 -5 -13z"/>
<path d="M2780 2761 c0 -6 6 -8 14 -5 8 3 16 -2 20 -13 4 -15 5 -15 3 2 -2 20
-37 35 -37 16z"/>
<path d="M498 2753 c7 -3 16 -2 19 1 4 3 -2 6 -13 5 -11 0 -14 -3 -6 -6z"/>
<path d="M2331 2744 c0 -11 3 -14 6 -6 3 7 2 16 -1 19 -3 4 -6 -2 -5 -13z"/>
<path d="M2090 2739 c0 -5 5 -7 10 -4 6 3 10 8 10 11 0 2 -4 4 -10 4 -5 0 -10
-5 -10 -11z"/>
<path d="M2480 2739 c0 -5 5 -7 10 -4 6 3 10 8 10 11 0 2 -4 4 -10 4 -5 0 -10
-5 -10 -11z"/>
<path d="M1127 2023 c-3 -5 982 -7 2189 -5 l2195 2 -3 -97 -3 -98 -2185 0
-2185 0 -6 90 -5 90 -2 -85 c-1 -56 2 -90 10 -98 9 -9 509 -12 2189 -12 1853
0 2178 2 2188 14 8 9 11 47 9 107 l-3 94 -2192 3 c-1205 1 -2194 -1 -2196 -5z"/>
<path d="M218 1930 c2 -16 6 -30 8 -30 2 0 4 14 4 30 0 17 -4 30 -8 30 -5 0
-7 -13 -4 -30z"/>
<path d="M1302 1920 c0 -19 2 -27 5 -17 2 9 2 25 0 35 -3 9 -5 1 -5 -18z"/>
<path d="M1351 1934 c0 -11 3 -14 6 -6 3 7 2 16 -1 19 -3 4 -6 -2 -5 -13z"/>
<path d="M1670 1940 c0 -5 5 -10 10 -10 6 0 10 5 10 10 0 6 -4 10 -10 10 -5 0
-10 -4 -10 -10z"/>
<path d="M1770 1940 c0 -5 5 -10 10 -10 6 0 10 5 10 10 0 6 -4 10 -10 10 -5 0
-10 -4 -10 -10z"/>
<path d="M1480 1921 c0 -11 -6 -22 -12 -24 -8 -3 -6 -6 5 -6 12 -1 17 7 17 24
0 14 -2 25 -5 25 -3 0 -5 -9 -5 -19z"/>
<path d="M1714 1915 c1 -12 9 -21 21 -22 14 -1 15 0 3 3 -9 3 -19 13 -21 22
-3 12 -4 11 -3 -3z"/>
<path d="M1911 1914 c0 -11 3 -14 6 -6 3 7 2 16 -1 19 -3 4 -6 -2 -5 -13z"/>
<path d="M342 1900 c0 -14 2 -19 5 -12 2 6 2 18 0 25 -3 6 -5 1 -5 -13z"/>
<path d="M1553 1910 c2 -8 12 -16 23 -17 13 -2 15 -1 4 4 -8 3 -19 11 -23 17
-6 7 -7 6 -4 -4z"/>
<path d="M1260 1900 c-9 -6 -10 -10 -3 -10 6 0 15 5 18 10 8 12 4 12 -15 0z"/>
<path d="M1817 1899 c7 -7 15 -10 18 -7 3 3 -2 9 -12 12 -14 6 -15 5 -6 -5z"/>
<path d="M278 1893 c7 -3 16 -2 19 1 4 3 -2 6 -13 5 -11 0 -14 -3 -6 -6z"/>
<path d="M1948 1893 c7 -3 16 -2 19 1 4 3 -2 6 -13 5 -11 0 -14 -3 -6 -6z"/>
<path d="M1127 1683 c-4 -3 -7 -163 -7 -355 l0 -348 355 0 355 0 -2 353 -3
352 -346 3 c-190 1 -348 -1 -352 -5z m677 -12 c3 -4 6 -159 6 -342 l1 -334
-340 -3 -341 -2 0 338 c0 186 3 342 7 345 10 10 661 8 667 -2z"/>
<path d="M1300 1496 c0 -2 8 -10 18 -17 15 -13 16 -12 3 4 -13 16 -21 21 -21
13z"/>
<path d="M1475 1320 c10 -11 20 -20 23 -20 3 0 -3 9 -13 20 -10 11 -20 20 -23
20 -3 0 3 -9 13 -20z"/>
<path d="M1520 1276 c0 -2 8 -10 18 -17 15 -13 16 -12 3 4 -13 16 -21 21 -21
13z"/>
<path d="M1700 1096 c0 -2 8 -10 18 -17 15 -13 16 -12 3 4 -13 16 -21 21 -21
13z"/>
<path d="M1917 1683 c-4 -3 -7 -163 -7 -355 l0 -348 355 0 355 0 0 355 0 355
-348 0 c-192 0 -352 -3 -355 -7z m691 -351 l2 -342 -342 2 -343 3 -3 330 c-1
181 0 336 3 343 3 10 76 12 342 10 l338 -3 3 -343z"/>
<path d="M2100 1496 c0 -2 8 -10 18 -17 15 -13 16 -12 3 4 -13 16 -21 21 -21
13z"/>
<path d="M2260 1336 c0 -2 8 -10 18 -17 15 -13 16 -12 3 4 -13 16 -21 21 -21
13z"/>
<path d="M2059 1133 c-13 -16 -12 -17 4 -4 16 13 21 21 13 21 -2 0 -10 -8 -17
-17z"/>
<path d="M2450 1146 c0 -2 8 -10 18 -17 15 -13 16 -12 3 4 -13 16 -21 21 -21
13z"/>
<path d="M2500 1096 c0 -2 8 -10 18 -17 15 -13 16 -12 3 4 -13 16 -21 21 -21
13z"/>
<path d="M2727 1683 c-4 -3 -7 -163 -7 -355 l0 -348 355 0 355 0 -2 353 -3
352 -346 3 c-190 1 -348 -1 -352 -5z m681 -11 c9 -7 12 -82 10 -343 l-3 -334
-342 -3 -343 -2 0 338 c0 186 3 342 7 345 9 10 655 8 671 -1z"/>
<path d="M222 1600 c0 -19 2 -27 5 -17 2 9 2 25 0 35 -3 9 -5 1 -5 -18z"/>
<path d="M452 1610 c0 -14 2 -19 5 -12 2 6 2 18 0 25 -3 6 -5 1 -5 -13z"/>
<path d="M270 1600 c0 -5 7 -7 15 -4 8 4 15 8 15 10 0 2 -7 4 -15 4 -8 0 -15
-4 -15 -10z"/>
<path d="M352 1590 c0 -14 2 -19 5 -12 2 6 2 18 0 25 -3 6 -5 1 -5 -13z"/>
<path d="M370 1600 c0 -5 7 -7 15 -4 11 4 15 -1 16 -17 1 -21 2 -21 6 -4 3 11
10 23 17 27 6 4 -4 8 -21 8 -18 0 -33 -4 -33 -10z"/>
<path d="M501 1588 c1 -16 3 -18 6 -6 2 9 12 19 21 21 12 3 10 5 -5 6 -18 1
-23 -4 -22 -21z"/>
<path d="M551 1596 c-9 -11 -9 -16 1 -22 7 -4 10 -4 6 1 -4 4 -3 14 3 22 6 7
9 13 6 13 -2 0 -10 -6 -16 -14z"/>
<path d="M582 1590 c0 -14 2 -19 5 -12 2 6 2 18 0 25 -3 6 -5 1 -5 -13z"/>
</g>
</svg>
