<?xml version="1.0" standalone="no"?>
<!DOCTYPE svg PUBLIC "-//W3C//DTD SVG 20010904//EN"
 "http://www.w3.org/TR/2001/REC-SVG-20010904/DTD/svg10.dtd">
<svg version="1.0" xmlns="http://www.w3.org/2000/svg"
 width="1638.000000pt" height="858.000000pt" viewBox="0 0 1638.000000 858.000000"
 preserveAspectRatio="xMidYMid meet">

<g transform="translate(0.000000,858.000000) scale(0.100000,-0.100000)"
fill="#000000" stroke="none">
<path d="M13430 8325 c0 -11 11 -15 40 -15 l40 0 0 -110 c0 -91 3 -110 15
-110 12 0 15 19 15 110 l0 110 40 0 c29 0 40 4 40 15 0 12 -17 15 -95 15 -78
0 -95 -3 -95 -15z"/>
<path d="M13642 8323 c5 -25 28 -28 28 -4 0 12 -6 21 -16 21 -9 0 -14 -7 -12
-17z"/>
<path d="M13640 8180 c0 -73 3 -90 15 -90 12 0 15 17 15 90 0 73 -3 90 -15 90
-12 0 -15 -17 -15 -90z"/>
<path d="M13720 8180 c0 -73 3 -90 15 -90 12 0 15 14 15 64 0 45 5 69 16 80
38 39 64 3 64 -90 0 -41 4 -54 15 -54 12 0 15 14 15 69 0 75 13 98 50 86 18
-6 20 -15 20 -81 0 -59 3 -74 15 -74 12 0 15 15 15 78 0 87 -8 102 -55 102
-17 0 -36 -5 -43 -12 -9 -9 -15 -9 -24 0 -7 7 -24 12 -38 12 -14 0 -31 -5 -38
-12 -9 -9 -12 -9 -12 0 0 7 -7 12 -15 12 -12 0 -15 -17 -15 -90z"/>
<path d="M14021 8244 c-13 -16 -21 -41 -21 -64 0 -54 31 -90 79 -90 40 0 81
23 81 46 0 20 -16 18 -40 -6 -11 -11 -27 -20 -35 -20 -17 0 -55 35 -55 50 0 6
28 10 65 10 l65 0 0 30 c0 68 -96 98 -139 44z m93 -10 c27 -26 18 -34 -35 -34
-51 0 -53 3 -26 38 13 17 42 15 61 -4z"/>
<path d="M14469 7956 c22 -23 41 -45 41 -49 0 -4 -3091 -7 -6870 -7 -6100 0
-6870 -2 -6870 -15 0 -8 -7 -15 -15 -15 -13 0 -15 -402 -15 -3557 l0 -3557
-50 49 -50 49 31 -84 c17 -47 45 -125 63 -174 l32 -89 56 154 c31 85 60 163
64 174 4 12 -14 0 -45 -30 l-51 -49 0 2017 0 2017 25 0 c14 0 25 5 25 10 0 6
-11 10 -25 10 l-25 0 0 1520 0 1520 6860 0 c3773 0 6860 -3 6860 -7 0 -4 -19
-26 -42 -50 l-41 -42 162 59 c88 32 166 60 171 62 6 2 -67 31 -161 65 l-172
61 42 -42z"/>
<path d="M430 7756 c0 -8 23 -20 53 -28 l52 -15 -52 -17 c-29 -10 -53 -24 -53
-31 0 -10 17 -7 66 12 l65 25 24 -22 c12 -12 26 -17 29 -12 11 18 -24 41 -117
76 -50 19 -67 22 -67 12z"/>
<path d="M430 7625 c0 -8 -7 -15 -15 -15 -21 0 -19 -12 7 -34 14 -13 23 -15
26 -8 2 7 24 12 52 12 53 0 77 18 65 47 -8 17 -8 17 -12 1 -6 -24 -103 -27
-103 -3 0 8 -4 15 -10 15 -5 0 -10 -7 -10 -15z"/>
<path d="M382 7538 c6 -18 28 -21 28 -4 0 9 -7 16 -16 16 -9 0 -14 -5 -12 -12z"/>
<path d="M430 7535 c0 -12 14 -15 70 -15 56 0 70 3 70 15 0 12 -14 15 -70 15
-56 0 -70 -3 -70 -15z"/>
<path d="M440 7470 c7 -14 7 -20 0 -20 -5 0 -10 -4 -10 -10 0 -6 30 -10 70
-10 56 0 70 3 70 15 0 11 -12 15 -50 15 -36 0 -52 4 -56 15 -4 8 -13 15 -20
15 -12 0 -12 -4 -4 -20z"/>
<path d="M1430 6975 l0 -485 855 0 855 0 0 485 0 485 -855 0 -855 0 0 -485z
m1700 0 l0 -475 -845 0 -845 0 0 475 0 475 845 0 845 0 0 -475z"/>
<path d="M1670 6980 c0 -73 3 -90 15 -90 12 0 15 13 15 57 l0 57 36 -57 c23
-37 42 -57 55 -57 17 0 19 8 19 90 0 83 -2 90 -19 90 -17 0 -20 -8 -23 -52
l-3 -53 -32 53 c-50 79 -63 71 -63 -38z"/>
<path d="M2120 7055 c0 -8 9 -15 20 -15 11 0 20 7 20 15 0 8 -9 15 -20 15 -11
0 -20 -7 -20 -15z"/>
<path d="M2567 7063 c-13 -12 -7 -23 13 -23 11 0 20 7 20 15 0 15 -21 21 -33
8z"/>
<path d="M2486 7038 c-15 -21 -15 -53 0 -125 5 -27 54 -34 54 -8 0 8 -4 15
-10 15 -5 0 -10 16 -10 35 0 19 5 35 10 35 6 0 10 7 10 15 0 8 -4 15 -10 15
-5 0 -10 9 -10 20 0 26 -15 25 -34 -2z"/>
<path d="M1852 7008 c-21 -21 -13 -30 23 -24 44 9 46 -8 3 -20 -28 -8 -33 -15
-33 -39 0 -29 1 -30 55 -32 l55 -2 -4 52 c-1 29 -8 58 -13 65 -13 15 -70 16
-86 0z m68 -67 c0 -5 -7 -14 -15 -21 -12 -10 -19 -10 -28 -1 -9 9 -9 14 3 21
19 12 40 13 40 1z"/>
<path d="M1976 6998 c21 -67 45 -109 60 -106 9 2 27 30 40 62 29 71 28 66 6
66 -13 0 -23 -13 -32 -41 l-14 -42 -18 42 c-19 44 -56 61 -42 19z"/>
<path d="M2120 6955 c0 -58 2 -65 20 -65 18 0 20 7 20 65 0 58 -2 65 -20 65
-18 0 -20 -7 -20 -65z"/>
<path d="M2202 7007 c-10 -12 -15 -38 -13 -69 2 -30 32 -50 63 -44 21 4 28 2
25 -7 -3 -7 -20 -11 -46 -9 -22 1 -41 -1 -41 -6 0 -18 26 -32 60 -32 52 0 60
13 60 101 l0 76 -49 1 c-28 1 -53 -4 -59 -11z m73 -37 c7 -23 -10 -50 -31 -50
-15 0 -29 43 -19 59 11 18 43 12 50 -9z"/>
<path d="M2352 7008 c-21 -21 -13 -30 23 -24 44 9 46 -8 3 -20 -28 -8 -33 -15
-33 -39 0 -29 1 -30 55 -32 l55 -2 -4 52 c-1 29 -8 58 -13 65 -13 15 -70 16
-86 0z m68 -67 c0 -5 -7 -14 -15 -21 -12 -10 -19 -10 -28 -1 -9 9 -9 14 3 21
19 12 40 13 40 1z"/>
<path d="M2560 6955 c0 -58 2 -65 20 -65 18 0 20 7 20 65 0 58 -2 65 -20 65
-18 0 -20 -7 -20 -65z"/>
<path d="M2647 7002 c-22 -25 -21 -75 1 -95 25 -22 75 -21 95 1 22 25 21 75
-1 95 -25 22 -75 21 -95 -1z m68 -47 c0 -23 -5 -31 -21 -33 -24 -3 -38 20 -28
50 4 13 13 18 27 16 17 -2 22 -10 22 -33z"/>
<path d="M2790 6953 c0 -48 3 -63 14 -63 11 0 16 14 18 48 3 40 6 47 26 50 20
3 22 0 22 -47 0 -44 3 -51 20 -51 17 0 20 7 20 46 0 70 -11 83 -70 82 l-50 -1
0 -64z"/>
<path d="M10900 6975 l0 -485 860 0 860 0 0 485 0 485 -860 0 -860 0 0 -485z
m1705 0 l0 -470 -842 -3 -843 -2 0 475 0 475 843 -2 842 -3 0 -470z"/>
<path d="M11550 7050 c-58 -58 -23 -160 54 -160 36 0 66 21 66 46 0 19 -24 18
-40 -1 -34 -41 -84 16 -64 72 11 33 39 41 64 18 13 -12 23 -14 36 -7 15 9 15
11 -5 31 -27 27 -84 28 -111 1z"/>
<path d="M11953 7040 c-5 -19 -33 -26 -85 -21 -16 2 -18 -7 -18 -63 0 -52 3
-66 15 -66 11 0 15 11 15 38 0 42 8 59 30 62 33 5 39 -1 42 -47 3 -44 5 -48
31 -51 19 -2 27 1 27 12 0 9 -7 16 -15 16 -10 0 -15 10 -15 34 0 21 6 36 15
40 8 3 15 10 15 16 0 5 -7 10 -15 10 -8 0 -15 9 -15 20 0 11 -5 20 -11 20 -6
0 -13 -9 -16 -20z"/>
<path d="M11723 7013 c-7 -2 -13 -11 -13 -19 0 -12 8 -13 35 -8 23 4 35 2 35
-5 0 -6 -9 -11 -19 -11 -10 0 -29 -9 -42 -19 -20 -16 -22 -23 -13 -38 8 -13
25 -18 63 -19 l51 -2 0 45 c0 62 -14 83 -53 82 -18 0 -38 -3 -44 -6z m57 -77
c0 -18 -27 -29 -36 -14 -4 5 0 14 7 19 20 13 29 11 29 -5z"/>
<path d="M464 7390 c-26 -10 -36 -34 -28 -65 12 -47 102 -56 125 -13 30 55
-32 105 -97 78z m81 -50 c0 -22 -5 -25 -43 -28 -31 -2 -44 1 -48 12 -13 33 4
47 48 44 38 -3 43 -6 43 -28z"/>
<path d="M382 7248 c6 -18 28 -21 28 -4 0 9 -7 16 -16 16 -9 0 -14 -5 -12 -12z"/>
<path d="M430 7245 c0 -12 14 -15 70 -15 56 0 70 3 70 15 0 12 -14 15 -70 15
-56 0 -70 -3 -70 -15z"/>
<path d="M440 7180 c7 -14 7 -20 0 -20 -5 0 -10 -4 -10 -10 0 -6 30 -10 70
-10 56 0 70 3 70 15 0 11 -12 15 -50 15 -36 0 -52 4 -56 15 -4 8 -13 15 -20
15 -12 0 -12 -4 -4 -20z"/>
<path d="M400 7090 c-12 -12 -20 -33 -20 -55 l0 -35 95 0 c78 0 95 3 95 15 0
10 -11 15 -35 15 -28 0 -35 4 -35 20 0 26 -34 60 -60 60 -11 0 -29 -9 -40 -20z
m78 -37 c3 -21 -1 -23 -37 -23 -33 0 -41 4 -41 18 0 27 10 33 45 30 22 -2 31
-9 33 -25z"/>
<path d="M445 6904 c-10 -11 -14 -25 -11 -40 5 -20 2 -23 -26 -26 -17 -2 -33
-9 -36 -15 -3 -10 21 -13 97 -13 82 0 101 3 101 15 0 10 -15 15 -57 17 -50 3
-58 6 -58 23 0 17 8 20 58 23 42 2 57 7 57 17 0 22 -103 21 -125 -1z"/>
<path d="M14810 6895 c0 -11 11 -15 40 -15 l40 0 0 -110 c0 -91 3 -110 15
-110 12 0 15 19 15 110 l0 110 40 0 c29 0 40 4 40 15 0 12 -17 15 -95 15 -78
0 -95 -3 -95 -15z"/>
<path d="M15040 6785 c0 -77 4 -125 10 -125 6 0 10 24 10 53 0 71 17 102 55
102 l30 0 3 -77 c2 -60 6 -78 17 -78 22 0 21 142 -1 164 -17 18 -69 22 -79 6
-14 -23 -25 -7 -25 35 0 25 -4 45 -10 45 -6 0 -10 -48 -10 -125z"/>
<path d="M15258 6830 c-26 -16 -42 -75 -29 -112 14 -39 38 -57 76 -58 31 0 75
24 75 41 0 14 -26 11 -40 -6 -19 -23 -57 -18 -76 10 -23 35 -10 45 57 45 56 0
59 1 59 25 0 50 -73 83 -122 55z m90 -37 c14 -23 14 -23 -42 -23 -58 0 -60 3
-33 38 15 19 58 10 75 -15z"/>
<path d="M15430 6750 c0 -53 4 -90 10 -90 6 0 10 24 10 53 0 63 18 101 48 105
28 4 42 -30 42 -104 0 -30 5 -54 10 -54 6 0 10 28 10 64 0 71 16 99 54 94 19
-3 21 -10 24 -80 2 -60 6 -78 17 -78 12 0 15 15 15 71 0 39 -5 79 -10 90 -12
21 -50 25 -82 8 -14 -8 -23 -8 -31 0 -15 15 -60 14 -76 -1 -11 -10 -14 -10
-18 0 -13 35 -23 2 -23 -78z"/>
<path d="M15731 6814 c-48 -62 -11 -154 62 -154 36 0 74 30 62 50 -5 8 -12 5
-22 -9 -26 -39 -93 -17 -93 30 0 17 7 19 65 19 57 0 65 2 65 19 0 10 -9 30
-21 45 -16 20 -29 26 -59 26 -30 0 -43 -6 -59 -26z m99 -13 c15 -30 14 -31
-40 -31 -34 0 -50 4 -50 13 0 38 71 52 90 18z"/>
<path d="M15922 6828 c-16 -16 -15 -53 1 -65 6 -6 29 -16 49 -22 44 -15 54
-27 38 -46 -17 -21 -56 -18 -72 4 -9 13 -19 17 -27 12 -23 -15 23 -51 64 -51
32 0 75 27 75 48 0 21 -33 50 -64 56 -61 12 -74 56 -16 56 17 0 33 -7 39 -17
7 -13 13 -15 21 -7 8 8 7 16 -5 28 -19 19 -85 22 -103 4z"/>
<path d="M430 6770 c0 -5 5 -10 10 -10 7 0 7 -7 0 -20 -15 -29 -3 -59 28 -71
54 -21 112 15 97 61 -5 16 -2 20 14 20 21 0 39 -39 27 -59 -4 -5 -2 -12 3 -15
13 -9 24 31 17 60 -4 14 -18 29 -32 34 -34 13 -164 13 -164 0z m115 -50 c0
-21 -5 -25 -36 -28 -39 -3 -65 17 -55 43 4 12 17 15 48 13 38 -3 43 -6 43 -28z"/>
<path d="M382 6628 c6 -18 28 -21 28 -4 0 9 -7 16 -16 16 -9 0 -14 -5 -12 -12z"/>
<path d="M430 6625 c0 -12 14 -15 70 -15 56 0 70 3 70 15 0 12 -14 15 -70 15
-56 0 -70 -3 -70 -15z"/>
<path d="M380 6555 c0 -11 11 -15 40 -15 39 0 40 -1 40 -35 0 -34 -1 -35 -40
-35 -29 0 -40 -4 -40 -15 0 -12 17 -15 95 -15 78 0 95 3 95 15 0 11 -12 15
-45 15 -45 0 -45 0 -45 35 0 35 0 35 45 35 33 0 45 4 45 15 0 12 -17 15 -95
15 -78 0 -95 -3 -95 -15z"/>
<path d="M810 6200 c0 -5 16 -10 35 -10 19 0 35 5 35 10 0 6 -16 10 -35 10
-19 0 -35 -4 -35 -10z"/>
<path d="M940 6200 c0 -5 16 -10 35 -10 19 0 35 5 35 10 0 6 -16 10 -35 10
-19 0 -35 -4 -35 -10z"/>
<path d="M1070 6200 c0 -5 16 -10 35 -10 19 0 35 5 35 10 0 6 -16 10 -35 10
-19 0 -35 -4 -35 -10z"/>
<path d="M1200 6200 c0 -5 16 -10 35 -10 19 0 35 5 35 10 0 6 -16 10 -35 10
-19 0 -35 -4 -35 -10z"/>
<path d="M1330 6200 c0 -5 16 -10 35 -10 19 0 35 5 35 10 0 6 -16 10 -35 10
-19 0 -35 -4 -35 -10z"/>
<path d="M1465 6200 c-4 -6 8 -10 29 -10 20 0 36 5 36 10 0 6 -13 10 -29 10
-17 0 -33 -4 -36 -10z"/>
<path d="M1595 6200 c-4 -6 8 -10 29 -10 20 0 36 5 36 10 0 6 -13 10 -29 10
-17 0 -33 -4 -36 -10z"/>
<path d="M1730 6200 c0 -5 16 -10 36 -10 21 0 33 4 29 10 -3 6 -19 10 -36 10
-16 0 -29 -4 -29 -10z"/>
<path d="M1860 6200 c0 -5 16 -10 35 -10 19 0 35 5 35 10 0 6 -16 10 -35 10
-19 0 -35 -4 -35 -10z"/>
<path d="M1990 6200 c0 -5 16 -10 35 -10 19 0 35 5 35 10 0 6 -16 10 -35 10
-19 0 -35 -4 -35 -10z"/>
<path d="M2120 6200 c0 -5 16 -10 35 -10 19 0 35 5 35 10 0 6 -16 10 -35 10
-19 0 -35 -4 -35 -10z"/>
<path d="M2250 6200 c0 -5 16 -10 35 -10 19 0 35 5 35 10 0 6 -16 10 -35 10
-19 0 -35 -4 -35 -10z"/>
<path d="M2380 6200 c0 -5 16 -10 35 -10 19 0 35 5 35 10 0 6 -16 10 -35 10
-19 0 -35 -4 -35 -10z"/>
<path d="M2510 6200 c0 -5 16 -10 35 -10 19 0 35 5 35 10 0 6 -16 10 -35 10
-19 0 -35 -4 -35 -10z"/>
<path d="M2645 6200 c-4 -6 8 -10 29 -10 20 0 36 5 36 10 0 6 -13 10 -29 10
-17 0 -33 -4 -36 -10z"/>
<path d="M2775 6200 c-4 -6 8 -10 29 -10 20 0 36 5 36 10 0 6 -13 10 -29 10
-17 0 -33 -4 -36 -10z"/>
<path d="M2910 6200 c0 -5 16 -10 36 -10 21 0 33 4 29 10 -3 6 -19 10 -36 10
-16 0 -29 -4 -29 -10z"/>
<path d="M3040 6200 c0 -5 16 -10 35 -10 19 0 35 5 35 10 0 6 -16 10 -35 10
-19 0 -35 -4 -35 -10z"/>
<path d="M3170 6200 c0 -5 16 -10 35 -10 19 0 35 5 35 10 0 6 -16 10 -35 10
-19 0 -35 -4 -35 -10z"/>
<path d="M3300 6200 c0 -5 16 -10 35 -10 19 0 35 5 35 10 0 6 -16 10 -35 10
-19 0 -35 -4 -35 -10z"/>
<path d="M3430 6200 c0 -5 16 -10 35 -10 19 0 35 5 35 10 0 6 -16 10 -35 10
-19 0 -35 -4 -35 -10z"/>
<path d="M3560 6200 c0 -5 16 -10 35 -10 19 0 35 5 35 10 0 6 -16 10 -35 10
-19 0 -35 -4 -35 -10z"/>
<path d="M3690 6200 c0 -5 16 -10 35 -10 19 0 35 5 35 10 0 6 -16 10 -35 10
-19 0 -35 -4 -35 -10z"/>
<path d="M3825 6200 c-4 -6 8 -10 29 -10 20 0 36 5 36 10 0 6 -13 10 -29 10
-17 0 -33 -4 -36 -10z"/>
<path d="M3955 6200 c-4 -6 10 -10 35 -10 25 0 39 4 35 10 -3 6 -19 10 -35 10
-16 0 -32 -4 -35 -10z"/>
<path d="M4090 6200 c0 -5 16 -10 36 -10 21 0 33 4 29 10 -3 6 -19 10 -36 10
-16 0 -29 -4 -29 -10z"/>
<path d="M4220 6200 c0 -5 16 -10 35 -10 19 0 35 5 35 10 0 6 -16 10 -35 10
-19 0 -35 -4 -35 -10z"/>
<path d="M4350 6200 c0 -5 16 -10 35 -10 19 0 35 5 35 10 0 6 -16 10 -35 10
-19 0 -35 -4 -35 -10z"/>
<path d="M4480 6200 c0 -5 16 -10 35 -10 19 0 35 5 35 10 0 6 -16 10 -35 10
-19 0 -35 -4 -35 -10z"/>
<path d="M4610 6200 c0 -5 16 -10 35 -10 19 0 35 5 35 10 0 6 -16 10 -35 10
-19 0 -35 -4 -35 -10z"/>
<path d="M4740 6200 c0 -5 16 -10 35 -10 19 0 35 5 35 10 0 6 -16 10 -35 10
-19 0 -35 -4 -35 -10z"/>
<path d="M4870 6200 c0 -5 16 -10 35 -10 19 0 35 5 35 10 0 6 -16 10 -35 10
-19 0 -35 -4 -35 -10z"/>
<path d="M5005 6200 c-4 -6 8 -10 29 -10 20 0 36 5 36 10 0 6 -13 10 -29 10
-17 0 -33 -4 -36 -10z"/>
<path d="M5135 6200 c-4 -6 10 -10 35 -10 25 0 39 4 35 10 -3 6 -19 10 -35 10
-16 0 -32 -4 -35 -10z"/>
<path d="M5270 6200 c0 -5 16 -10 36 -10 21 0 33 4 29 10 -3 6 -19 10 -36 10
-16 0 -29 -4 -29 -10z"/>
<path d="M5400 6200 c0 -5 16 -10 35 -10 19 0 35 5 35 10 0 6 -16 10 -35 10
-19 0 -35 -4 -35 -10z"/>
<path d="M5530 6200 c0 -5 16 -10 35 -10 19 0 35 5 35 10 0 6 -16 10 -35 10
-19 0 -35 -4 -35 -10z"/>
<path d="M5660 6200 c0 -5 16 -10 35 -10 19 0 35 5 35 10 0 6 -16 10 -35 10
-19 0 -35 -4 -35 -10z"/>
<path d="M5790 6200 c0 -5 16 -10 35 -10 19 0 35 5 35 10 0 6 -16 10 -35 10
-19 0 -35 -4 -35 -10z"/>
<path d="M5920 6200 c0 -5 16 -10 35 -10 19 0 35 5 35 10 0 6 -16 10 -35 10
-19 0 -35 -4 -35 -10z"/>
<path d="M6050 6200 c0 -5 16 -10 35 -10 19 0 35 5 35 10 0 6 -16 10 -35 10
-19 0 -35 -4 -35 -10z"/>
<path d="M6185 6200 c-4 -6 8 -10 29 -10 20 0 36 5 36 10 0 6 -13 10 -29 10
-17 0 -33 -4 -36 -10z"/>
<path d="M6320 6200 c0 -5 16 -10 36 -10 21 0 33 4 29 10 -3 6 -19 10 -36 10
-16 0 -29 -4 -29 -10z"/>
<path d="M6450 6200 c0 -5 16 -10 36 -10 21 0 33 4 29 10 -3 6 -19 10 -36 10
-16 0 -29 -4 -29 -10z"/>
<path d="M6580 6200 c0 -5 16 -10 35 -10 19 0 35 5 35 10 0 6 -16 10 -35 10
-19 0 -35 -4 -35 -10z"/>
<path d="M6710 6200 c0 -5 16 -10 35 -10 19 0 35 5 35 10 0 6 -16 10 -35 10
-19 0 -35 -4 -35 -10z"/>
<path d="M6840 6200 c0 -5 16 -10 35 -10 19 0 35 5 35 10 0 6 -16 10 -35 10
-19 0 -35 -4 -35 -10z"/>
<path d="M6970 6200 c0 -5 16 -10 35 -10 19 0 35 5 35 10 0 6 -16 10 -35 10
-19 0 -35 -4 -35 -10z"/>
<path d="M7100 6200 c0 -5 16 -10 35 -10 19 0 35 5 35 10 0 6 -16 10 -35 10
-19 0 -35 -4 -35 -10z"/>
<path d="M7230 6200 c0 -5 16 -10 35 -10 19 0 35 5 35 10 0 6 -16 10 -35 10
-19 0 -35 -4 -35 -10z"/>
<path d="M7365 6200 c-4 -6 8 -10 29 -10 20 0 36 5 36 10 0 6 -13 10 -29 10
-17 0 -33 -4 -36 -10z"/>
<path d="M7500 6200 c0 -5 16 -10 36 -10 21 0 33 4 29 10 -3 6 -19 10 -36 10
-16 0 -29 -4 -29 -10z"/>
<path d="M7630 6200 c0 -5 16 -10 36 -10 21 0 33 4 29 10 -3 6 -19 10 -36 10
-16 0 -29 -4 -29 -10z"/>
<path d="M7760 6200 c0 -5 16 -10 35 -10 19 0 35 5 35 10 0 6 -16 10 -35 10
-19 0 -35 -4 -35 -10z"/>
<path d="M7890 6200 c0 -5 16 -10 35 -10 19 0 35 5 35 10 0 6 -16 10 -35 10
-19 0 -35 -4 -35 -10z"/>
<path d="M8020 6200 c0 -5 16 -10 35 -10 19 0 35 5 35 10 0 6 -16 10 -35 10
-19 0 -35 -4 -35 -10z"/>
<path d="M8150 6200 c0 -5 16 -10 35 -10 19 0 35 5 35 10 0 6 -16 10 -35 10
-19 0 -35 -4 -35 -10z"/>
<path d="M8280 6200 c0 -5 16 -10 35 -10 19 0 35 5 35 10 0 6 -16 10 -35 10
-19 0 -35 -4 -35 -10z"/>
<path d="M8410 6200 c0 -5 16 -10 35 -10 19 0 35 5 35 10 0 6 -16 10 -35 10
-19 0 -35 -4 -35 -10z"/>
<path d="M8545 6200 c-4 -6 8 -10 29 -10 20 0 36 5 36 10 0 6 -13 10 -29 10
-17 0 -33 -4 -36 -10z"/>
<path d="M8680 6200 c0 -5 16 -10 36 -10 21 0 33 4 29 10 -3 6 -19 10 -36 10
-16 0 -29 -4 -29 -10z"/>
<path d="M8810 6200 c0 -5 16 -10 35 -10 19 0 35 5 35 10 0 6 -16 10 -35 10
-19 0 -35 -4 -35 -10z"/>
<path d="M8940 6200 c0 -5 16 -10 35 -10 19 0 35 5 35 10 0 6 -16 10 -35 10
-19 0 -35 -4 -35 -10z"/>
<path d="M9070 6200 c0 -5 16 -10 35 -10 19 0 35 5 35 10 0 6 -16 10 -35 10
-19 0 -35 -4 -35 -10z"/>
<path d="M9200 6200 c0 -5 16 -10 35 -10 19 0 35 5 35 10 0 6 -16 10 -35 10
-19 0 -35 -4 -35 -10z"/>
<path d="M9330 6200 c0 -5 16 -10 35 -10 19 0 35 5 35 10 0 6 -16 10 -35 10
-19 0 -35 -4 -35 -10z"/>
<path d="M9460 6200 c0 -5 16 -10 35 -10 19 0 35 5 35 10 0 6 -16 10 -35 10
-19 0 -35 -4 -35 -10z"/>
<path d="M9595 6200 c-4 -6 8 -10 29 -10 20 0 36 5 36 10 0 6 -13 10 -29 10
-17 0 -33 -4 -36 -10z"/>
<path d="M9725 6200 c-4 -6 8 -10 29 -10 20 0 36 5 36 10 0 6 -13 10 -29 10
-17 0 -33 -4 -36 -10z"/>
<path d="M9860 6200 c0 -5 16 -10 36 -10 21 0 33 4 29 10 -3 6 -19 10 -36 10
-16 0 -29 -4 -29 -10z"/>
<path d="M9990 6200 c0 -5 16 -10 35 -10 19 0 35 5 35 10 0 6 -16 10 -35 10
-19 0 -35 -4 -35 -10z"/>
<path d="M10120 6200 c0 -5 16 -10 35 -10 19 0 35 5 35 10 0 6 -16 10 -35 10
-19 0 -35 -4 -35 -10z"/>
<path d="M10250 6200 c0 -5 16 -10 35 -10 19 0 35 5 35 10 0 6 -16 10 -35 10
-19 0 -35 -4 -35 -10z"/>
<path d="M10380 6200 c0 -5 16 -10 35 -10 19 0 35 5 35 10 0 6 -16 10 -35 10
-19 0 -35 -4 -35 -10z"/>
<path d="M10510 6200 c0 -5 16 -10 35 -10 19 0 35 5 35 10 0 6 -16 10 -35 10
-19 0 -35 -4 -35 -10z"/>
<path d="M10640 6200 c0 -5 16 -10 35 -10 19 0 35 5 35 10 0 6 -16 10 -35 10
-19 0 -35 -4 -35 -10z"/>
<path d="M10775 6200 c-4 -6 8 -10 29 -10 20 0 36 5 36 10 0 6 -13 10 -29 10
-17 0 -33 -4 -36 -10z"/>
<path d="M10905 6200 c-4 -6 8 -10 29 -10 20 0 36 5 36 10 0 6 -13 10 -29 10
-17 0 -33 -4 -36 -10z"/>
<path d="M11040 6200 c0 -5 16 -10 36 -10 21 0 33 4 29 10 -3 6 -19 10 -36 10
-16 0 -29 -4 -29 -10z"/>
<path d="M11170 6200 c0 -5 16 -10 35 -10 19 0 35 5 35 10 0 6 -16 10 -35 10
-19 0 -35 -4 -35 -10z"/>
<path d="M11300 6200 c0 -5 16 -10 35 -10 19 0 35 5 35 10 0 6 -16 10 -35 10
-19 0 -35 -4 -35 -10z"/>
<path d="M11430 6200 c0 -5 16 -10 35 -10 19 0 35 5 35 10 0 6 -16 10 -35 10
-19 0 -35 -4 -35 -10z"/>
<path d="M11560 6200 c0 -5 16 -10 35 -10 19 0 35 5 35 10 0 6 -16 10 -35 10
-19 0 -35 -4 -35 -10z"/>
<path d="M11690 6200 c0 -5 16 -10 35 -10 19 0 35 5 35 10 0 6 -16 10 -35 10
-19 0 -35 -4 -35 -10z"/>
<path d="M11820 6200 c0 -5 16 -10 35 -10 19 0 35 5 35 10 0 6 -16 10 -35 10
-19 0 -35 -4 -35 -10z"/>
<path d="M11955 6200 c-4 -6 8 -10 29 -10 20 0 36 5 36 10 0 6 -13 10 -29 10
-17 0 -33 -4 -36 -10z"/>
<path d="M12085 6200 c-4 -6 8 -10 29 -10 20 0 36 5 36 10 0 6 -13 10 -29 10
-17 0 -33 -4 -36 -10z"/>
<path d="M12220 6200 c0 -5 16 -10 36 -10 21 0 33 4 29 10 -3 6 -19 10 -36 10
-16 0 -29 -4 -29 -10z"/>
<path d="M12350 6200 c0 -5 16 -10 35 -10 19 0 35 5 35 10 0 6 -16 10 -35 10
-19 0 -35 -4 -35 -10z"/>
<path d="M12480 6200 c0 -5 16 -10 35 -10 19 0 35 5 35 10 0 6 -16 10 -35 10
-19 0 -35 -4 -35 -10z"/>
<path d="M12610 6200 c0 -5 16 -10 35 -10 19 0 35 5 35 10 0 6 -16 10 -35 10
-19 0 -35 -4 -35 -10z"/>
<path d="M12740 6200 c0 -5 16 -10 35 -10 19 0 35 5 35 10 0 6 -16 10 -35 10
-19 0 -35 -4 -35 -10z"/>
<path d="M12870 6200 c0 -5 16 -10 35 -10 19 0 35 5 35 10 0 6 -16 10 -35 10
-19 0 -35 -4 -35 -10z"/>
<path d="M13000 6200 c0 -5 16 -10 35 -10 19 0 35 5 35 10 0 6 -16 10 -35 10
-19 0 -35 -4 -35 -10z"/>
<path d="M13135 6200 c-4 -6 8 -10 29 -10 20 0 36 5 36 10 0 6 -13 10 -29 10
-17 0 -33 -4 -36 -10z"/>
<path d="M13265 6200 c-4 -6 10 -10 35 -10 25 0 39 4 35 10 -3 6 -19 10 -35
10 -16 0 -32 -4 -35 -10z"/>
<path d="M13400 6200 c0 -5 16 -10 36 -10 21 0 33 4 29 10 -3 6 -19 10 -36 10
-16 0 -29 -4 -29 -10z"/>
<path d="M13530 6200 c0 -5 16 -10 35 -10 19 0 35 5 35 10 0 6 -16 10 -35 10
-19 0 -35 -4 -35 -10z"/>
<path d="M13660 6200 c0 -5 16 -10 35 -10 19 0 35 5 35 10 0 6 -16 10 -35 10
-19 0 -35 -4 -35 -10z"/>
<path d="M13790 6200 c0 -5 16 -10 35 -10 19 0 35 5 35 10 0 6 -16 10 -35 10
-19 0 -35 -4 -35 -10z"/>
<path d="M13920 6200 c0 -5 16 -10 35 -10 19 0 35 5 35 10 0 6 -16 10 -35 10
-19 0 -35 -4 -35 -10z"/>
<path d="M14050 6200 c0 -5 16 -10 35 -10 19 0 35 5 35 10 0 6 -16 10 -35 10
-19 0 -35 -4 -35 -10z"/>
<path d="M14180 6200 c0 -5 16 -10 35 -10 19 0 35 5 35 10 0 6 -16 10 -35 10
-19 0 -35 -4 -35 -10z"/>
<path d="M14315 6200 c-4 -6 8 -10 29 -10 20 0 36 5 36 10 0 6 -13 10 -29 10
-17 0 -33 -4 -36 -10z"/>
<path d="M14450 6200 c0 -5 16 -10 36 -10 21 0 33 4 29 10 -3 6 -19 10 -36 10
-16 0 -29 -4 -29 -10z"/>
<path d="M14580 6200 c0 -5 16 -10 36 -10 21 0 33 4 29 10 -3 6 -19 10 -36 10
-16 0 -29 -4 -29 -10z"/>
<path d="M3300 5515 l0 -515 860 0 860 0 0 515 0 515 -860 0 -860 0 0 -515z
m1710 5 l0 -500 -845 0 -845 0 0 500 0 500 845 0 845 0 0 -500z"/>
<path d="M3540 5670 l0 -90 56 0 c30 0 64 5 75 10 24 13 26 65 3 78 -11 6 -13
11 -5 16 18 12 13 54 -8 66 -11 5 -42 10 -70 10 l-51 0 0 -90z m105 40 c0 -10
-12 -16 -32 -18 -28 -3 -33 0 -33 18 0 18 5 21 33 18 20 -2 32 -8 32 -18z m0
-75 c0 -15 -8 -21 -32 -23 -30 -3 -33 -1 -33 23 0 24 3 26 33 23 24 -2 32 -8
32 -23z"/>
<path d="M3720 5644 c0 -57 2 -64 20 -64 17 0 20 7 20 46 0 37 4 47 20 51 37
10 23 32 -20 31 l-40 0 0 -64z"/>
<path d="M3830 5688 c-39 -43 -11 -108 48 -108 33 0 45 8 61 38 35 66 -57 125
-109 70z m75 -43 c0 -25 -4 -30 -25 -30 -16 0 -26 6 -28 18 -6 30 6 49 30 45
18 -2 23 -9 23 -33z"/>
<path d="M3960 5705 c0 -3 8 -32 17 -66 14 -50 20 -59 37 -57 13 2 23 15 29
38 l10 35 10 -37 c14 -58 41 -51 63 15 9 28 19 58 22 65 2 7 -4 12 -16 12 -16
0 -23 -8 -28 -35 -7 -40 -19 -38 -27 5 -10 46 -43 41 -52 -7 l-8 -38 -15 38
c-8 20 -21 37 -28 37 -8 0 -14 -2 -14 -5z"/>
<path d="M4172 5698 c-7 -7 -12 -20 -12 -30 0 -17 14 -26 65 -43 15 -5 17 -8
6 -15 -8 -5 -24 -4 -38 3 -28 13 -41 3 -23 -18 17 -21 79 -16 94 8 15 24 -3
49 -44 60 -22 6 -29 12 -22 19 7 7 17 6 31 -2 27 -14 47 -4 30 16 -14 17 -71
18 -87 2z"/>
<path d="M4316 5695 c-22 -23 -24 -77 -4 -102 15 -18 73 -16 88 2 18 21 5 30
-24 17 -19 -9 -27 -8 -36 4 -11 12 -6 14 28 14 49 0 58 11 40 47 -16 34 -66
43 -92 18z m59 -25 c3 -5 -3 -10 -14 -10 -12 0 -21 5 -21 10 0 6 6 10 14 10 8
0 18 -4 21 -10z"/>
<path d="M4525 5690 c-38 -42 -9 -110 47 -110 35 0 68 32 68 65 0 56 -77 86
-115 45z m70 -45 c0 -23 -5 -31 -21 -33 -24 -3 -38 20 -28 50 4 13 13 18 27
16 17 -2 22 -10 22 -33z"/>
<path d="M4660 5644 c0 -57 2 -64 19 -64 17 0 20 8 23 48 3 39 6 47 23 47 17
0 20 -8 23 -47 2 -35 7 -48 18 -48 12 0 14 12 12 63 l-3 62 -57 2 -58 2 0 -65z"/>
<path d="M3820 5370 c0 -82 2 -90 19 -90 17 0 20 8 23 48 3 39 6 47 23 47 17
0 20 -8 23 -47 2 -35 7 -48 18 -48 12 0 14 12 12 63 l-3 62 -38 0 c-34 0 -37
2 -37 28 0 20 -5 27 -20 27 -19 0 -20 -7 -20 -90z"/>
<path d="M4320 5445 c0 -8 9 -15 20 -15 11 0 20 7 20 15 0 8 -9 15 -20 15 -11
0 -20 -7 -20 -15z"/>
<path d="M3746 5428 c-15 -21 -15 -53 0 -125 5 -27 54 -34 54 -8 0 8 -4 15
-10 15 -5 0 -10 16 -10 35 0 19 5 35 10 35 6 0 10 7 10 15 0 8 -4 15 -10 15
-5 0 -10 9 -10 20 0 26 -15 25 -34 -2z"/>
<path d="M4403 5430 c-3 -11 -9 -20 -14 -20 -5 0 -9 -7 -9 -15 0 -8 4 -15 9
-15 6 0 11 -21 13 -47 3 -44 5 -48 31 -51 19 -2 27 1 27 12 0 9 -7 16 -15 16
-10 0 -15 10 -15 34 0 21 6 36 15 40 8 3 15 10 15 16 0 5 -7 10 -15 10 -8 0
-15 9 -15 20 0 11 -5 20 -11 20 -6 0 -13 -9 -16 -20z"/>
<path d="M3987 5392 c-21 -23 -22 -76 -1 -96 25 -26 94 -18 94 10 0 17 -22 18
-37 3 -6 -6 -16 -8 -22 -5 -23 14 -10 26 29 26 32 0 40 4 40 18 0 53 -68 82
-103 44z m63 -22 c0 -5 -9 -10 -20 -10 -11 0 -20 5 -20 10 0 6 9 10 20 10 11
0 20 -4 20 -10z"/>
<path d="M4192 5398 c-7 -7 -12 -20 -12 -30 0 -17 14 -27 64 -43 15 -4 17 -8
8 -17 -9 -9 -15 -9 -24 0 -13 13 -48 16 -48 4 0 -17 26 -32 56 -32 37 0 68 25
60 47 -3 8 -6 16 -6 18 0 2 -16 9 -35 15 -19 6 -33 16 -29 21 3 5 13 5 25 -1
25 -14 44 -3 28 16 -14 17 -71 18 -87 2z"/>
<path d="M4320 5345 c0 -58 2 -65 20 -65 18 0 20 7 20 65 0 58 -2 65 -20 65
-18 0 -20 -7 -20 -65z"/>
<path d="M4487 5392 c-21 -23 -22 -76 -1 -96 25 -26 94 -18 94 10 0 17 -22 18
-37 3 -6 -6 -16 -8 -22 -5 -23 14 -10 26 29 26 32 0 40 4 40 18 0 53 -68 82
-103 44z m63 -22 c0 -5 -9 -10 -20 -10 -11 0 -20 5 -20 10 0 6 9 10 20 10 11
0 20 -4 20 -10z"/>
<path d="M7080 5515 l0 -515 860 0 860 0 0 515 0 515 -860 0 -860 0 0 -515z
m1710 5 l0 -500 -845 0 -845 0 0 500 0 500 845 0 845 0 0 -500z"/>
<path d="M7360 5670 l0 -90 60 0 c47 0 60 3 60 15 0 11 -12 15 -45 15 l-45 0
0 75 c0 60 -3 75 -15 75 -12 0 -15 -17 -15 -90z"/>
<path d="M7810 5670 c0 -83 1 -90 20 -90 15 0 20 7 20 25 0 14 4 25 8 25 5 0
15 -11 22 -25 7 -14 22 -25 32 -25 18 0 18 2 -3 40 -21 37 -21 41 -6 58 9 10
17 22 17 25 0 13 -34 7 -52 -10 -17 -15 -18 -14 -18 25 0 35 -3 42 -20 42 -19
0 -20 -7 -20 -90z"/>
<path d="M8037 5753 c-4 -3 -7 -15 -7 -25 0 -10 -4 -18 -10 -18 -5 0 -10 -7
-10 -15 0 -8 5 -15 10 -15 6 0 10 -22 10 -50 0 -38 4 -50 15 -50 11 0 15 12
15 50 0 38 4 50 15 50 8 0 15 7 15 15 0 8 -7 15 -15 15 -8 0 -15 5 -15 10 0 6
7 10 15 10 8 0 15 7 15 15 0 15 -40 21 -53 8z"/>
<path d="M7516 5688 c-34 -48 -7 -108 48 -108 19 0 40 8 49 18 22 25 21 75 -1
95 -27 25 -78 22 -96 -5z m79 -27 c9 -29 -5 -52 -29 -49 -37 5 -34 68 3 68 11
0 22 -8 26 -19z"/>
<path d="M7670 5688 c-39 -43 -11 -108 48 -108 33 0 45 8 61 38 35 66 -57 125
-109 70z m75 -43 c0 -25 -4 -30 -25 -30 -16 0 -26 6 -28 18 -6 30 6 49 30 45
18 -2 23 -9 23 -33z"/>
<path d="M8117 5692 c-22 -25 -21 -75 1 -95 25 -22 75 -21 95 1 22 25 21 75
-1 95 -25 22 -75 21 -95 -1z m68 -47 c0 -23 -5 -31 -21 -33 -24 -3 -35 16 -27
48 4 14 12 20 27 18 16 -2 21 -10 21 -33z"/>
<path d="M8260 5644 c0 -50 3 -64 15 -64 11 0 15 11 15 38 0 42 7 56 33 65 31
11 18 26 -23 25 l-40 0 0 -64z"/>
<path d="M8432 5698 c-21 -21 -13 -30 23 -24 44 9 46 -7 3 -19 -28 -8 -33 -15
-33 -40 0 -29 1 -30 55 -32 l55 -2 -4 52 c-1 29 -8 58 -13 65 -13 15 -70 16
-86 0z m68 -67 c0 -15 -28 -33 -40 -26 -8 5 -8 11 1 21 13 15 39 19 39 5z"/>
<path d="M7980 5431 c0 -25 -3 -28 -25 -23 -35 6 -65 -23 -65 -63 0 -44 25
-63 83 -63 l47 0 0 89 c0 82 -1 89 -20 89 -15 0 -20 -7 -20 -29z m-5 -86 c0
-23 -5 -31 -22 -33 -20 -3 -23 1 -23 33 0 32 3 36 23 33 17 -2 22 -10 22 -33z"/>
<path d="M8350 5440 c-11 -7 -14 -25 -12 -76 1 -37 5 -71 8 -75 9 -15 54 -10
54 6 0 8 -4 15 -10 15 -5 0 -10 16 -10 35 0 19 5 35 10 35 6 0 10 7 10 15 0 8
-4 15 -10 15 -5 0 -10 9 -10 20 0 22 -7 25 -30 10z"/>
<path d="M7490 5319 c0 -82 1 -89 20 -89 15 0 20 7 20 28 0 26 3 28 28 24 37
-5 62 20 62 62 0 45 -25 64 -82 64 l-48 0 0 -89z m90 25 c0 -31 -3 -35 -22
-32 -39 5 -37 68 2 68 16 0 20 -6 20 -36z"/>
<path d="M7650 5344 c0 -50 3 -64 15 -64 11 0 15 11 15 38 0 42 7 56 33 65 31
11 18 26 -23 25 l-40 0 0 -64z"/>
<path d="M7757 5392 c-22 -25 -21 -75 1 -95 25 -22 75 -21 95 1 22 25 21 75
-1 95 -25 22 -75 21 -95 -1z m68 -47 c0 -23 -5 -31 -21 -33 -24 -3 -35 16 -27
48 4 14 12 20 27 18 16 -2 21 -10 21 -33z"/>
<path d="M8050 5356 c0 -31 5 -58 13 -64 6 -6 33 -10 60 -10 l47 0 0 64 c0 57
-2 64 -20 64 -17 0 -20 -7 -20 -49 0 -33 -5 -51 -14 -54 -20 -8 -25 0 -32 55
-9 70 -34 66 -34 -6z"/>
<path d="M8223 5402 c-32 -20 -32 -94 0 -114 22 -14 64 -8 82 12 17 18 17 20
0 26 -9 4 -20 1 -25 -6 -4 -6 -16 -10 -26 -8 -14 2 -19 12 -19 33 0 28 2 30
38 28 38 -2 45 5 25 25 -13 13 -57 16 -75 4z"/>
<path d="M9010 5515 l0 -515 860 0 860 0 0 515 0 515 -860 0 -860 0 0 -515z
m1710 5 l0 -500 -845 0 -845 0 0 500 0 500 845 0 845 0 0 -500z"/>
<path d="M9343 5896 c3 -8 18 -49 33 -90 22 -62 30 -76 48 -76 17 0 26 15 53
91 30 87 31 90 11 87 -16 -2 -26 -18 -40 -57 -10 -30 -20 -56 -22 -58 -2 -2
-13 23 -26 57 -17 46 -27 60 -42 60 -14 0 -18 -5 -15 -14z"/>
<path d="M9520 5895 c0 -8 7 -15 15 -15 8 0 15 7 15 15 0 8 -7 15 -15 15 -8 0
-15 -7 -15 -15z"/>
<path d="M10020 5820 c0 -73 3 -90 15 -90 12 0 15 17 15 90 0 73 -3 90 -15 90
-12 0 -15 -17 -15 -90z"/>
<path d="M10090 5895 c0 -8 7 -15 15 -15 8 0 15 7 15 15 0 8 -7 15 -15 15 -8
0 -15 -7 -15 -15z"/>
<path d="M9520 5795 c0 -51 3 -65 15 -65 12 0 15 14 15 65 0 51 -3 65 -15 65
-12 0 -15 -14 -15 -65z"/>
<path d="M9592 5848 c-7 -7 -12 -20 -12 -30 0 -17 14 -27 64 -43 15 -4 17 -8
8 -17 -9 -9 -15 -9 -24 0 -13 13 -48 16 -48 4 0 -17 26 -32 56 -32 37 0 68 25
60 47 -3 8 -6 16 -6 18 0 2 -16 9 -35 15 -19 6 -33 16 -29 21 3 5 13 5 25 -1
25 -14 44 -3 28 16 -14 17 -71 18 -87 2z"/>
<path d="M9732 5798 l3 -63 58 -2 57 -2 0 65 c0 57 -2 64 -19 64 -17 0 -20 -8
-23 -47 -3 -40 -6 -48 -23 -48 -17 0 -20 8 -23 48 -2 34 -7 47 -18 47 -12 0
-14 -12 -12 -62z"/>
<path d="M9893 5853 c-7 -2 -13 -11 -13 -19 0 -12 8 -13 35 -8 23 4 35 2 35
-5 0 -6 -9 -11 -19 -11 -10 0 -29 -9 -42 -19 -20 -16 -22 -23 -13 -38 8 -13
25 -18 63 -19 l51 -2 0 45 c0 62 -14 83 -53 82 -18 0 -38 -3 -44 -6z m57 -77
c0 -18 -27 -29 -36 -14 -4 5 0 14 7 19 20 13 29 11 29 -5z"/>
<path d="M10090 5795 c0 -51 3 -65 15 -65 12 0 15 14 15 65 0 51 -3 65 -15 65
-12 0 -15 -14 -15 -65z"/>
<path d="M10150 5846 c0 -8 12 -16 27 -18 l27 -3 -32 -36 c-18 -20 -32 -42
-32 -48 0 -7 22 -11 60 -11 47 0 60 3 60 15 0 10 -10 15 -30 15 -16 0 -30 4
-30 8 0 5 14 21 30 37 45 43 39 55 -25 55 -41 0 -55 -4 -55 -14z"/>
<path d="M10292 5847 c-40 -47 -15 -117 41 -117 31 0 57 14 57 32 0 12 -34 10
-46 -2 -8 -8 -15 -6 -24 5 -11 13 -7 15 29 15 37 0 41 2 41 24 0 14 -7 32 -16
40 -19 19 -67 21 -82 3z m63 -27 c4 -6 -5 -10 -20 -10 -15 0 -24 4 -20 10 3 6
12 10 20 10 8 0 17 -4 20 -10z"/>
<path d="M9910 5582 c0 -26 -3 -28 -28 -24 -38 5 -62 -20 -62 -63 0 -48 21
-64 81 -63 l50 0 -3 86 c-3 73 -6 87 -20 90 -14 3 -18 -3 -18 -26z m-5 -87 c0
-23 -5 -31 -21 -33 -24 -3 -38 20 -28 50 4 13 13 18 27 16 17 -2 22 -10 22
-33z"/>
<path d="M10280 5590 c-11 -7 -14 -25 -12 -76 1 -37 5 -71 8 -75 9 -15 54 -10
54 6 0 8 -4 15 -10 15 -5 0 -10 16 -10 35 0 19 5 35 10 35 6 0 10 7 10 15 0 8
-4 15 -10 15 -5 0 -10 9 -10 20 0 22 -7 25 -30 10z"/>
<path d="M9420 5468 c0 -81 2 -88 20 -88 15 0 20 7 20 28 0 26 3 28 29 24 50
-7 79 58 46 105 -13 18 -25 22 -65 21 l-50 -1 0 -89z m85 27 c0 -23 -4 -30
-20 -30 -21 0 -31 25 -21 51 11 28 41 12 41 -21z"/>
<path d="M9570 5494 c0 -57 2 -64 20 -64 17 0 20 7 20 46 0 37 4 47 19 51 11
3 22 11 25 18 3 10 -7 13 -40 13 l-44 0 0 -64z"/>
<path d="M9685 5540 c-38 -42 -9 -110 47 -110 35 0 68 32 68 65 0 56 -77 86
-115 45z m70 -45 c0 -23 -5 -31 -21 -33 -24 -3 -38 20 -28 50 4 13 13 18 27
16 17 -2 22 -10 22 -33z"/>
<path d="M9982 5498 l3 -63 58 -2 57 -2 0 65 c0 57 -2 64 -19 64 -17 0 -20 -8
-23 -47 -3 -40 -6 -48 -23 -48 -17 0 -20 8 -23 48 -2 34 -7 47 -18 47 -12 0
-14 -12 -12 -62z"/>
<path d="M10136 5538 c-20 -29 -20 -58 0 -86 12 -18 24 -22 51 -20 20 2 41 10
47 20 15 24 0 34 -29 18 -31 -16 -48 -4 -43 31 3 21 8 24 41 21 38 -3 46 5 25
26 -21 21 -75 15 -92 -10z"/>
<path d="M9700 5221 c0 -84 1 -91 20 -91 17 0 20 7 20 50 0 43 3 50 20 50 17
0 20 -7 20 -50 0 -43 3 -50 20 -50 18 0 20 7 20 54 0 60 -15 81 -54 74 -21 -4
-25 -1 -28 21 -2 15 -10 27 -20 29 -16 3 -18 -6 -18 -87z"/>
<path d="M10136 5278 c-15 -21 -15 -53 0 -125 5 -27 54 -34 54 -8 0 8 -4 15
-10 15 -5 0 -10 16 -10 35 0 19 5 35 10 35 6 0 10 7 10 15 0 8 -4 15 -10 15
-5 0 -10 9 -10 20 0 26 -15 25 -34 -2z"/>
<path d="M9567 5253 c-4 -3 -7 -17 -7 -30 0 -23 10 -30 65 -48 16 -5 17 -8 5
-15 -8 -5 -22 -5 -32 1 -11 6 -26 9 -35 7 -15 -3 -15 -5 1 -21 13 -12 30 -17
54 -15 67 6 69 63 2 81 -24 6 -30 11 -22 19 8 8 15 8 26 -2 9 -7 23 -9 32 -6
13 5 14 9 4 21 -12 15 -81 21 -93 8z"/>
<path d="M9862 5247 c-40 -47 -15 -117 41 -117 31 0 57 14 57 32 0 12 -34 10
-46 -2 -8 -8 -15 -6 -24 5 -11 13 -7 15 29 15 37 0 41 2 41 24 0 14 -7 32 -16
40 -19 19 -67 21 -82 3z m63 -27 c4 -6 -5 -10 -20 -10 -15 0 -24 4 -20 10 3 6
12 10 20 10 8 0 17 -4 20 -10z"/>
<path d="M10002 5247 c-40 -47 -15 -117 41 -117 31 0 57 14 57 32 0 12 -34 10
-46 -2 -8 -8 -15 -6 -24 5 -11 13 -7 15 29 15 37 0 41 2 41 24 0 14 -7 32 -16
40 -19 19 -67 21 -82 3z m63 -27 c4 -6 -5 -10 -20 -10 -15 0 -24 4 -20 10 3 6
12 10 20 10 8 0 17 -4 20 -10z"/>
<path d="M10900 5515 l0 -515 860 0 860 0 0 515 0 515 -860 0 -860 0 0 -515z
m1710 5 l0 -500 -845 0 -845 0 0 500 0 500 845 0 845 0 0 -500z"/>
<path d="M11452 5827 c-18 -45 -32 -86 -32 -90 0 -17 38 -5 43 13 4 15 14 20
40 20 27 0 37 -5 42 -20 7 -22 45 -28 44 -7 0 6 -15 46 -32 87 -24 55 -38 76
-53 78 -18 3 -26 -10 -52 -81z m67 -14 c1 -7 -8 -13 -18 -13 -18 0 -19 3 -9
32 10 28 12 30 19 12 4 -10 8 -25 8 -31z"/>
<path d="M11700 5882 c0 -26 -3 -28 -33 -24 -41 5 -59 -15 -59 -63 0 -51 16
-65 73 -63 l49 1 0 88 c0 72 -3 89 -15 89 -10 0 -15 -10 -15 -28z m-5 -71 c9
-29 -5 -52 -29 -49 -37 5 -34 68 3 68 11 0 22 -8 26 -19z"/>
<path d="M11850 5882 c0 -26 -3 -28 -28 -24 -38 5 -62 -20 -62 -63 0 -48 21
-64 81 -63 l50 0 -3 86 c-3 73 -6 87 -20 90 -14 3 -18 -3 -18 -26z m-5 -87 c0
-23 -5 -31 -21 -33 -24 -3 -38 20 -28 50 4 13 13 18 27 16 17 -2 22 -10 22
-33z"/>
<path d="M11992 5848 c-21 -21 -13 -30 23 -24 44 9 46 -7 3 -19 -28 -8 -33
-15 -33 -40 0 -29 1 -30 55 -32 l55 -2 -4 52 c-1 29 -8 58 -13 65 -13 15 -70
16 -86 0z m68 -67 c0 -15 -28 -33 -40 -26 -8 5 -8 11 1 21 13 15 39 19 39 5z"/>
<path d="M11650 5582 c0 -26 -3 -28 -33 -24 -41 5 -59 -15 -59 -63 0 -51 16
-65 73 -63 l49 1 0 88 c0 72 -3 89 -15 89 -10 0 -15 -10 -15 -28z m-5 -71 c9
-29 -5 -52 -29 -49 -37 5 -34 68 3 68 11 0 22 -8 26 -19z"/>
<path d="M12013 5580 c-3 -11 -9 -20 -14 -20 -5 0 -9 -7 -9 -15 0 -8 4 -15 9
-15 6 0 11 -21 13 -47 3 -44 5 -48 31 -51 29 -4 39 21 12 32 -9 3 -15 18 -15
36 0 20 5 30 15 30 8 0 15 7 15 15 0 8 -7 15 -15 15 -8 0 -15 9 -15 20 0 11
-5 20 -11 20 -6 0 -13 -9 -16 -20z"/>
<path d="M12170 5590 c-11 -7 -14 -25 -12 -76 1 -37 5 -71 8 -75 9 -15 54 -10
54 6 0 8 -4 15 -10 15 -5 0 -10 16 -10 35 0 19 5 35 10 35 6 0 10 7 10 15 0 8
-4 15 -10 15 -5 0 -10 9 -10 20 0 22 -7 25 -30 10z"/>
<path d="M11160 5469 c0 -72 3 -89 15 -89 10 0 15 10 15 29 0 28 2 29 33 24
50 -8 81 46 54 97 -11 22 -20 25 -65 26 l-52 2 0 -89z m85 26 c0 -23 -5 -31
-22 -33 -14 -2 -23 3 -25 15 -7 33 3 54 26 51 16 -2 21 -10 21 -33z"/>
<path d="M11310 5494 c0 -57 2 -64 20 -64 17 0 20 7 20 46 0 37 4 47 20 51 37
10 23 32 -20 31 l-40 0 0 -64z"/>
<path d="M11420 5538 c-39 -43 -11 -108 48 -108 33 0 45 8 61 38 35 66 -57
125 -109 70z m75 -43 c0 -25 -4 -30 -25 -30 -16 0 -26 6 -28 18 -6 30 6 49 30
45 18 -2 23 -9 23 -33z"/>
<path d="M11710 5521 c0 -22 4 -51 10 -65 8 -23 14 -26 60 -25 l50 2 0 63 c0
49 -3 64 -14 64 -11 0 -16 -14 -18 -47 -3 -41 -6 -48 -25 -51 -21 -3 -23 0
-23 47 0 44 -3 51 -20 51 -17 0 -20 -7 -20 -39z"/>
<path d="M11877 5542 c-23 -25 -21 -75 2 -96 24 -22 80 -18 95 6 14 23 0 35
-24 20 -36 -22 -50 -15 -50 24 l0 36 40 -7 c40 -7 50 1 28 23 -18 18 -73 14
-91 -6z"/>
<path d="M12255 5540 c-38 -42 -9 -110 47 -110 35 0 68 32 68 65 0 56 -77 86
-115 45z m70 -45 c0 -23 -5 -31 -21 -33 -24 -3 -38 20 -28 50 4 13 13 18 27
16 17 -2 22 -10 22 -33z"/>
<path d="M11933 5280 c-5 -19 -33 -26 -85 -21 -16 2 -18 -7 -18 -63 0 -52 3
-66 15 -66 11 0 15 11 15 38 0 42 8 59 30 62 33 5 39 -1 42 -47 3 -44 5 -48
31 -51 19 -2 27 1 27 12 0 9 -7 16 -15 16 -10 0 -15 10 -15 34 0 21 6 36 15
40 8 3 15 10 15 16 0 5 -7 10 -15 10 -8 0 -15 9 -15 20 0 11 -5 20 -11 20 -6
0 -13 -9 -16 -20z"/>
<path d="M11556 5238 c-20 -29 -20 -58 0 -86 12 -18 24 -22 51 -20 20 2 41 10
47 20 15 24 0 34 -29 18 -31 -16 -48 -4 -43 31 3 21 8 24 41 21 38 -3 46 5 25
26 -21 21 -75 15 -92 -10z"/>
<path d="M11697 5253 c-4 -3 -7 -13 -7 -20 0 -10 9 -12 35 -7 47 9 45 -10 -2
-22 -33 -8 -38 -13 -38 -39 0 -30 1 -30 56 -32 l56 -2 -4 52 c-3 29 -6 58 -8
65 -5 13 -76 17 -88 5z m63 -72 c0 -12 -29 -35 -36 -28 -11 10 5 37 21 37 8 0
15 -4 15 -9z"/>
<path d="M1430 5485 l0 -515 855 0 855 0 0 515 0 515 -855 0 -855 0 0 -515z
m1700 0 l0 -505 -845 0 -845 0 0 505 0 505 845 0 845 0 0 -505z"/>
<path d="M1930 5490 c0 -83 1 -90 20 -90 19 0 20 7 20 90 0 83 -1 90 -20 90
-19 0 -20 -7 -20 -90z"/>
<path d="M2593 5550 c-3 -11 -9 -20 -14 -20 -5 0 -9 -7 -9 -15 0 -8 4 -15 9
-15 6 0 11 -21 13 -47 3 -44 5 -48 31 -51 29 -4 39 21 12 32 -9 3 -15 18 -15
36 0 20 5 30 15 30 8 0 15 7 15 15 0 8 -7 15 -15 15 -8 0 -15 9 -15 20 0 11
-5 20 -11 20 -6 0 -13 -9 -16 -20z"/>
<path d="M2012 5518 c-21 -21 -13 -30 23 -24 44 9 46 -7 3 -19 -28 -8 -33 -15
-33 -40 0 -29 1 -30 55 -32 l55 -2 -4 52 c-1 29 -8 58 -13 65 -13 15 -70 16
-86 0z m68 -67 c0 -15 -28 -33 -40 -26 -8 5 -8 11 1 21 13 15 39 19 39 5z"/>
<path d="M2130 5521 c0 -5 9 -30 20 -56 24 -56 26 -85 5 -85 -8 0 -15 -7 -15
-15 0 -23 47 -19 61 6 6 12 19 44 29 72 10 29 21 60 25 70 5 13 2 17 -12 17
-15 0 -23 -11 -33 -42 l-13 -43 -13 30 c-7 17 -13 36 -14 43 0 14 -40 17 -40
3z"/>
<path d="M2295 5510 c-38 -42 -9 -110 47 -110 35 0 68 32 68 65 0 56 -77 86
-115 45z m70 -45 c0 -23 -5 -31 -21 -33 -24 -3 -38 20 -28 50 4 13 13 18 27
16 17 -2 22 -10 22 -33z"/>
<path d="M2430 5491 c0 -22 4 -51 10 -65 8 -23 14 -26 60 -25 l50 2 0 63 c0
49 -3 64 -14 64 -11 0 -16 -14 -18 -47 -3 -41 -6 -48 -25 -51 -21 -3 -23 0
-23 47 0 44 -3 51 -20 51 -17 0 -20 -7 -20 -39z"/>
<path d="M12790 5485 l0 -515 860 0 860 0 0 515 0 515 -860 0 -860 0 0 -515z
m1705 0 l0 -500 -842 -3 -843 -2 0 505 0 505 843 -2 842 -3 0 -500z"/>
<path d="M13200 5790 c0 -73 3 -90 15 -90 12 0 15 17 15 90 0 73 -3 90 -15 90
-12 0 -15 -17 -15 -90z"/>
<path d="M13500 5851 c0 -25 -3 -28 -25 -23 -35 6 -65 -23 -65 -63 0 -44 25
-63 83 -63 l47 0 0 89 c0 82 -1 89 -20 89 -15 0 -20 -7 -20 -29z m-5 -86 c0
-23 -5 -31 -22 -33 -20 -3 -23 1 -23 33 0 32 3 36 23 33 17 -2 22 -10 22 -33z"/>
<path d="M13570 5865 c0 -8 9 -15 20 -15 11 0 20 7 20 15 0 8 -9 15 -20 15
-11 0 -20 -7 -20 -15z"/>
<path d="M13923 5850 c-3 -11 -9 -20 -14 -20 -5 0 -9 -7 -9 -15 0 -8 4 -15 9
-15 6 0 11 -21 13 -47 3 -44 5 -48 31 -51 29 -4 39 21 12 32 -9 3 -15 18 -15
36 0 20 5 30 15 30 8 0 15 7 15 15 0 8 -7 15 -15 15 -8 0 -15 9 -15 20 0 11
-5 20 -11 20 -6 0 -13 -9 -16 -20z"/>
<path d="M13260 5764 c0 -57 2 -64 19 -64 17 0 20 8 23 48 3 39 6 47 23 47 17
0 20 -8 23 -47 2 -35 7 -48 18 -48 12 0 14 12 12 63 l-3 62 -57 2 -58 2 0 -65z"/>
<path d="M13570 5765 c0 -58 2 -65 20 -65 18 0 20 7 20 65 0 58 -2 65 -20 65
-18 0 -20 -7 -20 -65z"/>
<path d="M13646 5808 c-20 -29 -20 -58 0 -86 12 -18 24 -22 51 -20 20 2 41 10
47 20 15 24 0 34 -29 18 -31 -16 -48 -4 -43 31 3 21 8 24 41 21 38 -3 46 5 25
26 -21 21 -75 15 -92 -10z"/>
<path d="M13793 5823 c-7 -2 -13 -11 -13 -19 0 -12 8 -13 35 -8 23 4 35 2 35
-5 0 -6 -9 -11 -19 -11 -10 0 -29 -9 -42 -19 -20 -16 -22 -23 -13 -38 8 -13
25 -18 63 -19 l51 -2 0 45 c0 62 -14 83 -53 82 -18 0 -38 -3 -44 -6z m57 -77
c0 -18 -27 -29 -36 -14 -4 5 0 14 7 19 20 13 29 11 29 -5z"/>
<path d="M14006 5808 c-35 -50 -8 -108 50 -108 29 0 54 15 54 32 0 11 -38 10
-45 -2 -7 -11 -35 -2 -35 11 0 5 18 9 40 9 35 0 40 3 40 23 0 53 -75 77 -104
35z m64 -18 c0 -5 -9 -10 -20 -10 -11 0 -20 5 -20 10 0 6 9 10 20 10 11 0 20
-4 20 -10z"/>
<path d="M13260 5552 c0 -26 -3 -28 -28 -24 -38 5 -62 -20 -62 -63 0 -48 21
-64 81 -63 l50 0 -3 86 c-3 73 -6 87 -20 90 -14 3 -18 -3 -18 -26z m-5 -87 c0
-23 -5 -31 -21 -33 -24 -3 -38 20 -28 50 4 13 13 18 27 16 17 -2 22 -10 22
-33z"/>
<path d="M13410 5551 c0 -25 -3 -28 -25 -23 -35 6 -65 -23 -65 -63 0 -44 25
-63 83 -63 l47 0 0 89 c0 82 -1 89 -20 89 -15 0 -20 -7 -20 -29z m-5 -86 c0
-23 -5 -31 -22 -33 -20 -3 -23 1 -23 33 0 32 3 36 23 33 17 -2 22 -10 22 -33z"/>
<path d="M14232 5568 c-7 -7 -12 -18 -12 -25 0 -7 -4 -13 -10 -13 -5 0 -10 -7
-10 -15 0 -8 5 -15 10 -15 6 0 10 -22 10 -50 0 -43 3 -50 20 -50 17 0 20 7 20
50 0 28 5 50 10 50 6 0 10 7 10 15 0 8 -4 15 -10 15 -5 0 -10 5 -10 10 0 6 7
10 15 10 8 0 15 7 15 15 0 18 -41 20 -58 3z"/>
<path d="M13047 5523 c-4 -3 -7 -13 -7 -20 0 -10 9 -12 35 -7 47 9 45 -10 -2
-22 -33 -8 -38 -13 -38 -39 0 -30 1 -30 56 -32 l56 -2 -4 52 c-3 29 -6 58 -8
65 -5 13 -76 17 -88 5z m63 -72 c0 -12 -29 -35 -36 -28 -11 10 5 37 21 37 8 0
15 -4 15 -9z"/>
<path d="M13480 5464 c0 -50 3 -64 15 -64 10 0 15 10 15 28 0 47 11 72 31 72
11 0 19 6 19 14 0 11 -12 15 -40 14 l-40 0 0 -64z"/>
<path d="M13587 5512 c-21 -23 -22 -76 -1 -96 25 -26 94 -18 94 10 0 17 -22
18 -37 3 -6 -6 -16 -8 -22 -5 -23 14 -10 26 29 26 32 0 40 4 40 18 0 53 -68
82 -103 44z m63 -22 c0 -5 -9 -10 -20 -10 -11 0 -20 5 -20 10 0 6 9 10 20 10
11 0 20 -4 20 -10z"/>
<path d="M13722 5518 c-7 -7 -12 -20 -12 -30 0 -17 14 -27 64 -43 15 -4 17 -8
8 -17 -9 -9 -15 -9 -24 0 -13 13 -48 16 -48 4 0 -17 26 -32 56 -32 37 0 68 25
60 47 -3 8 -6 16 -6 18 0 2 -16 9 -35 15 -19 6 -33 16 -29 21 3 5 13 5 25 -1
25 -14 44 -3 28 16 -14 17 -71 18 -87 2z"/>
<path d="M13862 5518 c-7 -7 -12 -20 -12 -30 0 -17 14 -26 65 -43 15 -5 17 -8
6 -15 -8 -5 -24 -4 -38 3 -28 13 -41 3 -23 -18 17 -21 79 -16 94 8 15 24 -3
49 -44 60 -22 6 -29 12 -22 19 7 7 17 6 31 -2 27 -14 47 -4 30 16 -14 17 -71
18 -87 2z"/>
<path d="M14077 5512 c-22 -25 -21 -75 1 -95 25 -22 75 -21 95 1 22 25 21 75
-1 95 -25 22 -75 21 -95 -1z m68 -47 c0 -23 -5 -31 -21 -33 -24 -3 -35 16 -27
48 4 14 12 20 27 18 16 -2 21 -10 21 -33z"/>
<path d="M13290 5190 c0 -73 3 -90 15 -90 10 0 15 10 15 34 0 47 9 66 31 66
16 0 19 -8 19 -50 0 -43 3 -50 20 -50 17 0 20 7 20 48 0 64 -17 87 -58 79 -30
-6 -32 -5 -32 23 0 20 -5 30 -15 30 -12 0 -15 -17 -15 -90z"/>
<path d="M13440 5265 c0 -8 9 -15 20 -15 11 0 20 7 20 15 0 8 -9 15 -20 15
-11 0 -20 -7 -20 -15z"/>
<path d="M13810 5265 c0 -8 9 -15 20 -15 11 0 20 7 20 15 0 8 -9 15 -20 15
-11 0 -20 -7 -20 -15z"/>
<path d="M13152 5218 c-7 -7 -12 -20 -12 -30 0 -17 14 -27 64 -43 15 -4 17 -8
8 -17 -9 -9 -15 -9 -24 0 -13 13 -48 16 -48 4 0 -17 26 -32 56 -32 37 0 68 25
60 47 -3 8 -6 16 -6 18 0 2 -16 9 -35 15 -19 6 -33 16 -29 21 3 5 13 5 25 -1
25 -14 44 -3 28 16 -14 17 -71 18 -87 2z"/>
<path d="M13440 5165 c0 -58 2 -65 20 -65 18 0 20 7 20 65 0 58 -2 65 -20 65
-18 0 -20 -7 -20 -65z"/>
<path d="M13510 5139 c0 -72 3 -89 15 -89 10 0 15 10 15 29 0 28 2 29 33 24
50 -8 81 46 54 97 -11 22 -20 25 -65 26 l-52 2 0 -89z m85 26 c0 -23 -5 -31
-22 -33 -14 -2 -23 3 -25 15 -7 33 3 54 26 51 16 -2 21 -10 21 -33z"/>
<path d="M13660 5138 c0 -81 2 -88 20 -88 15 0 20 7 20 28 0 26 3 28 29 24 50
-7 79 58 46 105 -13 18 -25 22 -65 21 l-50 -1 0 -89z m85 27 c0 -23 -4 -30
-20 -30 -21 0 -31 25 -21 51 11 28 41 12 41 -21z"/>
<path d="M13810 5165 c0 -58 2 -65 20 -65 18 0 20 7 20 65 0 58 -2 65 -20 65
-18 0 -20 -7 -20 -65z"/>
<path d="M13880 5164 c0 -57 2 -64 20 -64 17 0 20 7 20 45 0 33 5 47 16 52 21
8 34 -14 34 -59 0 -27 4 -38 15 -38 19 0 21 102 2 118 -6 6 -33 10 -60 10
l-47 0 0 -64z"/>
<path d="M14046 5214 c-9 -8 -16 -30 -16 -48 0 -51 48 -84 78 -54 9 9 12 7 12
-11 0 -22 -3 -23 -45 -17 -45 7 -55 0 -33 -22 17 -17 83 -15 99 4 8 9 13 44
13 87 l1 72 -47 3 c-32 1 -51 -3 -62 -14z m69 -25 c12 -19 -4 -59 -24 -59 -20
0 -33 32 -24 56 6 16 39 19 48 3z"/>
<path d="M14990 5425 l0 -125 90 0 c73 0 90 3 90 15 0 12 -15 15 -75 15 l-75
0 0 45 0 45 65 0 c37 0 65 4 65 10 0 6 -28 10 -65 10 l-65 0 0 40 0 40 70 0
c56 0 70 3 70 15 0 12 -16 15 -85 15 l-85 0 0 -125z"/>
<path d="M15410 5535 c0 -8 7 -15 15 -15 8 0 15 7 15 15 0 8 -7 15 -15 15 -8
0 -15 -7 -15 -15z"/>
<path d="M15220 5355 c0 -77 4 -125 10 -125 6 0 10 21 10 47 0 37 3 44 12 35
14 -14 53 -16 77 -2 43 22 51 111 14 152 -18 20 -73 24 -91 6 -9 -9 -12 -9
-12 0 0 7 -4 12 -10 12 -6 0 -10 -48 -10 -125z m104 89 c32 -32 9 -124 -31
-124 -29 0 -53 31 -53 68 0 60 48 92 84 56z"/>
<path d="M15410 5390 c0 -73 3 -90 15 -90 12 0 15 17 15 90 0 73 -3 90 -15 90
-12 0 -15 -17 -15 -90z"/>
<path d="M15501 5454 c-47 -59 -13 -154 55 -154 33 0 74 28 74 50 0 17 -25 11
-38 -10 -27 -44 -82 -13 -82 46 0 68 39 96 81 58 28 -25 47 -12 21 14 -32 32
-85 30 -111 -4z"/>
<path d="M15672 5468 c-16 -16 -15 -53 1 -65 6 -6 29 -16 49 -22 44 -15 54
-27 38 -46 -17 -21 -56 -18 -72 4 -9 13 -19 17 -27 12 -23 -15 23 -51 64 -51
32 0 75 27 75 48 0 21 -33 50 -64 56 -61 12 -74 56 -16 56 17 0 33 -7 39 -17
7 -13 13 -15 21 -7 8 8 7 16 -5 28 -19 19 -85 22 -103 4z"/>
<path d="M900 4800 c0 -5 16 -10 35 -10 19 0 35 5 35 10 0 6 -16 10 -35 10
-19 0 -35 -4 -35 -10z"/>
<path d="M1030 4800 c0 -5 16 -10 35 -10 19 0 35 5 35 10 0 6 -16 10 -35 10
-19 0 -35 -4 -35 -10z"/>
<path d="M1160 4800 c0 -5 16 -10 35 -10 19 0 35 5 35 10 0 6 -16 10 -35 10
-19 0 -35 -4 -35 -10z"/>
<path d="M1290 4800 c0 -5 16 -10 35 -10 19 0 35 5 35 10 0 6 -16 10 -35 10
-19 0 -35 -4 -35 -10z"/>
<path d="M1425 4800 c-4 -6 8 -10 29 -10 20 0 36 5 36 10 0 6 -13 10 -29 10
-17 0 -33 -4 -36 -10z"/>
<path d="M1560 4800 c0 -5 16 -10 36 -10 21 0 33 4 29 10 -3 6 -19 10 -36 10
-16 0 -29 -4 -29 -10z"/>
<path d="M1690 4800 c0 -5 16 -10 35 -10 19 0 35 5 35 10 0 6 -16 10 -35 10
-19 0 -35 -4 -35 -10z"/>
<path d="M1820 4800 c0 -5 16 -10 35 -10 19 0 35 5 35 10 0 6 -16 10 -35 10
-19 0 -35 -4 -35 -10z"/>
<path d="M1950 4800 c0 -5 16 -10 35 -10 19 0 35 5 35 10 0 6 -16 10 -35 10
-19 0 -35 -4 -35 -10z"/>
<path d="M2080 4800 c0 -5 16 -10 35 -10 19 0 35 5 35 10 0 6 -16 10 -35 10
-19 0 -35 -4 -35 -10z"/>
<path d="M2210 4800 c0 -5 16 -10 35 -10 19 0 35 5 35 10 0 6 -16 10 -35 10
-19 0 -35 -4 -35 -10z"/>
<path d="M2340 4800 c0 -5 16 -10 35 -10 19 0 35 5 35 10 0 6 -16 10 -35 10
-19 0 -35 -4 -35 -10z"/>
<path d="M2475 4800 c-4 -6 8 -10 29 -10 20 0 36 5 36 10 0 6 -13 10 -29 10
-17 0 -33 -4 -36 -10z"/>
<path d="M2605 4800 c-4 -6 8 -10 29 -10 20 0 36 5 36 10 0 6 -13 10 -29 10
-17 0 -33 -4 -36 -10z"/>
<path d="M2740 4800 c0 -5 16 -10 36 -10 21 0 33 4 29 10 -3 6 -19 10 -36 10
-16 0 -29 -4 -29 -10z"/>
<path d="M2870 4800 c0 -5 16 -10 35 -10 19 0 35 5 35 10 0 6 -16 10 -35 10
-19 0 -35 -4 -35 -10z"/>
<path d="M3000 4800 c0 -5 16 -10 35 -10 19 0 35 5 35 10 0 6 -16 10 -35 10
-19 0 -35 -4 -35 -10z"/>
<path d="M3130 4800 c0 -5 16 -10 35 -10 19 0 35 5 35 10 0 6 -16 10 -35 10
-19 0 -35 -4 -35 -10z"/>
<path d="M3260 4800 c0 -5 16 -10 35 -10 19 0 35 5 35 10 0 6 -16 10 -35 10
-19 0 -35 -4 -35 -10z"/>
<path d="M3390 4800 c0 -5 16 -10 35 -10 19 0 35 5 35 10 0 6 -16 10 -35 10
-19 0 -35 -4 -35 -10z"/>
<path d="M3520 4800 c0 -5 16 -10 35 -10 19 0 35 5 35 10 0 6 -16 10 -35 10
-19 0 -35 -4 -35 -10z"/>
<path d="M3655 4800 c-4 -6 8 -10 29 -10 20 0 36 5 36 10 0 6 -13 10 -29 10
-17 0 -33 -4 -36 -10z"/>
<path d="M3785 4800 c-4 -6 8 -10 29 -10 20 0 36 5 36 10 0 6 -13 10 -29 10
-17 0 -33 -4 -36 -10z"/>
<path d="M3920 4800 c0 -5 16 -10 36 -10 21 0 33 4 29 10 -3 6 -19 10 -36 10
-16 0 -29 -4 -29 -10z"/>
<path d="M4050 4800 c0 -5 16 -10 35 -10 19 0 35 5 35 10 0 6 -16 10 -35 10
-19 0 -35 -4 -35 -10z"/>
<path d="M4180 4800 c0 -5 16 -10 35 -10 19 0 35 5 35 10 0 6 -16 10 -35 10
-19 0 -35 -4 -35 -10z"/>
<path d="M4310 4800 c0 -5 16 -10 35 -10 19 0 35 5 35 10 0 6 -16 10 -35 10
-19 0 -35 -4 -35 -10z"/>
<path d="M4440 4800 c0 -5 16 -10 35 -10 19 0 35 5 35 10 0 6 -16 10 -35 10
-19 0 -35 -4 -35 -10z"/>
<path d="M4570 4800 c0 -5 16 -10 35 -10 19 0 35 5 35 10 0 6 -16 10 -35 10
-19 0 -35 -4 -35 -10z"/>
<path d="M4700 4800 c0 -5 16 -10 35 -10 19 0 35 5 35 10 0 6 -16 10 -35 10
-19 0 -35 -4 -35 -10z"/>
<path d="M4835 4800 c-4 -6 8 -10 29 -10 20 0 36 5 36 10 0 6 -13 10 -29 10
-17 0 -33 -4 -36 -10z"/>
<path d="M4965 4800 c-4 -6 10 -10 35 -10 25 0 39 4 35 10 -3 6 -19 10 -35 10
-16 0 -32 -4 -35 -10z"/>
<path d="M5100 4800 c0 -5 16 -10 36 -10 21 0 33 4 29 10 -3 6 -19 10 -36 10
-16 0 -29 -4 -29 -10z"/>
<path d="M5230 4800 c0 -5 16 -10 35 -10 19 0 35 5 35 10 0 6 -16 10 -35 10
-19 0 -35 -4 -35 -10z"/>
<path d="M5360 4800 c0 -5 16 -10 35 -10 19 0 35 5 35 10 0 6 -16 10 -35 10
-19 0 -35 -4 -35 -10z"/>
<path d="M5490 4800 c0 -5 16 -10 35 -10 19 0 35 5 35 10 0 6 -16 10 -35 10
-19 0 -35 -4 -35 -10z"/>
<path d="M5620 4800 c0 -5 16 -10 35 -10 19 0 35 5 35 10 0 6 -16 10 -35 10
-19 0 -35 -4 -35 -10z"/>
<path d="M5750 4800 c0 -5 16 -10 35 -10 19 0 35 5 35 10 0 6 -16 10 -35 10
-19 0 -35 -4 -35 -10z"/>
<path d="M5880 4800 c0 -5 16 -10 35 -10 19 0 35 5 35 10 0 6 -16 10 -35 10
-19 0 -35 -4 -35 -10z"/>
<path d="M6015 4800 c-4 -6 8 -10 29 -10 20 0 36 5 36 10 0 6 -13 10 -29 10
-17 0 -33 -4 -36 -10z"/>
<path d="M6150 4800 c0 -5 16 -10 36 -10 21 0 33 4 29 10 -3 6 -19 10 -36 10
-16 0 -29 -4 -29 -10z"/>
<path d="M6280 4800 c0 -5 16 -10 36 -10 21 0 33 4 29 10 -3 6 -19 10 -36 10
-16 0 -29 -4 -29 -10z"/>
<path d="M6410 4800 c0 -5 16 -10 35 -10 19 0 35 5 35 10 0 6 -16 10 -35 10
-19 0 -35 -4 -35 -10z"/>
<path d="M6540 4800 c0 -5 16 -10 35 -10 19 0 35 5 35 10 0 6 -16 10 -35 10
-19 0 -35 -4 -35 -10z"/>
<path d="M6670 4800 c0 -5 16 -10 35 -10 19 0 35 5 35 10 0 6 -16 10 -35 10
-19 0 -35 -4 -35 -10z"/>
<path d="M6800 4800 c0 -5 16 -10 35 -10 19 0 35 5 35 10 0 6 -16 10 -35 10
-19 0 -35 -4 -35 -10z"/>
<path d="M6930 4800 c0 -5 16 -10 35 -10 19 0 35 5 35 10 0 6 -16 10 -35 10
-19 0 -35 -4 -35 -10z"/>
<path d="M7060 4800 c0 -5 16 -10 35 -10 19 0 35 5 35 10 0 6 -16 10 -35 10
-19 0 -35 -4 -35 -10z"/>
<path d="M7195 4800 c-4 -6 8 -10 29 -10 20 0 36 5 36 10 0 6 -13 10 -29 10
-17 0 -33 -4 -36 -10z"/>
<path d="M7330 4800 c0 -5 16 -10 36 -10 21 0 33 4 29 10 -3 6 -19 10 -36 10
-16 0 -29 -4 -29 -10z"/>
<path d="M7460 4800 c0 -5 16 -10 36 -10 21 0 33 4 29 10 -3 6 -19 10 -36 10
-16 0 -29 -4 -29 -10z"/>
<path d="M7590 4800 c0 -5 16 -10 35 -10 19 0 35 5 35 10 0 6 -16 10 -35 10
-19 0 -35 -4 -35 -10z"/>
<path d="M7720 4800 c0 -5 16 -10 35 -10 19 0 35 5 35 10 0 6 -16 10 -35 10
-19 0 -35 -4 -35 -10z"/>
<path d="M7850 4800 c0 -5 16 -10 35 -10 19 0 35 5 35 10 0 6 -16 10 -35 10
-19 0 -35 -4 -35 -10z"/>
<path d="M7980 4800 c0 -5 16 -10 35 -10 19 0 35 5 35 10 0 6 -16 10 -35 10
-19 0 -35 -4 -35 -10z"/>
<path d="M8110 4800 c0 -5 16 -10 35 -10 19 0 35 5 35 10 0 6 -16 10 -35 10
-19 0 -35 -4 -35 -10z"/>
<path d="M8240 4800 c0 -5 16 -10 35 -10 19 0 35 5 35 10 0 6 -16 10 -35 10
-19 0 -35 -4 -35 -10z"/>
<path d="M8375 4800 c-4 -6 8 -10 29 -10 20 0 36 5 36 10 0 6 -13 10 -29 10
-17 0 -33 -4 -36 -10z"/>
<path d="M8510 4800 c0 -5 16 -10 36 -10 21 0 33 4 29 10 -3 6 -19 10 -36 10
-16 0 -29 -4 -29 -10z"/>
<path d="M8640 4800 c0 -5 16 -10 36 -10 21 0 33 4 29 10 -3 6 -19 10 -36 10
-16 0 -29 -4 -29 -10z"/>
<path d="M8770 4800 c0 -5 16 -10 35 -10 19 0 35 5 35 10 0 6 -16 10 -35 10
-19 0 -35 -4 -35 -10z"/>
<path d="M8900 4800 c0 -5 16 -10 35 -10 19 0 35 5 35 10 0 6 -16 10 -35 10
-19 0 -35 -4 -35 -10z"/>
<path d="M9030 4800 c0 -5 16 -10 35 -10 19 0 35 5 35 10 0 6 -16 10 -35 10
-19 0 -35 -4 -35 -10z"/>
<path d="M9160 4800 c0 -5 16 -10 35 -10 19 0 35 5 35 10 0 6 -16 10 -35 10
-19 0 -35 -4 -35 -10z"/>
<path d="M9290 4800 c0 -5 16 -10 35 -10 19 0 35 5 35 10 0 6 -16 10 -35 10
-19 0 -35 -4 -35 -10z"/>
<path d="M9420 4800 c0 -5 16 -10 35 -10 19 0 35 5 35 10 0 6 -16 10 -35 10
-19 0 -35 -4 -35 -10z"/>
<path d="M9555 4800 c-4 -6 8 -10 29 -10 20 0 36 5 36 10 0 6 -13 10 -29 10
-17 0 -33 -4 -36 -10z"/>
<path d="M9690 4800 c0 -5 16 -10 36 -10 21 0 33 4 29 10 -3 6 -19 10 -36 10
-16 0 -29 -4 -29 -10z"/>
<path d="M9820 4800 c0 -5 16 -10 35 -10 19 0 35 5 35 10 0 6 -16 10 -35 10
-19 0 -35 -4 -35 -10z"/>
<path d="M9950 4800 c0 -5 16 -10 35 -10 19 0 35 5 35 10 0 6 -16 10 -35 10
-19 0 -35 -4 -35 -10z"/>
<path d="M10080 4800 c0 -5 16 -10 35 -10 19 0 35 5 35 10 0 6 -16 10 -35 10
-19 0 -35 -4 -35 -10z"/>
<path d="M10210 4800 c0 -5 16 -10 35 -10 19 0 35 5 35 10 0 6 -16 10 -35 10
-19 0 -35 -4 -35 -10z"/>
<path d="M10340 4800 c0 -5 16 -10 35 -10 19 0 35 5 35 10 0 6 -16 10 -35 10
-19 0 -35 -4 -35 -10z"/>
<path d="M10470 4800 c0 -5 16 -10 35 -10 19 0 35 5 35 10 0 6 -16 10 -35 10
-19 0 -35 -4 -35 -10z"/>
<path d="M10605 4800 c-4 -6 8 -10 29 -10 20 0 36 5 36 10 0 6 -13 10 -29 10
-17 0 -33 -4 -36 -10z"/>
<path d="M10735 4800 c-4 -6 8 -10 29 -10 20 0 36 5 36 10 0 6 -13 10 -29 10
-17 0 -33 -4 -36 -10z"/>
<path d="M10870 4800 c0 -5 16 -10 36 -10 21 0 33 4 29 10 -3 6 -19 10 -36 10
-16 0 -29 -4 -29 -10z"/>
<path d="M11000 4800 c0 -5 16 -10 35 -10 19 0 35 5 35 10 0 6 -16 10 -35 10
-19 0 -35 -4 -35 -10z"/>
<path d="M11130 4800 c0 -5 16 -10 35 -10 19 0 35 5 35 10 0 6 -16 10 -35 10
-19 0 -35 -4 -35 -10z"/>
<path d="M11260 4800 c0 -5 16 -10 35 -10 19 0 35 5 35 10 0 6 -16 10 -35 10
-19 0 -35 -4 -35 -10z"/>
<path d="M11390 4800 c0 -5 16 -10 35 -10 19 0 35 5 35 10 0 6 -16 10 -35 10
-19 0 -35 -4 -35 -10z"/>
<path d="M11520 4800 c0 -5 16 -10 35 -10 19 0 35 5 35 10 0 6 -16 10 -35 10
-19 0 -35 -4 -35 -10z"/>
<path d="M11650 4800 c0 -5 16 -10 35 -10 19 0 35 5 35 10 0 6 -16 10 -35 10
-19 0 -35 -4 -35 -10z"/>
<path d="M11785 4800 c-4 -6 8 -10 29 -10 20 0 36 5 36 10 0 6 -13 10 -29 10
-17 0 -33 -4 -36 -10z"/>
<path d="M11915 4800 c-4 -6 8 -10 29 -10 20 0 36 5 36 10 0 6 -13 10 -29 10
-17 0 -33 -4 -36 -10z"/>
<path d="M12050 4800 c0 -5 16 -10 36 -10 21 0 33 4 29 10 -3 6 -19 10 -36 10
-16 0 -29 -4 -29 -10z"/>
<path d="M12180 4800 c0 -5 16 -10 35 -10 19 0 35 5 35 10 0 6 -16 10 -35 10
-19 0 -35 -4 -35 -10z"/>
<path d="M12310 4800 c0 -5 16 -10 35 -10 19 0 35 5 35 10 0 6 -16 10 -35 10
-19 0 -35 -4 -35 -10z"/>
<path d="M12440 4800 c0 -5 16 -10 35 -10 19 0 35 5 35 10 0 6 -16 10 -35 10
-19 0 -35 -4 -35 -10z"/>
<path d="M12570 4800 c0 -5 16 -10 35 -10 19 0 35 5 35 10 0 6 -16 10 -35 10
-19 0 -35 -4 -35 -10z"/>
<path d="M12700 4800 c0 -5 16 -10 35 -10 19 0 35 5 35 10 0 6 -16 10 -35 10
-19 0 -35 -4 -35 -10z"/>
<path d="M12830 4800 c0 -5 16 -10 35 -10 19 0 35 5 35 10 0 6 -16 10 -35 10
-19 0 -35 -4 -35 -10z"/>
<path d="M12965 4800 c-4 -6 8 -10 29 -10 20 0 36 5 36 10 0 6 -13 10 -29 10
-17 0 -33 -4 -36 -10z"/>
<path d="M13095 4800 c-4 -6 10 -10 35 -10 25 0 39 4 35 10 -3 6 -19 10 -35
10 -16 0 -32 -4 -35 -10z"/>
<path d="M13230 4800 c0 -5 16 -10 36 -10 21 0 33 4 29 10 -3 6 -19 10 -36 10
-16 0 -29 -4 -29 -10z"/>
<path d="M13360 4800 c0 -5 16 -10 35 -10 19 0 35 5 35 10 0 6 -16 10 -35 10
-19 0 -35 -4 -35 -10z"/>
<path d="M13490 4800 c0 -5 16 -10 35 -10 19 0 35 5 35 10 0 6 -16 10 -35 10
-19 0 -35 -4 -35 -10z"/>
<path d="M13620 4800 c0 -5 16 -10 35 -10 19 0 35 5 35 10 0 6 -16 10 -35 10
-19 0 -35 -4 -35 -10z"/>
<path d="M13750 4800 c0 -5 16 -10 35 -10 19 0 35 5 35 10 0 6 -16 10 -35 10
-19 0 -35 -4 -35 -10z"/>
<path d="M13880 4800 c0 -5 16 -10 35 -10 19 0 35 5 35 10 0 6 -16 10 -35 10
-19 0 -35 -4 -35 -10z"/>
<path d="M14010 4800 c0 -5 16 -10 35 -10 19 0 35 5 35 10 0 6 -16 10 -35 10
-19 0 -35 -4 -35 -10z"/>
<path d="M14145 4800 c-4 -6 8 -10 29 -10 20 0 36 5 36 10 0 6 -13 10 -29 10
-17 0 -33 -4 -36 -10z"/>
<path d="M14275 4800 c-4 -6 10 -10 35 -10 25 0 39 4 35 10 -3 6 -19 10 -35
10 -16 0 -32 -4 -35 -10z"/>
<path d="M14410 4800 c0 -5 16 -10 36 -10 21 0 33 4 29 10 -3 6 -19 10 -36 10
-16 0 -29 -4 -29 -10z"/>
<path d="M14540 4800 c0 -5 16 -10 35 -10 19 0 35 5 35 10 0 6 -16 10 -35 10
-19 0 -35 -4 -35 -10z"/>
<path d="M1430 4145 l0 -515 855 0 855 0 0 515 0 515 -855 0 -855 0 0 -515z
m1700 0 l0 -505 -845 0 -845 0 0 505 0 505 845 0 845 0 0 -505z"/>
<path d="M1856 4359 c-54 -64 -17 -148 67 -149 59 0 77 14 77 60 0 40 0 40
-40 40 -29 0 -40 -4 -40 -15 0 -8 9 -15 20 -15 23 0 27 -28 5 -36 -28 -11 -64
5 -71 31 -16 63 34 108 76 70 10 -9 24 -14 29 -10 31 18 -9 55 -59 55 -30 0
-43 -6 -64 -31z"/>
<path d="M2700 4300 c0 -73 3 -90 15 -90 12 0 15 17 15 90 0 73 -3 90 -15 90
-12 0 -15 -17 -15 -90z"/>
<path d="M2039 4324 c-7 -9 -13 -31 -13 -49 0 -18 6 -40 13 -49 24 -28 101
-16 101 16 0 12 -34 10 -46 -2 -8 -8 -15 -6 -24 5 -11 13 -7 15 29 15 37 0 41
2 41 24 0 14 -7 32 -16 40 -20 21 -68 20 -85 0z m61 -19 c11 -13 8 -15 -15
-15 -23 0 -26 2 -15 15 7 8 14 15 15 15 1 0 8 -7 15 -15z"/>
<path d="M2170 4273 c0 -47 4 -63 14 -63 9 0 15 16 19 46 5 44 21 69 39 58 4
-3 8 -27 8 -55 0 -42 3 -49 20 -49 18 0 20 7 20 54 0 31 -5 58 -12 64 -7 6
-34 10 -60 10 l-48 -1 0 -64z"/>
<path d="M2329 4324 c-7 -9 -13 -31 -13 -49 0 -18 6 -40 13 -49 24 -28 101
-16 101 16 0 12 -34 10 -46 -2 -8 -8 -15 -6 -24 5 -11 13 -7 15 29 15 37 0 41
2 41 24 0 14 -7 32 -16 40 -20 21 -68 20 -85 0z m61 -19 c11 -13 8 -15 -15
-15 -23 0 -26 2 -15 15 7 8 14 15 15 15 1 0 8 -7 15 -15z"/>
<path d="M2460 4274 c0 -57 2 -64 20 -64 17 0 20 7 20 46 0 37 4 47 20 51 37
10 23 32 -20 31 l-40 0 0 -64z"/>
<path d="M2573 4333 c-20 -8 -16 -36 5 -30 9 2 23 6 31 8 7 2 16 -2 18 -8 3
-8 -4 -13 -15 -13 -11 0 -30 -9 -43 -19 -20 -16 -22 -23 -13 -38 8 -13 25 -18
63 -19 l51 -2 0 45 c0 62 -14 83 -53 82 -18 0 -38 -3 -44 -6z m57 -77 c0 -17
-27 -29 -35 -16 -4 6 -3 15 0 20 9 15 35 12 35 -4z"/>
<path d="M1890 4000 c0 -83 1 -90 20 -90 17 0 20 7 20 49 0 32 5 51 14 54 22
9 36 -14 36 -60 0 -32 4 -43 15 -43 11 0 15 13 15 54 0 61 -15 81 -55 74 -22
-5 -25 -2 -25 23 0 22 -5 29 -20 29 -19 0 -20 -7 -20 -90z"/>
<path d="M2410 4060 c0 -27 -2 -29 -30 -24 -39 8 -60 -10 -60 -53 0 -59 13
-72 70 -71 l50 1 0 89 c0 72 -3 88 -15 88 -10 0 -15 -10 -15 -30z m-5 -70 c9
-28 -5 -51 -29 -48 -13 2 -22 12 -24 26 -7 46 39 65 53 22z"/>
<path d="M2056 4024 c-9 -8 -16 -31 -16 -49 0 -18 7 -41 16 -49 20 -20 68 -21
84 -1 18 21 5 30 -24 17 -19 -9 -27 -8 -36 4 -11 12 -6 14 27 14 22 0 42 3 46
6 8 8 -11 57 -26 66 -20 13 -55 9 -71 -8z m64 -25 c0 -5 -12 -9 -26 -9 -22 0
-24 2 -14 14 12 15 40 11 40 -5z"/>
<path d="M2190 4025 c-18 -22 -5 -30 25 -17 16 8 26 8 31 1 8 -13 6 -14 -31
-26 -24 -8 -30 -15 -30 -39 0 -28 1 -29 55 -31 l55 -2 -4 52 c-1 29 -8 58 -13
65 -14 17 -73 15 -88 -3z m70 -64 c0 -5 -7 -14 -15 -21 -12 -10 -19 -10 -28
-1 -9 9 -9 14 3 21 19 12 40 13 40 1z"/>
<path d="M2486 4024 c-9 -8 -16 -31 -16 -49 0 -18 7 -41 16 -49 20 -20 68 -21
84 -1 18 21 5 30 -24 17 -19 -9 -27 -8 -36 4 -11 12 -6 14 27 14 22 0 42 3 46
6 8 8 -11 57 -26 66 -20 13 -55 9 -71 -8z m64 -25 c0 -5 -12 -9 -26 -9 -22 0
-24 2 -14 14 12 15 40 11 40 -5z"/>
<path d="M2610 3974 c0 -57 2 -64 20 -64 17 0 20 7 20 46 0 37 4 47 19 51 11
3 22 11 25 18 3 10 -7 13 -40 13 l-44 0 0 -64z"/>
<path d="M3280 4145 l0 -515 860 0 860 0 0 515 0 515 -860 0 -860 0 0 -515z
m1700 0 l0 -505 -845 0 -845 0 0 505 0 505 845 0 845 0 0 -505z"/>
<path d="M3515 4364 c-54 -58 -18 -154 58 -154 33 0 67 24 67 48 0 17 -25 15
-40 -3 -30 -36 -70 -10 -70 45 0 57 34 77 72 43 14 -12 21 -14 30 -5 9 9 7 16
-7 32 -27 30 -80 27 -110 -6z"/>
<path d="M4272 4378 c-7 -7 -12 -18 -12 -25 0 -7 -4 -13 -10 -13 -5 0 -10 -7
-10 -15 0 -8 5 -15 10 -15 6 0 10 -22 10 -50 0 -43 3 -50 20 -50 17 0 20 7 20
50 0 28 5 50 10 50 14 0 12 27 -2 34 -9 3 -8 8 5 16 9 6 17 15 17 20 0 14 -44
12 -58 -2z"/>
<path d="M3687 4322 c-22 -25 -21 -75 1 -95 27 -25 78 -22 96 5 34 48 7 108
-48 108 -19 0 -40 -8 -49 -18z m71 -28 c15 -26 3 -54 -23 -54 -25 0 -39 23
-30 51 8 23 41 25 53 3z"/>
<path d="M3830 4274 c0 -50 3 -64 15 -64 11 0 15 12 15 44 0 41 19 74 33 59 4
-3 7 -28 7 -55 0 -41 3 -48 19 -48 17 0 20 8 23 47 2 36 7 49 21 51 14 3 17
-4 17 -47 0 -44 3 -51 20 -51 17 0 20 7 20 46 0 25 -5 54 -10 65 -11 20 -54
26 -65 9 -5 -7 -11 -8 -19 -1 -6 5 -31 10 -54 9 l-42 0 0 -64z"/>
<path d="M4056 4318 c-34 -49 -7 -108 49 -108 24 0 38 6 45 20 9 17 8 20 -8
20 -10 0 -23 -5 -29 -11 -6 -6 -16 -8 -22 -5 -23 14 -10 26 29 26 35 0 40 3
40 23 0 53 -75 77 -104 35z m64 -18 c0 -5 -9 -10 -20 -10 -11 0 -20 5 -20 10
0 6 9 10 20 10 11 0 20 -4 20 -10z"/>
<path d="M4340 4274 c0 -57 2 -64 20 -64 17 0 20 7 20 46 0 37 4 47 20 51 37
10 23 32 -20 31 l-40 0 0 -64z"/>
<path d="M4451 4314 c-26 -33 -27 -58 -1 -84 36 -36 108 -18 111 28 6 76 -66
112 -110 56z m74 -39 c0 -25 -4 -30 -25 -30 -16 0 -26 6 -28 18 -6 30 6 49 30
45 18 -2 23 -9 23 -33z"/>
<path d="M4590 4273 c0 -49 3 -63 15 -63 10 0 15 10 15 28 0 47 11 72 31 72
16 0 19 -8 19 -50 0 -38 4 -50 15 -50 11 0 15 11 15 38 0 45 13 67 34 59 11
-5 16 -19 16 -52 0 -33 4 -45 15 -45 19 0 21 102 3 118 -7 5 -50 10 -95 9
l-83 0 0 -64z"/>
<path d="M3530 4000 c0 -70 3 -90 14 -90 9 0 15 16 19 46 5 44 21 69 39 58 4
-3 8 -27 8 -55 0 -42 3 -49 20 -49 18 0 20 7 20 54 0 63 -15 81 -60 72 -28 -5
-30 -3 -30 24 0 20 -5 30 -15 30 -12 0 -15 -17 -15 -90z"/>
<path d="M3697 4022 c-22 -25 -21 -75 1 -95 41 -37 112 -6 112 48 0 55 -77 87
-113 47z m68 -47 c0 -25 -4 -30 -25 -30 -16 0 -26 6 -28 18 -6 30 6 49 30 45
18 -2 23 -9 23 -33z"/>
<path d="M3830 3974 c0 -57 2 -64 20 -64 17 0 20 7 20 49 0 33 5 51 14 54 21
8 26 -2 26 -55 0 -41 3 -48 20 -48 17 0 20 7 20 50 0 43 3 50 20 50 17 0 20
-7 20 -50 0 -38 4 -50 15 -50 13 0 15 11 13 63 l-3 62 -92 1 -93 1 0 -63z"/>
<path d="M4067 4022 c-22 -25 -21 -75 1 -95 23 -21 66 -22 82 -2 18 21 4 32
-21 17 -20 -13 -39 -9 -39 9 0 5 16 9 35 9 43 0 54 20 31 55 -20 30 -65 34
-89 7z m63 -23 c0 -5 -9 -9 -20 -9 -19 0 -26 11 -14 23 8 8 34 -3 34 -14z"/>
<path d="M4190 3949 c0 -82 1 -89 20 -89 15 0 20 7 20 29 0 25 3 28 25 23 35
-6 65 23 65 63 0 44 -25 63 -82 63 l-48 0 0 -89z m92 44 c7 -33 -4 -54 -26
-51 -37 5 -34 68 3 68 11 0 21 -8 23 -17z"/>
<path d="M4353 4025 c-8 -22 5 -31 25 -19 18 11 42 8 42 -6 0 -4 -12 -10 -27
-13 -45 -10 -56 -22 -49 -51 6 -23 10 -25 59 -25 l53 1 -4 57 c-3 31 -10 59
-16 63 -21 14 -76 9 -83 -7z m67 -69 c0 -14 -29 -31 -38 -22 -2 3 -2 12 1 21
8 19 37 20 37 1z"/>
<path d="M4496 4021 c-21 -23 -20 -60 0 -90 13 -18 23 -22 45 -17 21 4 29 2
29 -8 0 -19 -21 -25 -43 -14 -10 5 -25 8 -34 6 -30 -6 14 -38 52 -38 48 0 65
28 65 111 l0 67 -49 0 c-34 1 -54 -4 -65 -17z m72 -50 c-4 -38 -42 -36 -46 3
-2 16 2 32 9 37 20 12 40 -11 37 -40z"/>
<path d="M4646 4018 c-34 -49 -7 -108 49 -108 24 0 38 6 45 20 9 17 8 20 -8
20 -10 0 -23 -5 -29 -11 -6 -6 -16 -8 -22 -5 -23 14 -10 26 29 26 35 0 40 3
40 23 0 53 -75 77 -104 35z m64 -18 c0 -5 -9 -10 -20 -10 -11 0 -20 5 -20 10
0 6 9 10 20 10 11 0 20 -4 20 -10z"/>
<path d="M5130 4145 l0 -515 860 0 860 0 0 515 0 515 -860 0 -860 0 0 -515z
m1700 0 l0 -505 -842 2 -843 3 -3 503 -2 502 845 0 845 0 0 -505z"/>
<path d="M5630 4225 c0 -9 9 -15 25 -15 24 0 25 -2 25 -75 0 -68 2 -75 20 -75
18 0 20 7 20 75 0 73 1 75 25 75 16 0 25 6 25 15 0 12 -14 15 -70 15 -56 0
-70 -3 -70 -15z"/>
<path d="M5786 4174 c-9 -8 -16 -31 -16 -49 0 -18 7 -41 16 -49 20 -20 68 -21
84 -1 18 21 5 30 -24 17 -19 -9 -27 -8 -36 4 -11 12 -6 14 27 14 22 0 42 3 46
6 8 8 -11 57 -26 66 -20 13 -55 9 -71 -8z m64 -25 c0 -5 -12 -9 -26 -9 -22 0
-24 2 -14 14 12 15 40 11 40 -5z"/>
<path d="M5910 4124 c0 -57 2 -64 20 -64 17 0 20 7 20 46 0 37 4 47 19 51 11
3 22 11 25 18 3 10 -7 13 -40 13 l-44 0 0 -64z"/>
<path d="M6010 4124 c0 -49 3 -64 14 -64 11 0 16 14 18 48 3 39 6 47 23 47 17
0 20 -8 23 -47 4 -66 30 -66 34 -1 2 36 7 49 21 51 14 3 17 -4 17 -47 0 -44 3
-51 20 -51 17 0 20 7 20 53 0 29 -5 58 -12 65 -15 15 -55 16 -63 2 -4 -7 -11
-8 -18 -2 -7 5 -31 10 -54 9 l-43 0 0 -63z"/>
<path d="M6243 4183 c-7 -2 -13 -16 -13 -29 0 -24 10 -31 65 -49 19 -6 19 -7
2 -16 -13 -8 -22 -7 -32 1 -8 6 -22 10 -31 8 -30 -5 12 -38 50 -38 67 0 78 53
16 77 -27 11 -37 20 -31 26 7 7 16 6 26 -3 18 -15 42 0 31 19 -7 11 -60 14
-83 4z"/>
<path d="M12790 4115 l0 -515 860 0 860 0 0 515 0 515 -860 0 -860 0 0 -515z
m1710 -5 l0 -500 -845 0 -845 0 0 500 0 500 845 0 845 0 0 -500z"/>
<path d="M13476 4342 c-6 -10 -66 -161 -66 -167 0 -15 40 -2 45 15 5 15 15 20
40 20 24 0 38 -6 45 -20 6 -11 19 -20 29 -20 17 0 16 8 -17 90 -26 66 -40 90
-53 90 -10 0 -20 -4 -23 -8z m33 -72 c9 -28 8 -30 -14 -30 -22 0 -23 2 -14 30
6 17 12 30 14 30 2 0 8 -13 14 -30z"/>
<path d="M13690 4322 c0 -26 -3 -28 -28 -24 -38 5 -62 -20 -62 -63 0 -46 21
-64 75 -63 l45 1 0 88 c0 72 -3 89 -15 89 -10 0 -15 -10 -15 -28z m-2 -91 c-5
-43 -57 -38 -58 6 0 6 7 19 16 28 22 21 46 1 42 -34z"/>
<path d="M13840 4321 c0 -25 -3 -28 -25 -23 -53 10 -84 -56 -50 -105 12 -18
25 -22 65 -21 l50 0 0 89 c0 82 -1 89 -20 89 -15 0 -20 -7 -20 -29z m-2 -90
c-2 -18 -10 -27 -25 -29 -20 -3 -23 1 -23 31 0 20 6 37 13 40 20 7 38 -14 35
-42z"/>
<path d="M13410 4021 c0 -25 -3 -28 -25 -23 -53 10 -84 -56 -50 -105 12 -18
25 -22 65 -21 l50 0 0 89 c0 82 -1 89 -20 89 -15 0 -20 -7 -20 -29z m-2 -90
c-2 -18 -10 -27 -25 -29 -20 -3 -23 1 -23 31 0 20 6 37 13 40 20 7 38 -14 35
-42z"/>
<path d="M13567 4043 c-4 -3 -7 -16 -7 -28 0 -18 -5 -21 -28 -17 -46 6 -74
-50 -49 -98 11 -22 20 -25 65 -26 l52 -2 0 89 c0 68 -3 89 -13 89 -8 0 -17 -3
-20 -7z m-7 -110 c0 -30 -3 -34 -22 -31 -26 3 -37 41 -18 63 19 23 40 6 40
-32z"/>
<path d="M13203 3993 c-20 -8 -16 -36 5 -30 9 2 23 6 31 8 7 2 16 -2 18 -8 3
-8 -4 -13 -15 -13 -11 0 -30 -9 -43 -19 -20 -16 -22 -23 -13 -38 8 -13 25 -18
63 -19 l51 -2 0 45 c0 62 -14 83 -53 82 -18 0 -38 -3 -44 -6z m57 -77 c0 -17
-27 -29 -35 -16 -4 6 -3 15 0 20 9 15 35 12 35 -4z"/>
<path d="M13630 3934 c0 -57 2 -64 20 -64 17 0 20 7 20 46 0 37 4 47 20 51 37
10 23 32 -20 31 l-40 0 0 -64z"/>
<path d="M13736 3978 c-34 -49 -7 -108 49 -108 24 0 38 6 45 20 9 17 8 20 -8
20 -10 0 -23 -5 -29 -11 -6 -6 -16 -8 -22 -5 -23 14 -10 26 29 26 35 0 40 3
40 23 0 53 -75 77 -104 35z m64 -18 c0 -5 -9 -10 -20 -10 -11 0 -20 5 -20 10
0 6 9 10 20 10 11 0 20 -4 20 -10z"/>
<path d="M13870 3980 c-14 -26 -6 -39 38 -57 26 -11 32 -17 23 -26 -8 -8 -14
-8 -23 1 -13 13 -48 16 -48 4 0 -18 26 -32 60 -32 71 0 84 52 20 77 -27 11
-37 20 -31 26 7 7 16 6 26 -3 12 -10 19 -10 28 -1 16 16 -7 31 -50 31 -22 0
-36 -6 -43 -20z"/>
<path d="M14010 3985 c-12 -15 -5 -55 10 -55 5 0 21 -5 36 -10 18 -7 24 -14
17 -21 -7 -7 -19 -6 -37 2 -31 14 -44 6 -26 -16 28 -34 120 -6 106 32 -3 8 -6
16 -6 18 0 3 -19 9 -41 15 -31 9 -39 14 -30 23 9 9 16 8 32 -1 25 -16 45 -6
28 14 -15 18 -73 18 -89 -1z"/>
<path d="M7085 4588 c-3 -7 -4 -240 -3 -518 l3 -505 858 -3 857 -2 0 520 0
520 -855 0 c-675 0 -857 -3 -860 -12z m1705 -508 l0 -500 -845 0 -845 0 0 500
0 500 845 0 845 0 0 -500z"/>
<path d="M7557 4302 c-33 -37 -11 -71 56 -88 19 -4 27 -12 25 -23 -4 -22 -49
-27 -60 -7 -11 20 -38 21 -38 2 0 -45 91 -64 125 -26 29 33 10 72 -43 88 -46
15 -57 42 -17 42 14 0 25 -4 25 -10 0 -5 9 -10 20 -10 26 0 26 26 1 40 -30 16
-76 12 -94 -8z"/>
<path d="M8220 4230 c0 -83 1 -90 20 -90 17 0 20 7 20 49 0 32 5 51 14 54 22
9 36 -14 36 -60 0 -32 4 -43 15 -43 11 0 15 13 15 54 0 61 -15 81 -55 74 -22
-5 -25 -2 -25 23 0 22 -5 29 -20 29 -19 0 -20 -7 -20 -90z"/>
<path d="M7716 4248 c-34 -49 -7 -108 49 -108 24 0 38 6 45 20 9 17 8 20 -8
20 -10 0 -23 -5 -29 -11 -6 -6 -16 -8 -22 -5 -23 14 -10 26 29 26 35 0 40 3
40 23 0 53 -75 77 -104 35z m64 -18 c0 -5 -9 -10 -20 -10 -11 0 -20 5 -20 10
0 6 9 10 20 10 11 0 20 -4 20 -10z"/>
<path d="M7853 4255 c-8 -22 5 -31 25 -19 18 11 42 8 42 -6 0 -4 -12 -10 -27
-13 -45 -10 -56 -22 -49 -51 6 -23 10 -25 59 -25 l53 1 -4 57 c-3 31 -10 59
-16 63 -21 14 -76 9 -83 -7z m67 -69 c0 -14 -29 -31 -38 -22 -2 3 -2 12 1 21
8 19 37 20 37 1z"/>
<path d="M7990 4204 c0 -50 3 -64 15 -64 11 0 15 12 15 45 0 39 3 47 25 55 38
14 30 29 -15 28 l-40 0 0 -64z"/>
<path d="M8097 4252 c-38 -42 -9 -112 46 -112 28 0 61 26 52 41 -8 12 -35 12
-35 -1 0 -18 -38 -11 -45 9 -11 37 4 53 46 46 43 -7 47 -4 23 19 -21 22 -67
20 -87 -2z"/>
<path d="M7717 4013 c-4 -3 -7 -15 -7 -25 0 -10 -4 -18 -10 -18 -5 0 -10 -7
-10 -15 0 -8 5 -15 10 -15 6 0 10 -22 10 -50 0 -38 4 -50 15 -50 11 0 15 12
15 50 0 38 4 50 15 50 8 0 15 7 15 15 0 8 -7 15 -15 15 -8 0 -15 5 -15 10 0 6
7 10 15 10 8 0 15 7 15 15 0 15 -40 21 -53 8z"/>
<path d="M7790 4005 c0 -8 7 -15 15 -15 8 0 15 7 15 15 0 8 -7 15 -15 15 -8 0
-15 -7 -15 -15z"/>
<path d="M8000 3930 c0 -73 3 -90 15 -90 12 0 15 17 15 90 0 73 -3 90 -15 90
-12 0 -15 -17 -15 -90z"/>
<path d="M8150 3990 c0 -27 -2 -29 -30 -24 -39 8 -60 -10 -60 -53 0 -59 13
-72 70 -71 l50 1 0 89 c0 72 -3 88 -15 88 -10 0 -15 -10 -15 -30z m-5 -70 c9
-28 -5 -51 -29 -48 -13 2 -22 12 -24 26 -7 46 39 65 53 22z"/>
<path d="M7790 3905 c0 -51 3 -65 15 -65 12 0 15 14 15 65 0 51 -3 65 -15 65
-12 0 -15 -14 -15 -65z"/>
<path d="M7866 3954 c-9 -8 -16 -31 -16 -49 0 -18 7 -41 16 -49 20 -20 68 -21
84 -1 18 21 5 30 -24 17 -19 -9 -27 -8 -36 4 -11 12 -6 14 27 14 22 0 42 3 46
6 8 8 -11 57 -26 66 -20 13 -55 9 -71 -8z m64 -25 c0 -5 -12 -9 -26 -9 -22 0
-24 2 -14 14 12 15 40 11 40 -5z"/>
<path d="M9040 4080 l0 -520 855 0 855 0 0 520 0 520 -855 0 -855 0 0 -520z
m1700 0 l0 -500 -845 0 -845 0 0 500 0 500 845 0 845 0 0 -500z"/>
<path d="M9440 4230 c0 -83 1 -90 20 -90 16 0 20 7 20 35 0 33 2 35 34 35 35
0 66 27 66 57 0 30 -39 53 -90 53 l-50 0 0 -90z m89 51 c21 -13 5 -41 -24 -41
-20 0 -25 5 -25 25 0 26 22 33 49 16z"/>
<path d="M9940 4291 c0 -25 -3 -28 -25 -23 -53 10 -84 -56 -50 -105 12 -18 25
-22 65 -21 l50 0 0 89 c0 82 -1 89 -20 89 -15 0 -20 -7 -20 -29z m-2 -90 c-2
-18 -10 -27 -25 -29 -20 -3 -23 1 -23 31 0 20 6 37 13 40 20 7 38 -14 35 -42z"/>
<path d="M10310 4300 c-11 -7 -14 -25 -13 -67 2 -31 6 -65 9 -75 7 -22 54 -25
54 -3 0 8 -4 15 -10 15 -5 0 -10 16 -10 35 0 19 5 35 10 35 6 0 10 7 10 15 0
8 -4 15 -10 15 -5 0 -10 9 -10 20 0 22 -7 25 -30 10z"/>
<path d="M9610 4204 c0 -50 3 -64 15 -64 11 0 15 12 15 45 0 39 3 47 25 55 38
14 30 29 -15 28 l-40 0 0 -64z"/>
<path d="M9717 4252 c-22 -25 -21 -75 1 -95 27 -25 78 -22 96 5 34 48 7 108
-48 108 -19 0 -40 -8 -49 -18z m71 -28 c15 -26 3 -54 -23 -54 -25 0 -39 23
-30 51 8 23 41 25 53 3z"/>
<path d="M10010 4216 c0 -31 5 -58 13 -64 6 -6 33 -10 60 -10 l47 1 0 64 c0
56 -2 63 -20 63 -17 0 -20 -7 -20 -49 0 -34 -5 -51 -15 -55 -19 -7 -35 23 -35
68 0 25 -4 36 -15 36 -11 0 -15 -13 -15 -54z"/>
<path d="M10176 4254 c-9 -8 -16 -31 -16 -49 0 -18 7 -41 16 -49 18 -19 65
-21 82 -4 17 17 15 38 -3 38 -8 0 -15 -5 -15 -11 0 -6 -10 -9 -22 -7 -18 2
-23 10 -23 33 0 28 2 30 38 28 38 -2 45 5 25 25 -17 17 -64 15 -82 -4z"/>
<path d="M9730 3930 c0 -73 3 -90 15 -90 11 0 15 11 15 43 0 46 14 69 36 60 9
-3 14 -22 14 -54 0 -37 4 -49 15 -49 12 0 15 13 15 60 0 55 -2 60 -25 66 -14
3 -32 4 -40 0 -11 -4 -15 2 -15 24 0 20 -5 30 -15 30 -12 0 -15 -17 -15 -90z"/>
<path d="M10163 3990 c-3 -11 -9 -20 -14 -20 -5 0 -9 -7 -9 -15 0 -8 4 -15 9
-15 6 0 11 -21 13 -47 3 -44 5 -48 31 -51 28 -3 38 15 12 24 -21 8 -19 64 3
80 16 12 16 13 0 19 -10 4 -18 16 -18 26 0 25 -20 24 -27 -1z"/>
<path d="M9590 3955 c-12 -15 -5 -55 10 -55 5 0 21 -5 36 -10 18 -7 24 -14 17
-21 -7 -7 -19 -6 -37 2 -31 14 -44 6 -26 -16 28 -34 120 -6 106 32 -3 8 -6 16
-6 18 0 3 -19 9 -41 15 -31 9 -39 14 -30 23 9 9 16 8 32 -1 25 -16 45 -6 28
14 -15 18 -73 18 -89 -1z"/>
<path d="M9887 3952 c-22 -25 -21 -75 1 -95 23 -21 66 -22 82 -2 18 21 4 32
-21 17 -20 -13 -39 -9 -39 9 0 5 16 9 35 9 43 0 54 20 31 55 -20 30 -65 34
-89 7z m63 -23 c0 -5 -9 -9 -20 -9 -19 0 -26 11 -14 23 8 8 34 -3 34 -14z"/>
<path d="M10027 3952 c-22 -25 -21 -75 1 -95 23 -21 66 -22 82 -2 18 21 4 32
-21 17 -20 -13 -39 -9 -39 9 0 5 16 9 35 9 43 0 54 20 31 55 -20 30 -65 34
-89 7z m63 -23 c0 -5 -9 -9 -20 -9 -19 0 -26 11 -14 23 8 8 34 -3 34 -14z"/>
<path d="M10980 4080 l0 -520 855 0 855 0 0 520 0 520 -855 0 -855 0 0 -520z
m1700 0 l0 -500 -845 0 -845 0 0 500 0 500 845 0 845 0 0 -500z"/>
<path d="M11307 4156 c-29 -22 -40 -70 -27 -111 13 -39 35 -55 78 -55 29 0 62
26 62 48 0 17 -25 15 -40 -3 -34 -41 -84 16 -64 72 11 33 39 41 63 19 11 -10
25 -14 35 -10 15 6 15 9 -5 30 -25 27 -73 32 -102 10z"/>
<path d="M11697 4139 c-12 -16 -26 -21 -61 -21 l-46 0 0 -64 c0 -57 2 -64 20
-64 17 0 20 7 20 45 0 34 4 47 18 52 9 4 20 11 24 17 7 10 12 -6 23 -76 5 -32
10 -38 30 -38 16 0 25 6 25 15 0 8 -4 15 -10 15 -5 0 -10 16 -10 35 0 19 5 35
10 35 6 0 10 7 10 15 0 8 -4 15 -10 15 -5 0 -10 9 -10 20 0 26 -15 26 -33 -1z"/>
<path d="M11463 4105 c-8 -22 5 -31 25 -19 18 11 42 8 42 -6 0 -4 -12 -10 -27
-13 -45 -10 -56 -22 -49 -51 6 -23 10 -25 59 -25 l53 1 -4 57 c-3 31 -10 59
-16 63 -21 14 -76 9 -83 -7z m67 -69 c0 -14 -29 -31 -38 -22 -2 3 -2 12 1 21
8 19 37 20 37 1z"/>
<path d="M11840 4029 c0 -82 1 -89 20 -89 15 0 20 7 20 29 0 25 3 28 25 23 35
-6 65 23 65 63 0 44 -25 63 -82 63 l-48 0 0 -89z m92 44 c7 -33 -4 -54 -26
-51 -37 5 -34 68 3 68 11 0 21 -8 23 -17z"/>
<path d="M12003 4105 c-8 -22 5 -31 25 -19 18 11 42 8 42 -6 0 -4 -12 -10 -27
-13 -45 -10 -56 -22 -49 -51 6 -23 10 -25 59 -25 l53 1 -4 57 c-3 31 -10 59
-16 63 -21 14 -76 9 -83 -7z m67 -69 c0 -14 -29 -31 -38 -22 -2 3 -2 12 1 21
8 19 37 20 37 1z"/>
<path d="M12146 4101 c-21 -23 -20 -60 0 -90 13 -18 23 -22 45 -17 21 4 29 2
29 -8 0 -19 -21 -25 -43 -14 -10 5 -25 8 -34 6 -30 -6 14 -38 52 -38 48 0 65
28 65 111 l0 67 -49 0 c-34 1 -54 -4 -65 -17z m72 -50 c-4 -38 -42 -36 -46 3
-2 16 2 32 9 37 20 12 40 -11 37 -40z"/>
<path d="M12296 4098 c-34 -49 -7 -108 49 -108 24 0 38 6 45 20 9 17 8 20 -8
20 -10 0 -23 -5 -29 -11 -6 -6 -16 -8 -22 -5 -23 14 -10 26 29 26 35 0 40 3
40 23 0 53 -75 77 -104 35z m64 -18 c0 -5 -9 -10 -20 -10 -11 0 -20 5 -20 10
0 6 9 10 20 10 11 0 20 -4 20 -10z"/>
<path d="M15112 3894 c-15 -11 -22 -25 -22 -50 0 -37 8 -43 105 -76 70 -24 53
-83 -23 -81 -26 1 -42 8 -57 27 -25 31 -35 33 -35 7 0 -57 119 -83 165 -36 49
48 24 94 -64 119 -49 14 -71 29 -71 52 0 2 11 11 25 20 30 20 82 11 90 -17 7
-22 35 -26 35 -5 0 45 -102 73 -148 40z"/>
<path d="M15720 3895 c0 -8 7 -15 15 -15 8 0 15 7 15 15 0 8 -7 15 -15 15 -8
0 -15 -7 -15 -15z"/>
<path d="M15333 3893 c-7 -3 -13 -15 -13 -28 0 -13 -6 -26 -12 -29 -10 -5 -10
-7 0 -12 8 -4 12 -29 12 -73 0 -69 10 -91 42 -91 22 0 24 16 3 24 -11 4 -15
22 -15 71 0 51 3 65 15 65 8 0 15 5 15 10 0 6 -6 10 -14 10 -9 0 -16 12 -18
28 -2 18 -8 27 -15 25z"/>
<path d="M15438 3830 c-27 -16 -41 -74 -28 -115 13 -39 35 -55 75 -55 39 0 62
16 74 51 14 40 -2 104 -29 119 -24 13 -70 12 -92 0z m86 -32 c46 -66 -19 -153
-76 -101 -23 20 -24 80 -1 105 22 25 59 23 77 -4z"/>
<path d="M15610 3750 c0 -53 4 -90 10 -90 6 0 10 25 10 56 0 64 13 94 39 94
11 0 21 7 25 15 7 19 -34 21 -52 3 -9 -9 -12 -9 -12 0 0 7 -4 12 -10 12 -6 0
-10 -37 -10 -90z"/>
<path d="M15720 3750 c0 -73 3 -90 15 -90 12 0 15 17 15 90 0 73 -3 90 -15 90
-12 0 -15 -17 -15 -90z"/>
<path d="M15819 3821 c-20 -16 -24 -29 -24 -71 0 -42 4 -55 24 -71 31 -26 85
-25 112 2 17 17 19 23 8 30 -8 5 -18 1 -27 -12 -25 -36 -92 -12 -92 34 0 14
11 17 65 17 57 0 65 2 65 19 0 10 -9 30 -21 45 -25 32 -75 35 -110 7z m89 -13
c26 -26 13 -38 -38 -38 -52 0 -60 8 -34 34 18 19 55 21 72 4z"/>
<path d="M16008 3829 c-21 -12 -24 -52 -5 -66 6 -6 29 -16 50 -23 42 -13 58
-37 36 -51 -25 -15 -57 -10 -73 13 -14 20 -16 20 -22 3 -15 -39 68 -61 114
-29 41 29 19 75 -43 90 -39 9 -55 22 -48 40 7 20 60 18 72 -3 7 -13 13 -15 21
-7 30 30 -59 59 -102 33z"/>
<path d="M1430 2985 l0 -515 855 0 855 0 0 515 0 515 -855 0 -855 0 0 -515z
m1700 -5 l0 -500 -845 0 -845 0 0 500 0 500 845 0 845 0 0 -500z"/>
<path d="M1856 3189 c-54 -64 -17 -148 67 -149 59 0 77 14 77 60 0 40 0 40
-40 40 -29 0 -40 -4 -40 -15 0 -8 9 -15 20 -15 23 0 27 -28 5 -36 -28 -11 -64
5 -71 31 -16 63 34 108 76 70 10 -9 24 -14 29 -10 31 18 -9 55 -59 55 -30 0
-43 -6 -64 -31z"/>
<path d="M2700 3130 c0 -73 3 -90 15 -90 12 0 15 17 15 90 0 73 -3 90 -15 90
-12 0 -15 -17 -15 -90z"/>
<path d="M2039 3154 c-7 -9 -13 -31 -13 -49 0 -18 6 -40 13 -49 24 -28 101
-16 101 16 0 12 -34 10 -46 -2 -8 -8 -15 -6 -24 5 -11 13 -7 15 29 15 37 0 41
2 41 24 0 14 -7 32 -16 40 -20 21 -68 20 -85 0z m61 -19 c11 -13 8 -15 -15
-15 -23 0 -26 2 -15 15 7 8 14 15 15 15 1 0 8 -7 15 -15z"/>
<path d="M2170 3103 c0 -47 4 -63 14 -63 9 0 15 16 19 46 5 44 21 69 39 58 4
-3 8 -27 8 -55 0 -42 3 -49 20 -49 18 0 20 7 20 54 0 31 -5 58 -12 64 -7 6
-34 10 -60 10 l-48 -1 0 -64z"/>
<path d="M2329 3154 c-7 -9 -13 -31 -13 -49 0 -18 6 -40 13 -49 24 -28 101
-16 101 16 0 12 -34 10 -46 -2 -8 -8 -15 -6 -24 5 -11 13 -7 15 29 15 37 0 41
2 41 24 0 14 -7 32 -16 40 -20 21 -68 20 -85 0z m61 -19 c11 -13 8 -15 -15
-15 -23 0 -26 2 -15 15 7 8 14 15 15 15 1 0 8 -7 15 -15z"/>
<path d="M2460 3104 c0 -57 2 -64 20 -64 17 0 20 7 20 46 0 37 4 47 20 51 37
10 23 32 -20 31 l-40 0 0 -64z"/>
<path d="M2573 3163 c-20 -8 -16 -36 5 -30 9 2 23 6 31 8 7 2 16 -2 18 -8 3
-8 -4 -13 -15 -13 -11 0 -30 -9 -43 -19 -20 -16 -22 -23 -13 -38 8 -13 25 -18
63 -19 l51 -2 0 45 c0 62 -14 83 -53 82 -18 0 -38 -3 -44 -6z m57 -77 c0 -17
-27 -29 -35 -16 -4 6 -3 15 0 20 9 15 35 12 35 -4z"/>
<path d="M1920 2830 c0 -72 3 -90 14 -90 10 0 16 13 18 38 3 35 5 37 41 40 49
4 44 26 -6 30 -29 3 -37 7 -37 23 0 16 7 19 45 19 33 0 45 4 45 15 0 12 -13
15 -60 15 l-60 0 0 -90z"/>
<path d="M2375 2887 c-12 -19 -13 -34 -5 -82 5 -33 10 -61 10 -62 0 -2 11 -3
25 -3 16 0 25 6 25 15 0 8 -4 15 -10 15 -5 0 -10 16 -10 35 0 19 5 35 10 35 6
0 10 7 10 15 0 8 -4 15 -10 15 -5 0 -10 9 -10 20 0 27 -16 25 -35 -3z"/>
<path d="M2076 2848 c-34 -48 -7 -108 48 -108 19 0 40 8 49 18 22 25 21 75 -1
95 -27 25 -78 22 -96 -5z m79 -27 c9 -29 -5 -52 -29 -49 -37 5 -34 68 3 68 11
0 22 -8 26 -19z"/>
<path d="M2231 2844 c-26 -33 -27 -58 -1 -84 36 -36 108 -18 111 28 6 76 -66
112 -110 56z m74 -39 c0 -25 -4 -30 -25 -30 -16 0 -26 6 -28 18 -6 30 6 49 30
45 18 -2 23 -9 23 -33z"/>
<path d="M2466 2854 c-9 -8 -16 -31 -16 -49 0 -18 7 -41 16 -49 20 -20 68 -21
84 -1 18 21 5 30 -24 17 -19 -9 -27 -8 -36 4 -11 12 -6 14 27 14 22 0 42 3 46
6 8 8 -11 57 -26 66 -20 13 -55 9 -71 -8z m64 -25 c0 -5 -12 -9 -26 -9 -22 0
-24 2 -14 14 12 15 40 11 40 -5z"/>
<path d="M2590 2804 c0 -57 2 -64 20 -64 17 0 20 7 20 46 0 37 4 47 20 51 37
10 23 32 -20 31 l-40 0 0 -64z"/>
<path d="M3280 2915 l0 -515 860 0 860 0 0 515 0 515 -860 0 -860 0 0 -515z
m1700 0 l0 -505 -845 0 -845 0 0 505 0 505 845 0 845 0 0 -505z"/>
<path d="M3650 3138 c1 -7 9 -47 19 -88 14 -60 22 -76 38 -78 17 -3 23 7 38
60 l18 63 14 -50 c8 -27 16 -56 18 -62 3 -7 13 -13 24 -13 15 0 22 14 36 73 9
39 19 80 22 90 3 12 -1 17 -15 17 -16 0 -22 -9 -27 -42 -12 -73 -22 -77 -35
-15 -11 49 -17 57 -36 57 -18 0 -24 -8 -34 -50 -7 -27 -16 -50 -20 -50 -4 0
-12 21 -16 47 -6 33 -15 49 -27 51 -9 2 -17 -2 -17 -10z"/>
<path d="M3900 3060 c0 -72 3 -90 14 -90 11 0 16 14 18 48 3 40 6 47 26 50 20
3 22 0 22 -47 0 -44 3 -51 20 -51 17 0 20 7 20 48 0 64 -17 87 -58 79 -30 -6
-32 -5 -32 23 0 20 -5 30 -15 30 -12 0 -15 -17 -15 -90z"/>
<path d="M4061 3074 c-26 -33 -27 -58 -1 -84 36 -36 108 -18 111 28 6 76 -66
112 -110 56z m74 -39 c0 -25 -4 -30 -25 -30 -16 0 -26 6 -28 18 -6 30 6 49 30
45 18 -2 23 -9 23 -33z"/>
<path d="M4280 3085 c-18 -21 -5 -30 24 -17 23 10 36 7 36 -9 0 -4 -13 -10
-30 -14 -35 -8 -52 -32 -39 -57 7 -13 21 -17 59 -16 l50 1 0 52 c0 28 -5 56
-12 63 -17 17 -73 15 -88 -3z m60 -69 c0 -21 -20 -30 -33 -17 -9 9 -8 14 3 21
21 14 30 12 30 -4z"/>
<path d="M4410 3034 c0 -50 3 -64 15 -64 10 0 15 10 15 28 0 47 11 72 31 72
11 0 19 6 19 14 0 11 -12 15 -40 14 l-40 0 0 -64z"/>
<path d="M4517 3082 c-22 -25 -21 -75 1 -95 23 -21 66 -22 82 -2 18 21 4 32
-21 17 -20 -13 -39 -9 -39 9 0 5 16 9 35 9 43 0 54 20 31 55 -20 30 -65 34
-89 7z m63 -23 c0 -5 -9 -9 -20 -9 -19 0 -26 11 -14 23 8 8 34 -3 34 -14z"/>
<path d="M4259 2830 c-21 -17 -22 -21 -9 -30 11 -7 18 -5 26 5 6 8 21 15 33
15 27 0 28 -31 1 -55 -22 -20 -27 -45 -7 -45 14 1 67 68 67 86 0 18 -40 44
-66 44 -12 0 -32 -9 -45 -20z"/>
<path d="M3901 2788 c0 -7 8 -35 18 -63 22 -63 45 -69 62 -18 l13 38 9 -37 c6
-27 14 -38 27 -38 17 0 21 8 55 118 3 7 -4 12 -15 12 -14 0 -21 -9 -26 -35 -7
-40 -19 -38 -27 5 -5 21 -12 30 -26 30 -15 0 -21 -10 -27 -42 l-7 -43 -14 43
c-13 38 -44 60 -42 30z"/>
<path d="M4116 2784 c-9 -8 -16 -31 -16 -49 0 -18 7 -41 16 -49 20 -20 68 -21
84 -1 18 21 5 30 -24 17 -19 -9 -27 -8 -36 4 -11 12 -6 14 27 14 22 0 42 3 46
6 8 8 -11 57 -26 66 -20 13 -55 9 -71 -8z m64 -25 c0 -5 -12 -9 -26 -9 -22 0
-24 2 -14 14 12 15 40 11 40 -5z"/>
<path d="M4290 2685 c0 -8 7 -15 15 -15 8 0 15 7 15 15 0 8 -7 15 -15 15 -8 0
-15 -7 -15 -15z"/>
<path d="M5130 2915 l0 -515 860 0 860 0 0 515 0 515 -860 0 -860 0 0 -515z
m1700 0 l0 -505 -845 0 -845 0 0 498 c0 274 3 502 7 505 3 4 384 7 845 7 l838
0 0 -505z"/>
<path d="M5385 2975 c-53 -52 -19 -155 51 -155 33 0 74 28 74 50 0 16 -37 11
-44 -6 -9 -24 -49 -13 -64 19 -11 22 -11 32 0 54 16 33 47 42 64 19 6 -10 18
-14 28 -10 22 8 20 20 -6 38 -33 23 -75 20 -103 -9z"/>
<path d="M5863 2983 c-7 -3 -13 -11 -13 -19 0 -8 -4 -14 -10 -14 -5 0 -10 -7
-10 -15 0 -8 4 -15 9 -15 6 0 11 -21 13 -47 3 -44 5 -48 31 -51 19 -2 27 1 27
12 0 9 -7 16 -15 16 -10 0 -15 11 -15 35 0 24 5 35 15 35 8 0 15 7 15 15 0 8
-6 15 -14 15 -8 0 -16 8 -18 18 -2 11 -9 17 -15 15z"/>
<path d="M6223 2983 c-7 -3 -13 -11 -13 -19 0 -8 -4 -14 -10 -14 -5 0 -10 -7
-10 -15 0 -8 4 -15 9 -15 6 0 11 -21 13 -47 3 -44 5 -48 31 -51 19 -2 27 1 27
12 0 9 -7 16 -15 16 -10 0 -15 11 -15 35 0 24 5 35 15 35 8 0 15 7 15 15 0 8
-6 15 -14 15 -8 0 -16 8 -18 18 -2 11 -9 17 -15 15z"/>
<path d="M5557 2932 c-22 -25 -21 -75 1 -95 41 -37 112 -6 112 48 0 55 -77 87
-113 47z m68 -47 c0 -25 -4 -30 -25 -30 -16 0 -26 6 -28 18 -6 30 6 49 30 45
18 -2 23 -9 23 -33z"/>
<path d="M5696 2943 c-3 -4 -6 -33 -6 -65 0 -51 2 -58 19 -58 17 0 20 8 23 48
3 39 6 47 23 47 17 0 20 -8 23 -47 2 -35 7 -48 18 -48 12 0 14 12 12 63 l-3
62 -52 2 c-28 1 -54 -1 -57 -4z"/>
<path d="M5943 2943 c-20 -8 -16 -36 5 -30 9 2 23 6 31 8 7 2 16 -2 18 -8 3
-8 -4 -13 -15 -13 -11 0 -30 -9 -43 -19 -20 -16 -22 -23 -13 -38 8 -13 25 -18
63 -19 l51 -2 0 45 c0 62 -14 83 -53 82 -18 0 -38 -3 -44 -6z m57 -77 c0 -17
-27 -29 -35 -16 -4 6 -3 15 0 20 9 15 35 12 35 -4z"/>
<path d="M6079 2934 c-17 -21 -17 -78 1 -99 17 -21 79 -16 94 7 15 24 0 34
-29 18 -31 -16 -48 -4 -43 31 3 21 8 24 41 21 20 -2 37 1 37 6 0 32 -77 44
-101 16z"/>
<path d="M6360 2896 c0 -31 5 -58 13 -64 6 -6 33 -10 60 -10 l47 1 0 64 c0 56
-2 63 -20 63 -17 0 -20 -7 -20 -49 0 -34 -5 -51 -15 -55 -19 -7 -35 23 -35 68
0 25 -4 36 -15 36 -11 0 -15 -13 -15 -54z"/>
<path d="M6523 2943 c-7 -2 -13 -16 -13 -29 0 -24 10 -31 65 -49 19 -6 19 -7
2 -16 -13 -8 -22 -7 -32 1 -8 6 -22 10 -31 8 -30 -5 12 -38 50 -38 67 0 78 53
16 77 -27 11 -37 20 -31 26 7 7 16 6 26 -3 18 -15 42 0 31 19 -7 11 -60 14
-83 4z"/>
<path d="M7080 2915 l0 -515 860 0 860 0 0 515 0 515 -860 0 -860 0 0 -515z
m1710 0 l0 -505 -845 0 -845 0 0 505 0 505 845 0 845 0 0 -505z"/>
<path d="M7557 3132 c-33 -37 -11 -71 56 -88 19 -4 27 -12 25 -23 -4 -22 -49
-27 -60 -7 -11 20 -38 21 -38 2 0 -45 91 -64 125 -26 29 33 10 72 -43 88 -46
15 -57 42 -17 42 14 0 25 -4 25 -10 0 -5 9 -10 20 -10 26 0 26 26 1 40 -30 16
-76 12 -94 -8z"/>
<path d="M8220 3060 c0 -83 1 -90 20 -90 17 0 20 7 20 49 0 32 5 51 14 54 22
9 36 -14 36 -60 0 -32 4 -43 15 -43 11 0 15 13 15 54 0 61 -15 81 -55 74 -22
-5 -25 -2 -25 23 0 22 -5 29 -20 29 -19 0 -20 -7 -20 -90z"/>
<path d="M7716 3078 c-34 -49 -7 -108 49 -108 24 0 38 6 45 20 9 17 8 20 -8
20 -10 0 -23 -5 -29 -11 -6 -6 -16 -8 -22 -5 -23 14 -10 26 29 26 35 0 40 3
40 23 0 53 -75 77 -104 35z m64 -18 c0 -5 -9 -10 -20 -10 -11 0 -20 5 -20 10
0 6 9 10 20 10 11 0 20 -4 20 -10z"/>
<path d="M7853 3085 c-8 -22 5 -31 25 -19 18 11 42 8 42 -6 0 -4 -12 -10 -27
-13 -45 -10 -56 -22 -49 -51 6 -23 10 -25 59 -25 l53 1 -4 57 c-3 31 -10 59
-16 63 -21 14 -76 9 -83 -7z m67 -69 c0 -14 -29 -31 -38 -22 -2 3 -2 12 1 21
8 19 37 20 37 1z"/>
<path d="M7990 3034 c0 -50 3 -64 15 -64 11 0 15 12 15 45 0 39 3 47 25 55 38
14 30 29 -15 28 l-40 0 0 -64z"/>
<path d="M8097 3082 c-38 -42 -9 -112 46 -112 28 0 61 26 52 41 -8 12 -35 12
-35 -1 0 -18 -38 -11 -45 9 -11 37 4 53 46 46 43 -7 47 -4 23 19 -21 22 -67
20 -87 -2z"/>
<path d="M7670 2709 c0 -72 3 -89 15 -89 10 0 15 10 15 28 0 26 3 28 28 24 38
-5 62 20 62 63 0 46 -21 64 -75 63 l-45 -1 0 -88z m86 35 c8 -30 -6 -47 -32
-42 -35 6 -30 68 5 68 14 0 23 -9 27 -26z"/>
<path d="M7833 2793 c-20 -8 -16 -36 5 -30 9 2 23 6 31 8 7 2 16 -2 18 -8 3
-8 -4 -13 -15 -13 -11 0 -30 -9 -43 -19 -20 -16 -22 -23 -13 -38 8 -13 25 -18
63 -19 l51 -2 0 45 c0 62 -14 83 -53 82 -18 0 -38 -3 -44 -6z m57 -77 c0 -17
-27 -29 -35 -16 -4 6 -3 15 0 20 9 15 35 12 35 -4z"/>
<path d="M7969 2783 c-17 -20 -16 -77 1 -98 9 -11 24 -15 42 -13 18 3 28 0 28
-8 0 -15 -27 -26 -35 -14 -7 12 -45 13 -45 2 0 -17 26 -32 56 -32 51 0 64 21
64 104 l0 73 -49 1 c-33 0 -54 -4 -62 -15z m69 -47 c-2 -23 -8 -31 -23 -31
-23 0 -33 38 -15 60 19 23 41 6 38 -29z"/>
<path d="M8119 2784 c-7 -9 -13 -31 -13 -49 0 -18 6 -40 13 -49 24 -28 101
-16 101 16 0 12 -34 10 -46 -2 -8 -8 -15 -6 -24 5 -11 13 -7 15 29 15 37 0 41
2 41 24 0 14 -7 32 -16 40 -20 21 -68 20 -85 0z m61 -19 c11 -13 8 -15 -15
-15 -23 0 -26 2 -15 15 7 8 14 15 15 15 1 0 8 -7 15 -15z"/>
<path d="M9040 2915 l0 -515 855 0 855 0 0 515 0 515 -855 0 -855 0 0 -515z
m1700 0 l0 -505 -845 0 -845 0 0 505 0 505 845 0 845 0 0 -505z"/>
<path d="M9420 3060 c0 -83 1 -90 20 -90 16 0 20 7 20 35 0 46 23 46 52 0 15
-23 31 -35 46 -35 25 0 24 3 -9 51 -18 26 -18 27 1 44 25 23 25 40 0 65 -15
15 -33 20 -75 20 l-55 0 0 -90z m107 44 c7 -19 -13 -34 -44 -34 -18 0 -23 6
-23 25 0 21 5 25 30 25 19 0 33 -6 37 -16z"/>
<path d="M10110 3060 c0 -83 1 -90 20 -90 17 0 20 7 20 49 0 32 5 51 14 54 22
9 36 -14 36 -60 0 -32 4 -43 15 -43 11 0 15 13 15 54 0 61 -15 81 -55 74 -22
-5 -25 -2 -25 23 0 22 -5 29 -20 29 -19 0 -20 -7 -20 -90z"/>
<path d="M9750 3130 c-11 -7 -14 -25 -13 -67 2 -31 6 -65 9 -75 7 -22 54 -25
54 -3 0 8 -4 15 -10 15 -5 0 -10 16 -10 35 0 19 5 35 10 35 6 0 10 7 10 15 0
8 -4 15 -10 15 -5 0 -10 9 -10 20 0 22 -7 25 -30 10z"/>
<path d="M10040 3130 c-11 -7 -14 -25 -13 -67 2 -31 6 -65 9 -75 7 -22 54 -25
54 -3 0 8 -4 15 -10 15 -5 0 -10 16 -10 35 0 19 5 35 10 35 6 0 10 7 10 15 0
8 -4 15 -10 15 -5 0 -10 9 -10 20 0 22 -7 25 -30 10z"/>
<path d="M9613 3093 c-20 -8 -16 -36 5 -30 9 2 23 6 31 8 7 2 16 -2 18 -8 3
-8 -4 -13 -15 -13 -11 0 -30 -9 -43 -19 -20 -16 -22 -23 -13 -38 8 -13 25 -18
63 -19 l51 -2 0 45 c0 62 -14 83 -53 82 -18 0 -38 -3 -44 -6z m57 -77 c0 -17
-27 -29 -35 -16 -4 6 -3 15 0 20 9 15 35 12 35 -4z"/>
<path d="M9829 3084 c-7 -9 -13 -31 -13 -49 0 -18 6 -40 13 -49 24 -28 101
-16 101 16 0 12 -34 10 -46 -2 -8 -8 -15 -6 -24 5 -11 13 -7 15 29 15 37 0 41
2 41 24 0 14 -7 32 -16 40 -20 21 -68 20 -85 0z m61 -19 c11 -13 8 -15 -15
-15 -23 0 -26 2 -15 15 7 8 14 15 15 15 1 0 8 -7 15 -15z"/>
<path d="M10276 3084 c-9 -8 -16 -31 -16 -49 0 -18 7 -41 16 -49 20 -20 68
-21 84 -1 18 21 5 30 -24 17 -19 -9 -27 -8 -36 4 -11 12 -6 14 27 14 22 0 42
3 46 6 8 8 -11 57 -26 66 -20 13 -55 9 -71 -8z m64 -25 c0 -5 -12 -9 -26 -9
-22 0 -24 2 -14 14 12 15 40 11 40 -5z"/>
<path d="M9937 2843 c-4 -3 -7 -16 -7 -28 0 -18 -5 -21 -28 -17 -46 6 -74 -50
-49 -98 11 -22 20 -25 65 -26 l52 -2 0 89 c0 68 -3 89 -13 89 -8 0 -17 -3 -20
-7z m-7 -110 c0 -30 -3 -34 -22 -31 -26 3 -37 41 -18 63 19 23 40 6 40 -32z"/>
<path d="M10303 2820 c-3 -11 -9 -20 -14 -20 -5 0 -9 -7 -9 -15 0 -8 4 -15 9
-15 6 0 11 -21 13 -47 3 -44 5 -48 31 -51 28 -3 38 15 12 24 -21 8 -19 64 3
80 16 12 16 13 0 19 -10 4 -18 16 -18 26 0 25 -20 24 -27 -1z"/>
<path d="M9450 2709 c0 -72 3 -89 15 -89 10 0 15 10 15 28 0 26 3 28 28 24 38
-5 62 20 62 63 0 46 -21 64 -75 63 l-45 -1 0 -88z m86 35 c8 -30 -6 -47 -32
-42 -35 6 -30 68 5 68 14 0 23 -9 27 -26z"/>
<path d="M9600 2734 c0 -50 3 -64 15 -64 10 0 15 10 15 28 0 47 11 72 31 72
11 0 19 6 19 14 0 11 -12 15 -40 14 l-40 0 0 -64z"/>
<path d="M9706 2778 c-34 -48 -7 -108 48 -108 19 0 40 8 49 18 22 25 21 75 -1
95 -27 25 -78 22 -96 -5z m79 -27 c9 -29 -5 -52 -29 -49 -37 5 -34 68 3 68 11
0 22 -8 26 -19z"/>
<path d="M10000 2754 c0 -70 11 -83 70 -82 l50 1 0 64 c0 47 -4 63 -14 63 -9
0 -15 -16 -19 -46 -5 -44 -21 -69 -39 -58 -4 3 -8 27 -8 55 0 42 -3 49 -20 49
-17 0 -20 -7 -20 -46z"/>
<path d="M10167 2782 c-38 -42 -9 -112 46 -112 28 0 61 26 52 41 -8 12 -35 12
-35 -1 0 -18 -38 -11 -45 9 -11 37 4 53 46 46 43 -7 47 -4 23 19 -21 22 -67
20 -87 -2z"/>
<path d="M12790 2885 l0 -515 860 0 860 0 0 515 0 515 -860 0 -860 0 0 -515z
m1708 3 l-3 -503 -842 -3 -843 -2 0 505 0 505 845 0 845 0 -2 -502z"/>
<path d="M13233 3258 c-20 -22 -27 -47 -24 -95 3 -55 90 -84 131 -43 11 11 20
25 20 30 0 16 -37 11 -44 -6 -4 -10 -15 -14 -33 -12 -53 6 -58 101 -6 114 19
5 30 2 39 -10 9 -13 17 -15 30 -8 15 9 15 11 -5 31 -29 29 -81 28 -108 -1z"/>
<path d="M13390 3190 c0 -70 3 -90 14 -90 9 0 15 16 19 46 5 44 21 69 39 58 4
-3 8 -27 8 -55 0 -42 3 -49 20 -49 18 0 20 7 20 54 0 63 -15 81 -60 72 -28 -5
-30 -3 -30 24 0 20 -5 30 -15 30 -12 0 -15 -17 -15 -90z"/>
<path d="M13557 3212 c-22 -25 -21 -75 1 -95 41 -37 112 -6 112 48 0 55 -77
87 -113 47z m68 -47 c0 -25 -4 -30 -25 -30 -16 0 -26 6 -28 18 -6 30 6 49 30
45 18 -2 23 -9 23 -33z"/>
<path d="M13707 3212 c-22 -25 -21 -75 1 -95 27 -25 78 -22 96 5 34 48 7 108
-48 108 -19 0 -40 -8 -49 -18z m71 -28 c15 -26 3 -54 -23 -54 -25 0 -39 23
-30 51 8 23 41 25 53 3z"/>
<path d="M13850 3215 c-12 -15 -5 -55 10 -55 5 0 21 -5 36 -10 18 -7 24 -14
17 -21 -7 -7 -19 -6 -37 2 -31 14 -44 6 -26 -16 28 -34 120 -6 106 32 -3 8 -6
16 -6 18 0 3 -19 9 -41 15 -31 9 -39 14 -30 23 9 9 16 8 32 -1 25 -16 45 -6
28 14 -15 18 -73 18 -89 -1z"/>
<path d="M13997 3212 c-22 -25 -21 -75 1 -95 23 -21 66 -22 82 -2 18 21 4 32
-21 17 -20 -13 -39 -9 -39 9 0 5 16 9 35 9 43 0 54 20 31 55 -20 30 -65 34
-89 7z m63 -23 c0 -5 -9 -9 -20 -9 -19 0 -26 11 -14 23 8 8 34 -3 34 -14z"/>
<path d="M13290 2890 c0 -72 3 -90 14 -90 11 0 16 14 18 48 3 40 6 47 26 50
20 3 22 0 22 -47 0 -44 3 -51 20 -51 17 0 20 7 20 48 0 64 -17 87 -58 79 -30
-6 -32 -5 -32 23 0 20 -5 30 -15 30 -12 0 -15 -17 -15 -90z"/>
<path d="M13440 2965 c0 -8 7 -15 15 -15 8 0 15 7 15 15 0 8 -7 15 -15 15 -8
0 -15 -7 -15 -15z"/>
<path d="M13820 2965 c0 -8 7 -15 15 -15 8 0 15 7 15 15 0 8 -7 15 -15 15 -8
0 -15 -7 -15 -15z"/>
<path d="M13150 2915 c-12 -15 -5 -55 10 -55 5 0 21 -5 36 -10 18 -7 24 -14
17 -21 -7 -7 -19 -6 -37 2 -31 14 -44 6 -26 -16 28 -34 120 -6 106 32 -3 8 -6
16 -6 18 0 3 -19 9 -41 15 -31 9 -39 14 -30 23 9 9 16 8 32 -1 25 -16 45 -6
28 14 -15 18 -73 18 -89 -1z"/>
<path d="M13440 2865 c0 -51 3 -65 15 -65 12 0 15 14 15 65 0 51 -3 65 -15 65
-12 0 -15 -14 -15 -65z"/>
<path d="M13510 2838 c0 -72 3 -88 15 -88 10 0 15 10 15 29 0 28 2 29 33 24
41 -6 59 13 59 62 0 51 -15 64 -73 63 l-49 -1 0 -89z m85 27 c0 -23 -5 -31
-21 -33 -24 -3 -38 20 -28 50 4 13 13 18 27 16 17 -2 22 -10 22 -33z"/>
<path d="M13660 2838 c0 -81 2 -88 20 -88 15 0 20 7 20 28 0 26 3 28 29 24 50
-7 79 58 46 105 -13 18 -25 22 -65 21 l-50 -1 0 -89z m88 24 c3 -30 1 -33 -20
-30 -18 2 -24 10 -26 36 -3 30 -1 33 20 30 18 -2 24 -10 26 -36z"/>
<path d="M13820 2865 c0 -51 3 -65 15 -65 12 0 15 14 15 65 0 51 -3 65 -15 65
-12 0 -15 -14 -15 -65z"/>
<path d="M13880 2863 c0 -56 2 -63 20 -63 17 0 20 7 20 49 0 32 5 51 14 54 22
9 36 -14 36 -60 0 -32 4 -43 15 -43 19 0 21 102 3 118 -7 6 -34 10 -60 10
l-48 -1 0 -64z"/>
<path d="M14045 2914 c-8 -9 -15 -30 -15 -48 0 -51 48 -84 78 -54 9 9 12 7 12
-9 0 -27 -17 -33 -52 -19 -32 12 -46 3 -28 -19 15 -18 81 -20 98 -3 7 7 12 42
12 89 l0 76 -45 1 c-27 1 -50 -5 -60 -14z m73 -53 c-5 -43 -57 -38 -58 6 0 6
7 19 16 28 22 21 46 1 42 -34z"/>
<path d="M13410 2651 c0 -25 -3 -28 -25 -23 -53 10 -84 -56 -50 -105 12 -18
25 -22 65 -21 l50 0 0 89 c0 82 -1 89 -20 89 -15 0 -20 -7 -20 -29z m-2 -90
c-2 -18 -10 -27 -25 -29 -20 -3 -23 1 -23 31 0 20 6 37 13 40 20 7 38 -14 35
-42z"/>
<path d="M13567 2673 c-4 -3 -7 -16 -7 -28 0 -18 -5 -21 -28 -17 -46 6 -74
-50 -49 -98 11 -22 20 -25 65 -26 l52 -2 0 89 c0 68 -3 89 -13 89 -8 0 -17 -3
-20 -7z m-7 -110 c0 -30 -3 -34 -22 -31 -26 3 -37 41 -18 63 19 23 40 6 40
-32z"/>
<path d="M13203 2623 c-20 -8 -16 -36 5 -30 9 2 23 6 31 8 7 2 16 -2 18 -8 3
-8 -4 -13 -15 -13 -11 0 -30 -9 -43 -19 -20 -16 -22 -23 -13 -38 8 -13 25 -18
63 -19 l51 -2 0 45 c0 62 -14 83 -53 82 -18 0 -38 -3 -44 -6z m57 -77 c0 -17
-27 -29 -35 -16 -4 6 -3 15 0 20 9 15 35 12 35 -4z"/>
<path d="M13630 2564 c0 -57 2 -64 20 -64 17 0 20 7 20 46 0 37 4 47 20 51 37
10 23 32 -20 31 l-40 0 0 -64z"/>
<path d="M13736 2608 c-34 -49 -7 -108 49 -108 24 0 38 6 45 20 9 17 8 20 -8
20 -10 0 -23 -5 -29 -11 -6 -6 -16 -8 -22 -5 -23 14 -10 26 29 26 35 0 40 3
40 23 0 53 -75 77 -104 35z m64 -18 c0 -5 -9 -10 -20 -10 -11 0 -20 5 -20 10
0 6 9 10 20 10 11 0 20 -4 20 -10z"/>
<path d="M13870 2610 c-14 -26 -6 -39 38 -57 26 -11 32 -17 23 -26 -8 -8 -14
-8 -23 1 -13 13 -48 16 -48 4 0 -18 26 -32 60 -32 71 0 84 52 20 77 -27 11
-37 20 -31 26 7 7 16 6 26 -3 12 -10 19 -10 28 -1 16 16 -7 31 -50 31 -22 0
-36 -6 -43 -20z"/>
<path d="M14010 2615 c-12 -15 -5 -55 10 -55 5 0 21 -5 36 -10 18 -7 24 -14
17 -21 -7 -7 -19 -6 -37 2 -31 14 -44 6 -26 -16 28 -34 120 -6 106 32 -3 8 -6
16 -6 18 0 3 -19 9 -41 15 -31 9 -39 14 -30 23 9 9 16 8 32 -1 25 -16 45 -6
28 14 -15 18 -73 18 -89 -1z"/>
<path d="M10990 2850 l0 -520 858 2 857 3 0 515 0 515 -857 3 -858 2 0 -520z
m1700 0 l0 -500 -845 0 -845 0 0 500 0 500 845 0 845 0 0 -500z"/>
<path d="M11960 2850 c0 -83 1 -90 20 -90 17 0 20 7 20 49 0 32 5 51 14 54 22
9 36 -14 36 -60 0 -32 4 -43 15 -43 11 0 15 13 15 54 0 61 -15 81 -55 74 -22
-5 -25 -2 -25 23 0 22 -5 29 -20 29 -19 0 -20 -7 -20 -90z"/>
<path d="M11370 2883 c0 -4 10 -33 22 -65 16 -40 28 -58 40 -58 10 0 18 1 18
3 0 2 11 31 24 65 23 58 23 62 6 62 -13 0 -23 -13 -33 -42 -10 -28 -17 -38
-21 -28 -3 8 -10 27 -15 43 -9 23 -41 39 -41 20z"/>
<path d="M11526 2868 c-34 -48 -7 -108 48 -108 19 0 40 8 49 18 22 25 21 75
-1 95 -27 25 -78 22 -96 -5z m79 -27 c9 -29 -5 -52 -29 -49 -37 5 -34 68 3 68
11 0 22 -8 26 -19z"/>
<path d="M11670 2836 c0 -31 5 -58 13 -64 6 -6 33 -10 60 -10 l47 1 0 64 c0
56 -2 63 -20 63 -17 0 -20 -7 -20 -49 0 -34 -5 -51 -15 -55 -19 -7 -35 23 -35
68 0 25 -4 36 -15 36 -11 0 -15 -13 -15 -54z"/>
<path d="M11836 2874 c-9 -8 -16 -31 -16 -49 0 -18 7 -41 16 -49 18 -19 65
-21 82 -4 17 17 15 38 -3 38 -8 0 -15 -5 -15 -11 0 -6 -10 -9 -22 -7 -18 2
-23 10 -23 33 0 28 2 30 38 28 38 -2 45 5 25 25 -17 17 -64 15 -82 -4z"/>
<path d="M12126 2874 c-9 -8 -16 -31 -16 -49 0 -18 7 -41 16 -49 20 -20 68
-21 84 -1 18 21 5 30 -24 17 -19 -9 -27 -8 -36 4 -11 12 -6 14 27 14 22 0 42
3 46 6 8 8 -11 57 -26 66 -20 13 -55 9 -71 -8z m64 -25 c0 -5 -12 -9 -26 -9
-22 0 -24 2 -14 14 12 15 40 11 40 -5z"/>
<path d="M12250 2824 c0 -57 2 -64 20 -64 17 0 20 7 20 46 0 37 4 47 19 51 11
3 22 11 25 18 3 10 -7 13 -40 13 l-44 0 0 -64z"/>
<path d="M410 2286 c0 -8 23 -20 53 -28 l52 -15 -52 -17 c-29 -10 -53 -24 -53
-31 0 -10 17 -7 66 12 l65 25 24 -22 c12 -12 26 -17 29 -12 11 18 -24 41 -117
76 -50 19 -67 22 -67 12z"/>
<path d="M7080 1745 l0 -515 860 0 860 0 0 515 0 515 -860 0 -860 0 0 -515z
m1710 5 l0 -500 -845 0 -845 0 0 500 0 500 845 0 845 0 0 -500z"/>
<path d="M7557 1972 c-33 -37 -11 -71 56 -88 19 -4 27 -12 25 -23 -4 -22 -49
-27 -60 -7 -11 20 -38 21 -38 2 0 -45 91 -64 125 -26 29 33 10 72 -43 88 -46
15 -57 42 -17 42 14 0 25 -4 25 -10 0 -5 9 -10 20 -10 26 0 26 26 1 40 -30 16
-76 12 -94 -8z"/>
<path d="M8220 1900 c0 -83 1 -90 20 -90 17 0 20 7 20 49 0 32 5 51 14 54 22
9 36 -14 36 -60 0 -32 4 -43 15 -43 11 0 15 13 15 54 0 61 -15 81 -55 74 -22
-5 -25 -2 -25 23 0 22 -5 29 -20 29 -19 0 -20 -7 -20 -90z"/>
<path d="M7716 1918 c-34 -49 -7 -108 49 -108 24 0 38 6 45 20 9 17 8 20 -8
20 -10 0 -23 -5 -29 -11 -6 -6 -16 -8 -22 -5 -23 14 -10 26 29 26 35 0 40 3
40 23 0 53 -75 77 -104 35z m64 -18 c0 -5 -9 -10 -20 -10 -11 0 -20 5 -20 10
0 6 9 10 20 10 11 0 20 -4 20 -10z"/>
<path d="M7853 1925 c-8 -22 5 -31 25 -19 18 11 42 8 42 -6 0 -4 -12 -10 -27
-13 -45 -10 -56 -22 -49 -51 6 -23 10 -25 59 -25 l53 1 -4 57 c-3 31 -10 59
-16 63 -21 14 -76 9 -83 -7z m67 -69 c0 -14 -29 -31 -38 -22 -2 3 -2 12 1 21
8 19 37 20 37 1z"/>
<path d="M7990 1874 c0 -50 3 -64 15 -64 11 0 15 12 15 45 0 39 3 47 25 55 38
14 30 29 -15 28 l-40 0 0 -64z"/>
<path d="M8097 1922 c-38 -42 -9 -112 46 -112 28 0 61 26 52 41 -8 12 -35 12
-35 -1 0 -18 -38 -11 -45 9 -11 37 4 53 46 46 43 -7 47 -4 23 19 -21 22 -67
20 -87 -2z"/>
<path d="M7627 1663 c-10 -19 -13 -49 -9 -90 4 -53 7 -63 23 -63 16 0 19 8 19
50 0 28 5 50 10 50 6 0 10 7 10 15 0 8 -4 15 -10 15 -5 0 -10 5 -10 10 0 6 7
10 15 10 8 0 15 7 15 15 0 27 -48 18 -63 -12z"/>
<path d="M7700 1675 c0 -8 9 -15 20 -15 11 0 20 7 20 15 0 8 -9 15 -20 15 -11
0 -20 -7 -20 -15z"/>
<path d="M7770 1600 c0 -83 1 -90 20 -90 19 0 20 7 20 90 0 83 -1 90 -20 90
-19 0 -20 -7 -20 -90z"/>
<path d="M7845 1657 c-12 -19 -13 -34 -5 -82 5 -33 10 -61 10 -62 0 -2 11 -3
25 -3 16 0 25 6 25 15 0 8 -4 15 -10 15 -5 0 -10 16 -10 35 0 19 5 35 10 35 6
0 10 7 10 15 0 8 -4 15 -10 15 -5 0 -10 9 -10 20 0 27 -16 25 -35 -3z"/>
<path d="M7700 1575 c0 -58 2 -65 20 -65 18 0 20 7 20 65 0 58 -2 65 -20 65
-18 0 -20 -7 -20 -65z"/>
<path d="M7936 1624 c-9 -8 -16 -31 -16 -49 0 -18 7 -41 16 -49 20 -20 68 -21
84 -1 18 21 5 30 -24 17 -19 -9 -27 -8 -36 4 -11 12 -6 14 27 14 22 0 42 3 46
6 8 8 -11 57 -26 66 -20 13 -55 9 -71 -8z m64 -25 c0 -5 -12 -9 -26 -9 -22 0
-24 2 -14 14 12 15 40 11 40 -5z"/>
<path d="M8060 1574 c0 -57 2 -64 20 -64 17 0 20 7 20 46 0 37 4 47 20 51 37
10 23 32 -20 31 l-40 0 0 -64z"/>
<path d="M8160 1620 c-14 -26 -6 -39 38 -57 26 -11 32 -17 23 -26 -8 -8 -14
-8 -23 1 -13 13 -48 16 -48 4 0 -18 26 -32 60 -32 71 0 84 52 20 77 -27 11
-37 20 -31 26 7 7 16 6 26 -3 12 -10 19 -10 28 -1 16 16 -7 31 -50 31 -22 0
-36 -6 -43 -20z"/>
<path d="M9040 1745 l0 -515 855 0 855 0 0 515 0 515 -855 0 -855 0 0 -515z
m1700 5 l0 -500 -845 0 -845 0 0 500 0 500 845 0 845 0 0 -500z"/>
<path d="M9367 1826 c-29 -22 -40 -70 -27 -111 13 -39 35 -55 78 -55 29 0 62
26 62 48 0 17 -25 15 -40 -3 -34 -41 -84 16 -64 72 11 33 39 41 63 19 11 -10
25 -14 35 -10 15 6 15 9 -5 30 -25 27 -73 32 -102 10z"/>
<path d="M10413 1810 c-3 -11 -9 -20 -14 -20 -5 0 -9 -7 -9 -15 0 -8 4 -15 9
-15 6 0 11 -21 13 -47 3 -44 5 -48 31 -51 28 -3 38 15 12 24 -21 8 -19 64 3
80 16 12 16 13 0 19 -10 4 -18 16 -18 26 0 25 -20 24 -27 -1z"/>
<path d="M9526 1768 c-34 -48 -7 -108 48 -108 19 0 40 8 49 18 22 25 21 75 -1
95 -27 25 -78 22 -96 -5z m79 -27 c9 -29 -5 -52 -29 -49 -37 5 -34 68 3 68 11
0 22 -8 26 -19z"/>
<path d="M9670 1724 c0 -49 3 -64 14 -64 11 0 16 14 18 48 3 39 6 47 23 47 17
0 20 -8 23 -47 4 -66 30 -66 34 -1 2 36 7 49 21 51 14 3 17 -4 17 -47 0 -44 3
-51 20 -51 17 0 20 7 20 53 0 29 -5 58 -12 65 -15 15 -55 16 -63 2 -4 -7 -11
-8 -18 -2 -7 5 -31 10 -54 9 l-43 0 0 -63z"/>
<path d="M9890 1723 c0 -49 3 -63 15 -63 10 0 15 10 15 28 0 47 11 72 31 72
16 0 19 -8 19 -50 0 -38 4 -50 15 -50 11 0 15 11 15 38 0 45 13 67 34 59 11
-5 16 -19 16 -52 0 -33 4 -45 15 -45 19 0 21 102 3 118 -7 5 -50 10 -95 9
l-83 0 0 -64z"/>
<path d="M10119 1774 c-7 -9 -13 -31 -13 -49 0 -18 6 -40 13 -49 24 -28 101
-16 101 16 0 12 -34 10 -46 -2 -8 -8 -15 -6 -24 5 -11 13 -7 15 29 15 37 0 41
2 41 24 0 14 -7 32 -16 40 -20 21 -68 20 -85 0z m61 -19 c11 -13 8 -15 -15
-15 -23 0 -26 2 -15 15 7 8 14 15 15 15 1 0 8 -7 15 -15z"/>
<path d="M10250 1723 c0 -56 2 -63 20 -63 17 0 20 7 20 49 0 32 5 51 14 54 22
9 36 -14 36 -60 0 -32 4 -43 15 -43 19 0 21 102 3 118 -7 6 -34 10 -60 10
l-48 -1 0 -64z"/>
<path d="M3280 1685 l0 -515 860 0 860 0 0 515 0 515 -860 0 -860 0 0 -515z
m1700 -5 l0 -500 -845 0 -845 0 0 500 0 500 845 0 845 0 0 -500z"/>
<path d="M3870 1830 c0 -73 3 -90 15 -90 12 0 15 17 15 90 0 73 -3 90 -15 90
-12 0 -15 -17 -15 -90z"/>
<path d="M4370 1830 c0 -73 3 -90 15 -90 12 0 15 17 15 90 0 73 -3 90 -15 90
-12 0 -15 -17 -15 -90z"/>
<path d="M3946 1848 c-34 -49 -7 -108 49 -108 24 0 38 6 45 20 9 17 8 20 -8
20 -10 0 -23 -5 -29 -11 -6 -6 -16 -8 -22 -5 -23 14 -10 26 29 26 35 0 40 3
40 23 0 53 -75 77 -104 35z m64 -18 c0 -5 -9 -10 -20 -10 -11 0 -20 5 -20 10
0 6 9 10 20 10 11 0 20 -4 20 -10z"/>
<path d="M4086 1851 c-21 -23 -20 -60 0 -90 13 -18 23 -22 45 -17 21 4 29 2
29 -8 0 -19 -21 -25 -43 -14 -10 5 -25 8 -34 6 -30 -6 14 -38 52 -38 48 0 65
28 65 111 l0 67 -49 0 c-34 1 -54 -4 -65 -17z m72 -50 c-4 -38 -42 -36 -46 3
-2 16 2 32 9 37 20 12 40 -11 37 -40z"/>
<path d="M4243 1863 c-20 -8 -16 -36 5 -30 9 2 23 6 31 8 7 2 16 -2 18 -8 3
-8 -4 -13 -15 -13 -11 0 -30 -9 -43 -19 -20 -16 -22 -23 -13 -38 8 -13 25 -18
63 -19 l51 -2 0 45 c0 62 -14 83 -53 82 -18 0 -38 -3 -44 -6z m57 -77 c0 -17
-27 -29 -35 -16 -4 6 -3 15 0 20 9 15 35 12 35 -4z"/>
<path d="M4180 1605 c0 -8 7 -15 15 -15 8 0 15 7 15 15 0 8 -7 15 -15 15 -8 0
-15 -7 -15 -15z"/>
<path d="M4095 1587 c-12 -19 -13 -34 -5 -82 5 -33 10 -61 10 -62 0 -2 11 -3
25 -3 16 0 25 6 25 15 0 8 -4 15 -10 15 -5 0 -10 16 -10 35 0 19 5 35 10 35 6
0 10 7 10 15 0 8 -4 15 -10 15 -5 0 -10 9 -10 20 0 27 -16 25 -35 -3z"/>
<path d="M3790 1503 c0 -48 3 -63 14 -63 11 0 16 14 18 48 3 40 6 47 26 50 20
3 22 0 22 -47 0 -44 3 -51 20 -51 17 0 20 7 20 39 0 22 -4 51 -10 65 -8 22
-14 25 -60 24 l-50 -1 0 -64z"/>
<path d="M3951 1544 c-26 -33 -27 -58 -1 -84 36 -36 108 -18 111 28 6 76 -66
112 -110 56z m74 -39 c0 -25 -4 -30 -25 -30 -16 0 -26 6 -28 18 -6 30 6 49 30
45 18 -2 23 -9 23 -33z"/>
<path d="M4180 1505 c0 -51 3 -65 15 -65 12 0 15 14 15 65 0 51 -3 65 -15 65
-12 0 -15 -14 -15 -65z"/>
<path d="M4257 1552 c-38 -42 -9 -112 46 -112 28 0 61 26 52 41 -8 12 -35 12
-35 -1 0 -18 -38 -11 -45 9 -11 37 4 53 46 46 43 -7 47 -4 23 19 -21 22 -67
20 -87 -2z"/>
<path d="M4389 1554 c-7 -9 -13 -31 -13 -49 0 -18 6 -40 13 -49 24 -28 101
-16 101 16 0 12 -34 10 -46 -2 -8 -8 -15 -6 -24 5 -11 13 -7 15 29 15 37 0 41
2 41 24 0 14 -7 32 -16 40 -20 21 -68 20 -85 0z m61 -19 c11 -13 8 -15 -15
-15 -23 0 -26 2 -15 15 7 8 14 15 15 15 1 0 8 -7 15 -15z"/>
<path d="M410 2155 c0 -8 -7 -15 -15 -15 -21 0 -19 -12 7 -34 14 -13 23 -15
26 -8 2 7 24 12 52 12 53 0 77 18 65 47 -8 17 -8 17 -12 1 -6 -24 -103 -27
-103 -3 0 8 -4 15 -10 15 -5 0 -10 -7 -10 -15z"/>
<path d="M362 2068 c6 -18 28 -21 28 -4 0 9 -7 16 -16 16 -9 0 -14 -5 -12 -12z"/>
<path d="M410 2065 c0 -12 14 -15 70 -15 56 0 70 3 70 15 0 12 -14 15 -70 15
-56 0 -70 -3 -70 -15z"/>
<path d="M420 2000 c7 -14 7 -20 0 -20 -5 0 -10 -4 -10 -10 0 -6 30 -10 70
-10 56 0 70 3 70 15 0 11 -12 15 -50 15 -36 0 -52 4 -56 15 -4 8 -13 15 -20
15 -12 0 -12 -4 -4 -20z"/>
<path d="M444 1920 c-26 -10 -36 -34 -28 -65 12 -47 102 -56 125 -13 30 55
-32 105 -97 78z m81 -50 c0 -22 -5 -25 -43 -28 -31 -2 -44 1 -48 12 -13 33 4
47 48 44 38 -3 43 -6 43 -28z"/>
<path d="M362 1778 c6 -18 28 -21 28 -4 0 9 -7 16 -16 16 -9 0 -14 -5 -12 -12z"/>
<path d="M410 1775 c0 -12 14 -15 70 -15 56 0 70 3 70 15 0 12 -14 15 -70 15
-56 0 -70 -3 -70 -15z"/>
<path d="M420 1710 c7 -14 7 -20 0 -20 -5 0 -10 -4 -10 -10 0 -6 30 -10 70
-10 56 0 70 3 70 15 0 11 -12 15 -50 15 -36 0 -52 4 -56 15 -4 8 -13 15 -20
15 -12 0 -12 -4 -4 -20z"/>
<path d="M380 1620 c-12 -12 -20 -33 -20 -55 l0 -35 95 0 c78 0 95 3 95 15 0
10 -11 15 -35 15 -28 0 -35 4 -35 20 0 26 -34 60 -60 60 -11 0 -29 -9 -40 -20z
m78 -37 c3 -21 -1 -23 -37 -23 -33 0 -41 4 -41 18 0 27 10 33 45 30 22 -2 31
-9 33 -25z"/>
<path d="M410 1451 c0 -9 36 -22 95 -34 14 -2 6 -7 -25 -16 -25 -6 -51 -14
-57 -16 -28 -9 -10 -24 43 -36 60 -13 56 -22 -13 -34 -26 -4 -43 -12 -43 -20
0 -11 14 -10 66 5 37 11 69 21 71 24 11 11 -10 25 -47 31 -38 6 -66 25 -38 25
30 0 89 22 86 32 -4 10 -42 24 -112 42 -15 4 -26 2 -26 -3z"/>
<path d="M444 1250 c-26 -10 -36 -34 -28 -65 12 -47 102 -56 125 -13 30 55
-32 105 -97 78z m81 -50 c0 -22 -5 -25 -43 -28 -31 -2 -44 1 -48 12 -13 33 4
47 48 44 38 -3 43 -6 43 -28z"/>
<path d="M530 1095 l0 -35 -85 0 c-69 0 -85 -3 -85 -15 0 -12 17 -15 95 -15
l95 0 0 50 c0 28 -4 50 -10 50 -5 0 -10 -16 -10 -35z"/>
</g>
</svg>
