<?xml version="1.0" standalone="no"?>
<!DOCTYPE svg PUBLIC "-//W3C//DTD SVG 20010904//EN"
 "http://www.w3.org/TR/2001/REC-SVG-20010904/DTD/svg10.dtd">
<svg version="1.0" xmlns="http://www.w3.org/2000/svg"
 width="500.000000pt" height="505.000000pt" viewBox="0 0 500.000000 505.000000"
 preserveAspectRatio="xMidYMid meet">

<g transform="translate(0.000000,505.000000) scale(0.100000,-0.100000)"
fill="#000000" stroke="none">
<path d="M2792 4679 c-55 -139 -162 -452 -162 -474 0 -21 19 12 30 52 7 27 28
82 46 123 40 95 106 298 102 317 -2 8 -9 0 -16 -18z"/>
<path d="M1613 4635 c75 -278 136 -450 154 -432 3 3 -75 244 -125 385 -19 52
-40 86 -29 47z"/>
<path d="M2377 4588 c-11 -91 -18 -424 -9 -403 5 11 10 44 11 75 1 30 6 125
10 210 8 150 0 226 -12 118z"/>
<path d="M3016 4411 c-54 -83 -149 -271 -142 -278 3 -3 15 6 28 19 28 27 174
315 165 324 -3 3 -26 -26 -51 -65z"/>
<path d="M2004 4425 c3 -9 13 -48 23 -88 9 -40 21 -78 26 -84 16 -21 27 -15
17 10 -5 12 -17 57 -26 100 -11 55 -20 77 -31 77 -10 0 -13 -6 -9 -15z"/>
<path d="M1080 4304 c0 -10 123 -154 174 -204 109 -106 97 -69 -18 55 -64 68
-116 128 -116 134 0 5 -9 11 -20 14 -11 3 -20 3 -20 1z"/>
<path d="M3646 4265 c-110 -58 -284 -195 -249 -195 13 0 236 149 283 189 43
37 29 39 -34 6z"/>
<path d="M3235 4209 c-60 -73 -72 -112 -15 -49 58 65 82 98 72 104 -4 2 -30
-22 -57 -55z"/>
<path d="M1470 4247 c0 -17 57 -91 88 -113 32 -22 27 -7 -21 60 -43 60 -67 80
-67 53z"/>
<path d="M2140 4044 c-49 -16 -170 -40 -240 -48 -305 -35 -457 -104 -528 -240
-48 -93 -31 -223 35 -273 30 -23 46 -28 97 -28 83 0 115 18 149 85 35 68 34
136 -3 175 -37 40 -50 32 -50 -27 0 -73 -16 -122 -52 -163 -61 -70 -121 -35
-133 79 -7 67 11 155 42 202 23 35 98 75 181 95 93 24 182 35 182 23 0 -5 -7
-45 -14 -89 -35 -208 -55 -338 -66 -430 -7 -55 -18 -127 -25 -160 -7 -33 -23
-127 -35 -208 -13 -81 -28 -155 -35 -163 -6 -9 -26 -19 -45 -23 -22 -4 -36
-14 -38 -24 -4 -21 6 -20 161 30 75 24 107 39 107 50 0 11 -5 13 -17 8 -10 -4
-27 -8 -38 -9 -28 -1 -27 11 28 334 25 151 49 296 52 321 9 63 16 70 63 71 59
1 65 -6 57 -68 -4 -36 -3 -54 4 -54 6 0 11 3 11 8 0 4 9 61 20 127 11 66 20
129 20 140 0 30 -16 6 -35 -52 -11 -35 -22 -53 -33 -54 -9 0 -30 -2 -45 -3
-16 -1 -30 1 -32 4 -3 5 15 146 31 233 8 44 17 49 110 67 94 18 104 10 104
-91 0 -103 19 -102 36 2 7 41 20 94 29 118 8 24 15 45 15 47 0 7 -23 3 -70
-12z"/>
<path d="M3423 3919 l-12 -30 -30 22 c-27 20 -33 21 -61 9 -38 -16 -70 -55
-70 -87 0 -14 18 -77 41 -141 35 -102 39 -124 34 -171 -8 -61 -39 -101 -80
-101 -59 0 -89 87 -43 130 12 11 25 21 30 21 4 1 14 2 21 3 15 2 11 26 -8 45
-20 20 -72 3 -98 -31 -28 -38 -29 -128 -1 -165 28 -37 73 -49 124 -34 87 26
140 107 140 213 0 57 -14 93 -64 167 -42 62 -47 104 -14 122 18 10 24 8 40
-11 10 -12 18 -37 18 -56 0 -60 26 -40 44 34 9 37 16 73 16 80 0 23 -16 12
-27 -19z"/>
<path d="M3068 3873 c-41 -4 -55 -33 -17 -33 16 0 19 -4 14 -17 -4 -10 -20
-70 -36 -133 -33 -127 -75 -245 -95 -261 -25 -20 -35 23 -25 113 8 72 41 249
57 301 4 14 -1 17 -30 17 -41 0 -86 -15 -86 -30 0 -5 9 -10 21 -10 15 0 19 -5
15 -17 -19 -66 -39 -212 -40 -289 -1 -102 7 -119 57 -127 26 -3 37 2 62 27 31
31 44 67 126 335 23 77 36 105 50 108 10 3 16 9 13 14 -5 9 -15 9 -86 2z"/>
<path d="M2750 3833 c-6 -15 -13 -34 -16 -42 -3 -11 -10 -9 -27 8 -13 11 -32
21 -44 21 -104 0 -177 -132 -178 -323 0 -85 1 -90 28 -113 61 -53 113 -37 154
47 21 44 39 116 30 125 -13 13 -35 -12 -41 -45 -6 -38 -42 -102 -61 -108 -6
-2 -20 3 -30 11 -17 12 -20 25 -18 78 4 86 31 201 57 241 38 56 88 47 100 -18
13 -66 31 -43 58 73 15 64 6 96 -12 45z"/>
<path d="M2284 3786 c-44 -20 -87 -76 -115 -154 -19 -53 -24 -86 -24 -162 0
-106 15 -145 60 -156 76 -19 139 75 178 267 20 95 11 174 -23 201 -26 21 -35
22 -76 4z m72 -71 c22 -89 -76 -350 -131 -350 -30 0 -42 61 -27 132 21 103
101 243 138 243 7 0 16 -11 20 -25z"/>
<path d="M3631 3726 c13 -14 162 -28 287 -27 145 0 212 12 136 24 -45 7 -430
9 -423 3z"/>
<path d="M1023 3629 c-78 -10 -203 -45 -217 -60 -8 -9 -8 -10 0 -6 6 4 54 14
105 22 166 27 219 39 219 47 0 9 -20 9 -107 -3z"/>
<path d="M3695 3398 c29 -18 299 -127 304 -122 6 5 10 3 -114 61 -60 29 -123
55 -140 59 -16 3 -39 8 -50 10 l-20 5 20 -13z"/>
<path d="M3488 3328 c-37 -16 -111 -37 -165 -48 -118 -23 -390 -50 -511 -50
-223 0 -574 -62 -697 -122 -38 -19 -115 -85 -115 -98 0 -4 25 2 56 12 37 12
97 21 173 24 l116 5 -30 -26 c-16 -14 -61 -47 -100 -72 -77 -51 -185 -153
-185 -175 0 -10 19 -5 68 18 84 40 245 71 412 79 230 11 553 40 685 61 180 29
227 42 370 100 14 6 -9 10 -70 14 -81 6 -232 33 -243 45 -3 3 3 8 14 12 42 16
138 88 216 162 45 43 81 81 78 83 -3 3 -35 -8 -72 -24z m-637 -158 c14 -8 19
-22 20 -53 0 -23 4 -51 8 -62 6 -16 11 -8 20 35 8 38 9 56 1 58 -18 6 0 22 26
22 14 0 22 -4 19 -10 -3 -6 -18 -54 -33 -108 -19 -66 -32 -97 -42 -97 -8 0
-16 7 -17 15 -1 8 -5 42 -9 75 l-7 60 -13 -74 c-7 -41 -19 -78 -26 -82 -14 -9
-35 0 -21 10 15 11 44 183 32 197 -9 11 -3 18 19 23 2 1 12 -4 23 -9z m-95
-31 c42 -47 7 -204 -46 -204 -34 0 -52 38 -45 95 9 65 24 108 43 120 24 13 27
13 48 -11z m248 -58 c3 -5 -1 -14 -8 -20 -16 -13 -32 2 -21 19 8 12 22 13 29
1z m-378 -32 c9 -15 -11 -33 -30 -26 -9 4 -13 13 -10 22 7 17 30 20 40 4z"/>
<path d="M2717 3085 c-18 -37 -23 -125 -8 -125 8 0 41 114 41 145 0 26 -16 17
-33 -20z"/>
<path d="M1155 3236 c-129 -53 -210 -92 -251 -120 -69 -46 -19 -30 161 54 33
15 90 42 128 58 64 29 82 43 55 42 -7 -1 -49 -16 -93 -34z"/>
<path d="M4244 3215 c-18 -8 -48 -33 -68 -56 -38 -45 -44 -76 -25 -126 l11
-28 23 50 c30 62 41 76 89 109 95 64 208 -6 149 -94 -81 -123 -211 -176 -538
-219 -341 -46 -369 -51 -431 -80 -135 -63 -211 -228 -174 -380 30 -124 175
-148 247 -40 36 55 40 147 6 180 l-21 22 0 -52 c-1 -38 -8 -65 -27 -97 -43
-73 -122 -108 -145 -65 -27 51 6 215 58 288 48 67 153 113 296 128 50 6 66 4
66 -5 0 -11 -10 -57 -55 -255 -7 -33 -19 -94 -25 -135 -19 -128 -50 -324 -56
-353 -4 -19 -17 -33 -45 -48 -37 -18 -45 -39 -15 -39 14 0 160 61 224 93 23
12 42 28 42 35 0 13 -13 11 -56 -5 -21 -8 -25 16 -14 74 5 32 24 144 40 248
49 313 70 406 94 415 12 4 66 10 121 14 319 23 476 120 479 297 1 70 -16 104
-66 123 -47 19 -142 19 -184 1z"/>
<path d="M1299 2999 c-142 -86 -252 -160 -246 -165 11 -12 299 157 328 192 25
31 -1 22 -82 -27z"/>
<path d="M3052 2728 c-30 -10 -88 -21 -130 -24 -71 -6 -91 -14 -92 -38 0 -4
16 -5 35 -2 25 5 35 3 35 -6 0 -7 -22 -68 -49 -135 -28 -66 -65 -174 -85 -240
-19 -65 -62 -199 -95 -298 -33 -99 -72 -220 -87 -270 -35 -116 -56 -158 -88
-173 -42 -19 -32 -35 17 -27 59 10 143 49 156 74 12 21 -2 31 -14 11 -12 -19
-35 -10 -35 13 0 12 42 148 94 302 l93 280 69 17 c110 26 99 40 113 -149 7
-93 17 -201 21 -242 10 -87 7 -96 -31 -110 -16 -6 -29 -17 -29 -27 0 -11 5
-14 18 -9 9 4 31 11 47 17 93 30 165 66 165 83 0 12 -4 13 -25 3 -16 -7 -29
-8 -35 -2 -5 5 -18 131 -29 279 -12 149 -26 335 -32 415 -14 178 -6 224 41
234 21 4 30 11 30 26 0 24 -8 23 -78 -2z m-87 -200 c0 -57 2 -137 5 -178 l5
-75 -68 -14 c-37 -8 -70 -12 -73 -8 -7 6 115 377 125 377 3 0 6 -46 6 -102z"/>
<path d="M2333 2622 c-58 -3 -72 -19 -20 -24 26 -2 33 -8 35 -30 3 -23 -44
-358 -51 -364 -3 -3 -245 -44 -257 -44 -6 0 -8 16 -4 43 10 71 55 341 61 366
6 23 5 24 -48 17 -95 -13 -154 -32 -158 -51 -2 -14 1 -16 15 -11 42 16 71 18
76 4 3 -7 -3 -53 -12 -103 -9 -49 -25 -151 -34 -225 -10 -74 -31 -207 -48
-295 -16 -88 -45 -261 -63 -385 -33 -217 -35 -226 -62 -247 -15 -13 -34 -23
-40 -23 -7 0 -13 -4 -13 -9 0 -20 21 -21 57 -3 21 11 56 25 78 32 105 33 167
79 90 67 -42 -7 -41 -15 -15 128 11 61 36 208 55 329 43 264 50 297 67 307 15
10 134 36 201 45 45 6 47 6 47 -18 0 -14 -9 -83 -20 -154 -11 -71 -30 -199
-41 -284 -26 -201 -29 -211 -67 -235 -45 -29 -42 -47 7 -39 70 11 165 41 169
52 2 8 -11 12 -37 12 -23 0 -41 3 -41 8 1 39 85 601 115 759 8 43 23 132 35
197 21 127 38 166 70 166 11 0 20 5 20 11 0 10 -13 10 -167 1z"/>
<path d="M1645 2575 c-171 -49 -232 -62 -385 -80 -493 -61 -737 -137 -878
-273 -106 -103 -141 -214 -107 -340 48 -175 219 -239 346 -130 35 31 55 71 69
145 14 71 4 116 -35 153 -20 18 -31 22 -61 17 -44 -7 -82 -37 -48 -37 66 0 79
-116 26 -231 -27 -60 -33 -67 -65 -73 -41 -8 -74 4 -103 35 -42 47 -48 70 -48
184 0 170 38 250 152 319 60 36 235 109 288 121 30 6 32 4 37 -27 7 -38 40
-344 62 -568 15 -151 44 -365 65 -465 6 -27 21 -117 35 -199 13 -82 28 -153
33 -158 14 -14 82 23 87 47 13 61 47 242 60 320 8 50 26 133 40 185 29 112 34
124 40 118 3 -3 18 -72 34 -154 33 -165 79 -382 86 -401 3 -9 15 -8 49 3 l45
16 15 71 c8 40 28 149 46 242 17 94 38 204 45 245 8 41 26 156 40 255 36 249
82 519 101 585 16 59 35 80 70 80 12 0 24 7 28 15 9 23 -34 18 -169 -20z m-5
-65 c6 -11 8 -30 5 -42 -3 -13 -12 -66 -20 -118 -32 -217 -44 -297 -49 -340
-4 -25 -15 -92 -26 -150 -35 -183 -74 -421 -91 -547 -6 -51 -15 -93 -19 -93
-4 0 -10 19 -14 43 -4 23 -20 112 -36 197 -17 85 -41 220 -54 300 l-23 145 23
90 c14 50 46 176 73 280 27 105 52 198 56 207 7 16 42 30 105 41 50 9 59 7 70
-13z m-250 -47 c0 -5 -11 -51 -25 -103 -14 -52 -35 -139 -48 -192 -12 -54 -24
-98 -28 -98 -3 0 -14 57 -23 128 -10 70 -22 152 -26 182 -5 30 -5 58 -1 63 16
16 151 34 151 20z m-266 -55 c3 -18 13 -82 21 -143 18 -123 23 -151 56 -313
l23 -114 -21 -101 c-11 -56 -39 -194 -62 -307 -23 -113 -45 -214 -50 -225 -11
-26 -12 -20 -56 355 -19 162 -39 329 -45 370 -5 41 -14 138 -20 215 -6 77 -12
170 -15 207 -6 74 -8 72 70 81 86 11 94 9 99 -25z"/>
<path d="M4092 1895 c-65 -55 -90 -172 -62 -288 10 -40 9 -46 -40 -137 -27
-51 -75 -146 -106 -210 -59 -121 -138 -254 -179 -305 -20 -24 -27 -27 -34 -16
-15 24 -1 102 45 242 24 75 44 138 44 142 0 3 -21 0 -47 -8 -56 -17 -73 -18
-106 -6 -25 10 -25 10 -11 68 20 86 18 166 -5 194 -17 21 -21 22 -43 10 -42
-22 -63 -69 -63 -141 0 -55 5 -72 29 -107 l28 -42 -32 -93 c-78 -227 -239
-487 -268 -432 -6 11 -13 57 -15 103 l-5 82 38 24 c107 67 174 226 127 298
-40 61 -108 14 -171 -118 -150 -313 -184 -376 -224 -424 -42 -51 -56 -36 -47
53 8 87 57 324 88 426 l23 75 73 37 c151 78 244 169 257 253 4 30 2 50 -6 60
-18 22 -30 18 -30 -10 0 -42 -34 -96 -98 -158 -52 -49 -159 -114 -170 -103 -2
2 6 32 17 67 20 59 26 89 17 89 -1 0 -17 -5 -33 -11 -26 -8 -32 -17 -37 -52
-15 -93 -25 -115 -58 -126 -35 -12 -158 -15 -158 -3 0 4 7 32 15 62 8 30 15
56 15 58 0 1 -14 2 -30 2 -33 0 -46 -20 -57 -86 -5 -31 -7 -32 -67 -36 -99 -8
-166 -52 -166 -108 0 -18 3 -17 29 12 27 30 34 33 106 36 l78 4 -7 -44 c-4
-25 -20 -96 -35 -159 -24 -96 -40 -134 -101 -240 -85 -150 -112 -185 -130
-174 -28 17 5 190 74 380 20 55 36 104 36 108 0 5 -14 7 -31 5 -28 -3 -32 -9
-51 -63 -26 -79 -34 -85 -51 -42 -41 96 -127 53 -197 -100 -70 -154 -161 -303
-184 -303 -14 0 2 100 34 211 17 57 34 138 37 179 5 64 3 78 -14 98 -17 22
-22 23 -59 13 -50 -13 -84 -49 -128 -131 l-34 -64 -7 38 c-10 49 -42 63 -91
40 -19 -9 -39 -25 -45 -35 -11 -22 -34 -26 -26 -5 3 8 -2 21 -12 30 -16 14
-20 14 -52 -8 -18 -13 -68 -58 -110 -99 -42 -42 -105 -94 -140 -117 -54 -35
-70 -41 -101 -37 -43 6 -47 -2 -18 -28 15 -14 29 -16 62 -11 80 13 134 57 272
221 28 32 52 53 54 47 2 -6 -15 -69 -37 -139 -42 -135 -81 -272 -81 -286 0 -4
16 -7 37 -5 l36 3 38 154 c25 100 50 174 72 214 33 60 80 107 94 93 6 -6 -27
-205 -47 -281 -5 -16 -11 -52 -15 -79 -4 -27 -9 -55 -12 -62 -3 -9 2 -14 17
-14 35 0 60 19 60 45 0 71 73 299 122 380 36 60 87 115 106 115 16 0 13 -21
-29 -170 -59 -206 -59 -340 -2 -348 26 -4 49 21 103 108 l38 61 4 -81 c3 -72
6 -84 27 -101 13 -10 28 -19 33 -19 22 0 82 79 119 155 l38 80 1 -75 c0 -84 4
-95 43 -109 24 -9 30 -7 59 23 29 29 100 139 111 170 3 6 7 9 10 6 2 -3 -1
-34 -9 -70 -22 -103 5 -155 69 -131 24 9 128 155 171 239 24 47 29 35 16 -36
-16 -89 0 -129 57 -146 36 -11 84 42 149 166 l59 113 6 -72 c11 -117 48 -158
125 -139 50 13 154 188 229 385 55 145 50 139 114 125 16 -3 21 -10 18 -22
-38 -116 -48 -171 -42 -230 7 -69 29 -102 67 -102 52 0 162 167 286 435 84
181 86 185 96 182 8 -3 75 -224 76 -248 0 -3 -11 -11 -24 -17 -109 -50 -175
-200 -110 -251 58 -46 117 -14 170 91 21 41 38 93 41 122 5 50 6 51 71 91 97
59 186 150 222 226 36 77 38 115 7 160 -42 62 -100 64 -164 5 -34 -30 -37 -38
-40 -97 -3 -59 -2 -62 10 -33 29 74 113 133 162 114 45 -17 5 -142 -76 -233
-35 -41 -185 -146 -193 -136 -1 2 -8 31 -16 64 -7 33 -27 93 -45 135 -49 113
-49 107 -4 199 44 90 60 171 39 196 -19 22 -55 18 -88 -10z m73 -23 c7 -32
-21 -114 -57 -172 l-22 -35 -7 30 c-13 57 -10 130 7 155 38 56 69 65 79 22z
m-595 -431 c-7 -50 -16 -91 -20 -91 -30 0 -41 144 -13 186 14 22 18 23 31 11
12 -13 12 -28 2 -106z m-574 -177 c-4 -9 -20 -67 -37 -128 -17 -62 -52 -155
-80 -211 -56 -113 -157 -267 -178 -273 -21 -7 -8 132 23 238 13 47 32 119 41
160 10 41 25 107 34 145 l17 70 70 6 c38 3 80 6 93 7 18 2 22 -2 17 -14z m362
-37 c4 -55 -29 -125 -84 -178 -32 -31 -34 -32 -34 -10 0 31 47 169 72 209 27
43 42 36 46 -21z m777 -61 c-13 -98 -51 -156 -103 -156 -41 0 -43 72 -3 126
36 51 90 96 103 88 6 -4 8 -26 3 -58z m-1717 -118 c27 -27 9 -122 -52 -273
-56 -138 -107 -202 -118 -147 -14 66 63 320 123 403 23 32 29 35 47 17z"/>
</g>
</svg>
